<svg width="175" height="167" viewBox="0 0 175 167" fill="none" xmlns="http://www.w3.org/2000/svg">
<path d="M172.555 115.834L145.131 87.7053C145.176 86.7906 145.198 85.8705 145.198 84.945C145.199 53.6085 119.362 28.207 87.4909 28.207C55.6196 28.207 29.7836 53.6085 29.7836 84.945C29.7832 87.3159 29.9323 89.6846 30.23 92.0373C30.0686 91.9393 29.8962 91.8599 29.7162 91.8007L26.738 90.8141C22.4677 89.3971 21.7994 88.266 20.2887 83.127L19.2683 79.6554C19.1189 79.1454 18.8048 78.697 18.3734 78.3781C17.9419 78.0591 17.4166 77.8869 16.8768 77.8874C16.337 77.8879 15.8121 78.0612 15.3813 78.381C14.9505 78.7008 14.6373 79.1497 14.4889 79.66L13.4707 83.1295C11.809 88.7815 10.9036 89.5271 7.02137 90.8166L4.04098 91.8032C3.54664 91.9662 3.11694 92.2779 2.81267 92.6942C2.50841 93.1105 2.34497 93.6104 2.34549 94.123C2.34601 94.6356 2.51045 95.1352 2.81556 95.5509C3.12067 95.9666 3.55099 96.2775 4.04567 96.4395L7.02462 97.4261C11.2949 98.8431 11.9629 99.9738 13.474 105.113L14.4947 108.585C14.5872 108.904 14.7454 109.202 14.9595 109.458C13.9025 109.131 12.8049 108.947 11.6973 108.912C11.6069 108.91 11.5139 108.91 11.4231 108.91C10.0893 108.914 8.76823 109.165 7.52903 109.65L7.50237 109.662L7.47535 109.672C6.15903 110.225 4.96899 111.032 3.97577 112.045C3.08763 112.959 2.32884 114.042 1.72678 115.264L1.7221 115.274L1.71706 115.284C0.755418 117.273 0.188668 119.581 0.0348206 122.139L0.0322986 122.148V122.158C-0.181359 126.308 0.665704 130.621 2.55259 134.979L2.55763 134.991L2.56484 135.005C4.50541 139.341 7.12154 142.902 10.3419 145.587L10.3516 145.594L10.3613 145.601C12.3707 147.245 14.4687 148.419 16.5945 149.087L16.6068 149.092L16.619 149.097C17.9136 149.489 19.1984 149.687 20.4414 149.687H20.5441C21.9781 149.668 23.3935 149.366 24.7066 148.799L24.7311 148.789L24.7556 148.777C26.0466 148.183 27.2026 147.34 28.1547 146.297C29.0039 145.354 29.7065 144.252 30.252 143.011L30.2545 143.004L30.257 142.999C30.2931 142.919 30.323 142.842 30.3572 142.761C30.6161 142.536 30.8616 142.296 31.0926 142.044L31.1023 142.034L31.1095 142.024C31.112 142.022 31.1171 142.019 31.1196 142.015C31.6148 142.334 32.1617 142.569 32.737 142.708L34.6285 143.172L44.0504 152.43C45.7406 154.092 47.8962 155.22 50.2418 155.671C52.5873 156.122 55.0164 155.875 57.2186 154.962L65.3649 162.964C66.2322 163.822 67.2638 164.502 68.4001 164.965C69.5364 165.428 70.7547 165.664 71.9847 165.661H72.1093C73.3581 165.649 74.5916 165.39 75.7366 164.899C76.8816 164.409 77.9148 163.698 78.7749 162.808C82.3036 159.159 82.2337 153.523 78.6207 149.972L66.1039 137.658C72.7179 140.255 79.935 141.683 87.4912 141.683C101.966 141.683 115.195 136.444 125.325 127.789L133.085 135.752C131.319 140.441 129.531 141.654 124.838 143.213L121.869 144.197C121.378 144.357 120.95 144.663 120.644 145.074C120.338 145.484 120.17 145.978 120.163 146.487C120.157 146.996 120.312 147.494 120.607 147.912C120.903 148.33 121.323 148.647 121.81 148.819L121.833 148.826L121.852 148.831L124.838 149.823C130.386 151.665 131.925 152.915 134.286 160.958L135.307 164.427C135.452 164.93 135.758 165.373 136.179 165.692C136.599 166.011 137.113 166.189 137.644 166.201C138.175 166.212 138.696 166.056 139.13 165.755C139.564 165.454 139.889 165.024 140.057 164.529L140.071 164.483L140.086 164.435L141.107 160.958C143.47 152.916 145.007 151.666 150.558 149.823L153.54 148.831L153.56 148.826L153.582 148.819C153.973 148.681 154.323 148.449 154.6 148.143C154.876 147.838 155.071 147.47 155.165 147.072C155.26 146.673 155.251 146.258 155.14 145.864C155.03 145.47 154.82 145.11 154.532 144.816L154.558 144.789C155.632 144.641 156.631 144.165 157.413 143.427C158.196 142.69 158.722 141.728 158.918 140.68L160.325 139.354C161.399 139.204 162.399 138.726 163.182 137.988C163.966 137.25 164.494 136.289 164.693 135.24L168.954 131.227L172.289 128.085C173.974 126.493 174.949 124.31 174.998 122.014C175.048 119.717 174.168 117.495 172.553 115.835L172.555 115.834Z" fill="#15B39B"/>
<path d="M159.484 71.544L157.686 69.2269L153.362 63.6447L152.922 63.0747L152.405 62.413H139.723V61.6889H127.04C130.333 58.6295 133.036 55.0104 135.02 51.0059L136.232 48.5542L138.116 44.7383L134.083 46.2421L133.67 46.3958C134.143 45.3749 134.544 44.3234 134.871 43.2487L135.86 40.0127L137.399 34.9792L133.173 38.1961L130.454 40.2652C129.32 41.1327 127.924 41.6012 126.487 41.5958H126.409C125.494 41.5791 124.73 40.8742 124.666 39.9886C124.609 39.1608 124.523 38.3371 124.408 37.5174C124.151 35.6827 124.829 33.8651 126.174 32.5668C126.92 31.848 127.513 30.9899 127.918 30.0427C128.322 29.0956 128.53 28.0785 128.53 27.0512C128.53 22.7829 124.999 19.3109 120.655 19.3109C120.348 19.311 120.042 19.3285 119.738 19.3634C117.873 19.578 116.035 18.8465 114.757 17.494L114.732 17.4682C111.291 13.8375 107.14 10.926 102.528 8.90749L101.163 7.24962L99.4254 5.14434C98.4299 3.9431 96.1986 2.26185 94.8157 1.50412C93.0367 0.523266 91.0322 0.00552212 88.9926 0C84.6002 0 80.4895 2.43508 78.2643 6.35444L78.1004 6.63784L77.9534 6.89289C71.879 8.43625 66.2978 11.4592 61.7252 15.6828C61.0687 16.2878 60.4373 16.9127 59.8311 17.5574C58.5751 18.8922 56.7512 19.5199 54.9101 19.3464C54.5749 19.3149 54.2379 19.3045 53.9013 19.3152C49.8724 19.4406 46.5433 22.6097 46.295 26.5641C46.2241 27.6613 46.3925 28.7608 46.7891 29.7888C47.1856 30.8168 47.801 31.7496 48.5941 32.5246C49.9221 33.8268 50.4896 35.6965 50.2363 37.5237C50.1232 38.3394 50.0378 39.1611 49.9801 39.9886C49.9189 40.8621 49.1432 41.5827 48.2507 41.5958H48.1578C46.7228 41.601 45.3275 41.1335 44.1945 40.2677L41.4735 38.1961L37.2472 34.9792L38.7864 40.0127L39.775 43.2487C40.1021 44.3234 40.5035 45.3749 40.9766 46.3958L40.563 46.2421L36.5331 44.7383L38.4171 48.5542L39.6288 51.0059C41.5985 54.9976 44.3199 58.6282 47.6112 61.691H22.0368L21.523 62.3552L15.5176 70.1026L15.1674 70.5549V74.9724H57.1022L58.5707 76.3149L59.4564 77.1233C61.2896 78.7862 63.6924 79.7005 66.2278 79.7005C67.1559 79.7013 68.0797 79.5774 68.9737 79.3324C74.5446 82.4118 80.874 84.0378 87.3247 84.0378C93.7219 84.0378 100.035 82.4235 105.583 79.37C105.622 79.3483 105.661 79.3267 105.701 79.3027C106.633 79.5745 107.601 79.7123 108.573 79.7118C111.104 79.7118 113.504 78.8 115.333 77.1421L116.235 76.3217L117.713 74.9755H139.723V74.2515H161.588L159.484 71.544Z" fill="#964F03"/>
<path d="M164.146 129.423L160.53 132.83L144.597 116.485L128.113 97.5031L130.677 95.0879L164.146 129.423V129.423ZM134.881 122.746L118.815 106.264L114.628 110.21L148.097 144.545L151.24 141.584L134.881 122.746ZM140.633 117.288L158.056 135.161L124.587 100.825L122.342 102.94L138.836 121.934L154.759 138.269L157.01 136.147L140.633 117.288Z" fill="#4F7AD3"/>
<path d="M159.257 135.68C159.032 135.675 158.81 135.627 158.604 135.538C158.398 135.449 158.212 135.321 158.056 135.161L124.587 100.825C124.279 100.501 124.114 100.072 124.127 99.6289C124.139 99.1862 124.328 98.7661 124.654 98.4596C124.979 98.1531 125.414 97.9849 125.864 97.9914C126.315 97.9979 126.744 98.1786 127.06 98.4943L160.53 132.83C160.764 133.071 160.921 133.374 160.98 133.702C161.039 134.03 160.998 134.368 160.862 134.673C160.725 134.978 160.5 135.237 160.214 135.416C159.929 135.595 159.595 135.687 159.257 135.68ZM154.707 140.65C155.035 140.341 155.225 139.916 155.235 139.47C155.244 139.023 155.073 138.591 154.759 138.269L121.289 103.933C120.973 103.617 120.543 103.436 120.093 103.43C119.642 103.423 119.207 103.591 118.882 103.898C118.557 104.204 118.367 104.625 118.355 105.067C118.342 105.51 118.508 105.94 118.815 106.264L152.285 140.599C152.599 140.922 153.031 141.108 153.485 141.118C153.94 141.127 154.379 140.959 154.707 140.65Z" fill="#3E50CE"/>
<path d="M128.109 97.499L144.608 116.498L127.047 98.4821L128.109 97.499ZM121.275 103.92L138.836 121.935L122.337 102.936L121.275 103.92Z" fill="#5F94FF"/>
<path d="M170.787 117.5L143.073 89.0722C142.495 88.4786 141.804 88.0029 141.039 87.6723C140.274 87.3416 139.45 87.1624 138.615 87.145C137.779 87.1275 136.948 87.2722 136.17 87.5706C135.391 87.8691 134.68 88.3155 134.077 88.8844L130.741 92.0251L125.805 96.6774C125.736 96.6683 125.667 96.6627 125.598 96.6608C124.856 96.648 124.157 96.9052 123.623 97.4068C123.336 97.6781 123.113 98.0076 122.969 98.3725C122.825 98.7373 122.764 99.1287 122.79 99.5192L120.034 102.114C119.965 102.105 119.895 102.101 119.826 102.1C119.463 102.088 119.101 102.148 118.762 102.275C118.423 102.403 118.114 102.596 117.852 102.843C117.59 103.09 117.38 103.386 117.236 103.714C117.092 104.041 117.016 104.394 117.013 104.751C117.011 104.82 117.012 104.889 117.018 104.958L113.103 108.647C112.894 108.844 112.726 109.079 112.609 109.339C112.493 109.6 112.43 109.88 112.424 110.165C112.417 110.449 112.468 110.732 112.574 110.997C112.679 111.262 112.836 111.504 113.036 111.709L146.506 146.045C146.911 146.459 147.465 146.698 148.049 146.71C148.632 146.722 149.196 146.507 149.618 146.11L153.538 142.418C153.614 142.427 153.692 142.431 153.768 142.432C154.146 142.442 154.523 142.373 154.873 142.231C155.223 142.089 155.539 141.877 155.801 141.608C156.064 141.34 156.266 141.02 156.395 140.67C156.525 140.32 156.579 139.948 156.554 139.576L159.309 136.979C159.378 136.988 159.448 136.994 159.517 136.995H159.542C159.903 137.003 160.262 136.941 160.598 136.811C160.934 136.682 161.241 136.488 161.5 136.241C161.759 135.994 161.966 135.699 162.109 135.373C162.252 135.047 162.327 134.696 162.331 134.341C162.333 134.273 162.331 134.205 162.326 134.137L167.262 129.487L170.597 126.346C171.815 125.197 172.519 123.62 172.555 121.961C172.59 120.302 171.955 118.697 170.788 117.499L170.787 117.5ZM138.71 90.8983C138.847 90.7674 139.009 90.6645 139.186 90.5954C139.364 90.5263 139.553 90.4924 139.744 90.4957C139.935 90.499 140.123 90.5394 140.298 90.6146C140.473 90.6898 140.631 90.7982 140.763 90.9337L157.315 107.913L138.709 90.8993L138.71 90.8983ZM161.277 132.128L160.531 132.832C160.844 133.155 161.014 133.586 161.003 134.032C160.993 134.478 160.803 134.902 160.476 135.21C160.148 135.519 159.709 135.687 159.256 135.678C158.802 135.669 158.371 135.483 158.056 135.162L140.633 117.288L157.011 136.148L155.505 137.567L154.759 138.27C155.069 138.591 155.238 139.02 155.229 139.463C155.22 139.906 155.034 140.328 154.711 140.637C154.387 140.945 153.954 141.117 153.503 141.113C153.052 141.11 152.621 140.932 152.303 140.618L134.873 122.737L151.241 141.585L148.097 144.545L114.627 110.21L118.815 106.264C118.507 105.94 118.342 105.51 118.354 105.067C118.367 104.625 118.556 104.205 118.882 103.898C119.207 103.592 119.642 103.423 120.092 103.43C120.543 103.436 120.972 103.617 121.288 103.933L122.036 103.229L123.84 101.528L124.586 100.825C124.274 100.502 124.105 100.07 124.115 99.6249C124.126 99.1794 124.315 98.756 124.643 98.4477C124.97 98.1394 125.408 97.9712 125.861 97.9799C126.315 97.9886 126.746 98.1736 127.061 98.4944L130.677 95.0876L164.146 129.422L161.277 132.128Z" fill="black"/>
<path d="M138.71 90.898L157.315 107.912L140.764 90.9323C140.632 90.7968 140.474 90.6884 140.299 90.6132C140.124 90.538 139.936 90.4977 139.745 90.4944C139.554 90.4911 139.365 90.5249 139.187 90.594C139.009 90.6631 138.848 90.7661 138.711 90.8969L138.71 90.898Z" fill="#515151"/>
<path d="M151.989 112.986H121.084L122.115 108.852L136.654 89.8386L138.716 87.1421H34.4473L34.1278 88.4259L27.05 116.844L26.5309 118.928H60.3078L54.3902 142.687L53.871 144.772H69.6979C73.1665 144.772 76.2272 143.995 78.8171 142.461C80.3256 143.669 82.6481 144.772 86.0987 144.772H91.4606C94.0256 144.772 96.3863 144.159 98.3676 142.989C100.156 144.158 102.393 144.772 104.917 144.772H127.613C128.891 144.263 129.955 143.725 130.869 143.088H104.918C101.757 143.088 99.7165 142.048 98.4324 140.912C96.5567 142.333 94.1784 143.088 91.4628 143.088H86.0987C82.3793 143.088 80.2132 141.651 79.004 140.312C76.4769 142.155 73.3492 143.088 69.6979 143.088H56.0541L62.5272 117.098C61.8632 117.197 61.1926 117.245 60.5211 117.244H28.7146L35.7923 88.8265H135.285L120.535 108.116L118.901 114.669H151.989L135.647 128.752L136.938 131.724L137.659 129.267C137.66 129.262 137.662 129.257 137.665 129.253C137.668 129.249 137.673 129.246 137.677 129.243C137.682 129.241 137.687 129.239 137.693 129.239C137.698 129.239 137.703 129.24 137.708 129.242V129.214L153.117 115.936L156.54 112.985L151.989 112.986Z" fill="#964F03"/>
<path d="M105.258 110.912L101.464 102.185L106.165 98.133L108.359 105.247L106.848 111.323L106.334 113.388L105.258 110.912ZM115.445 131.091L116.546 126.666H110.409L109.308 131.091H115.445ZM85.6058 100.823H79.4695L78.3656 105.248H84.5058L85.6058 100.823ZM130.869 143.088H104.918C101.757 143.088 99.7165 142.048 98.4324 140.912C96.5567 142.333 94.1783 143.088 91.4628 143.088H86.0986C82.3793 143.088 80.2132 141.651 79.004 140.313C76.4769 142.155 73.3491 143.088 69.6978 143.088H56.054L62.5272 117.098C61.8632 117.197 61.1925 117.246 60.521 117.245H28.7146L35.7923 88.8267H135.285L120.535 108.116L118.901 114.669H151.989L135.647 128.753L136.938 131.725L136.638 132.747C136.325 133.812 136.022 134.777 135.718 135.654L132.403 128.03L139.451 121.955L144.832 117.318H131.134L130.373 117.973L129.83 118.442L130.111 117.318H109.358C106.913 117.318 104.904 118.055 103.423 119.455L103.957 117.318H83.801L83.2998 119.333L82.6293 122.02C82.3895 121.364 82.0451 120.749 81.609 120.199C80.082 118.286 77.5686 117.316 74.1378 117.316H65.2442L64.7423 119.333L60.303 137.164L59.4859 140.441H69.6978C72.9258 140.441 75.6298 139.597 77.7368 137.931C78.5042 137.323 79.1849 136.615 79.7606 135.829C79.9001 136.779 80.2524 137.614 80.8203 138.324C81.9412 139.729 83.7178 140.441 86.0986 140.441H91.4606C94.7617 140.441 97.2701 139.095 98.7458 136.594C98.9275 137.222 99.2308 137.809 99.639 138.324C100.762 139.729 102.536 140.441 104.917 140.441H124.353L124.855 138.422L125.219 136.957L126.012 138.817L126.705 140.441H133.474C132.741 141.518 131.904 142.367 130.869 143.088ZM67.807 110.751C67.9881 111.378 68.2915 111.966 68.7002 112.48C69.8211 113.886 71.5977 114.598 73.9786 114.598H93.4116L93.916 112.582L94.2807 111.114L95.0733 112.976L95.7658 114.598H116.148L116.65 112.582L118.188 106.415L126.655 95.7103L129.895 91.4732H118.274L117.467 92.5462L115.714 94.8804L115.357 93.48L114.848 91.4732H100.194L99.4333 92.13L98.89 92.5969L99.1714 91.4732H78.4182C75.9735 91.4732 73.9641 92.2118 72.4837 93.6097L73.0173 91.4732H52.8614L52.3595 93.4896L49.4318 105.248H44.5926L47.2058 94.7503L48.0208 91.4732H37.9044L37.4025 93.4896L32.9636 111.323L32.1461 114.598H49.5968L50.0691 112.702C51.1972 113.96 52.9054 114.598 55.1594 114.598H60.521C63.8221 114.598 66.3298 113.253 67.807 110.751Z" fill="#FF9906"/>
<path d="M83.2959 114.598H93.4121L93.9143 112.581L94.2793 111.115L95.072 112.976L95.7641 114.598H116.147L116.649 112.581L118.184 106.415L126.651 95.7111L129.892 91.4736H118.275L117.468 92.547L115.713 94.8808L115.358 93.4797L114.849 91.4736H100.195L99.4334 92.1297L98.8908 92.597L99.1703 91.4736H78.4189C75.9747 91.4736 73.9646 92.2115 72.4859 93.6104L73.0181 91.4736H52.8612L52.3589 93.4928L49.4318 105.248H44.5916L47.2059 94.7497L48.0216 91.4736H37.9055L37.4033 93.4928L32.9629 111.322L32.1472 114.598H49.5968L50.0688 112.702C51.1962 113.96 52.9062 114.598 55.1591 114.598H60.5211C63.8211 114.598 66.3291 113.252 67.8071 110.751C67.9874 111.379 68.2908 111.967 68.7002 112.481C69.8211 113.886 71.597 114.598 73.9786 114.598H83.2959ZM47.4862 111.953H35.5776L40.0179 94.1213H44.5912L41.1612 107.896H48.4951L47.4862 111.953ZM66.2816 107.405C65.5252 110.437 63.605 111.953 60.5211 111.953H55.1606C52.0764 111.953 50.9115 110.437 51.6657 107.405L54.9736 94.1206H59.5469L56.1874 107.611C56.1394 107.8 56.2122 107.894 56.4058 107.894H61.2947C61.4868 107.894 61.6069 107.8 61.655 107.611L65.014 94.1206H69.5877L66.2816 107.405ZM84.5076 105.249H78.3667L79.4685 100.825H85.6058L84.5076 105.249ZM108.279 94.1213H112.747L114.485 100.97L119.634 94.1213H124.502L115.705 105.248L114.036 111.953H109.462L111.132 105.249L107.877 94.1213H108.279ZM108.362 105.249L106.849 111.323L106.334 113.389L105.259 110.913L101.467 102.186L106.166 98.1352L108.362 105.249ZM91.1685 94.1213H95.7417L94.249 100.117L101.207 94.1202H105.517L105.719 94.9991L105.401 95.2729L98.2228 101.46L102.782 111.953H97.5555L94.6951 105.249L92.7538 106.112L91.2985 111.953H86.7264L91.1685 94.1213ZM73.9786 111.953C70.8945 111.953 69.7295 110.437 70.4837 107.405L72.6603 98.6687C73.4155 95.6366 75.335 94.1204 78.4189 94.1202H87.2765L86.2677 98.1774H77.645C77.4529 98.1774 77.3328 98.2718 77.2847 98.4608L75.0069 107.609C74.9589 107.798 75.0309 107.893 75.2231 107.893H83.8443L82.8355 111.95H73.9786V111.953ZM75.6472 126.993L74.7075 130.766C74.2146 132.748 72.9692 133.739 70.9712 133.739H68.5003L70.92 124.022H73.3917C75.389 124.021 76.1408 125.011 75.6472 126.992V126.993ZM124.854 138.425L125.219 136.959L126.012 138.82L126.704 140.442H133.474C134.318 139.202 135.021 137.656 135.717 135.653L132.404 128.029L139.452 121.955L144.832 117.318H131.134L130.372 117.974L129.83 118.441L130.109 117.318H109.359C106.915 117.318 104.905 118.055 103.426 119.454L103.958 117.318H83.8011L83.2988 119.337L82.6294 122.024C82.389 121.367 82.0441 120.752 81.6076 120.202C80.081 118.289 77.5679 117.319 74.1382 117.319H65.2446L64.7424 119.339L60.302 137.165L59.4863 140.441H69.6979C72.9251 140.441 75.6299 139.597 77.7376 137.933C78.5045 137.324 79.1847 136.617 79.76 135.83C79.8994 136.78 80.2532 137.613 80.8203 138.324C81.9416 139.729 83.7175 140.441 86.0987 140.441H91.461C94.761 140.441 97.2691 139.095 98.747 136.593C98.9273 137.222 99.2305 137.81 99.6398 138.324C100.761 139.729 102.537 140.441 104.919 140.441H124.352L124.854 138.425ZM80.0533 127.664L79.4483 130.093C78.17 135.228 74.9198 137.795 69.6979 137.795H62.9167L67.3571 119.963H74.1382C79.3597 119.963 81.3314 122.53 80.0533 127.664ZM97.2197 133.246C96.4645 136.279 94.545 137.795 91.461 137.795H86.0987C83.0146 137.795 81.8502 136.279 82.6056 133.246L85.9135 119.962H90.4868L87.1274 133.452C87.0793 133.641 87.1521 133.735 87.3457 133.735H92.2353C92.4275 133.735 92.5476 133.641 92.5956 133.452L95.955 119.962H100.529L97.2197 133.246ZM115.446 131.091H109.307L110.408 126.667H116.547L115.446 131.091ZM117.206 124.02H108.585C108.393 124.02 108.273 124.115 108.225 124.304L105.946 133.452C105.898 133.641 105.971 133.735 106.165 133.735H114.786L113.778 137.793H104.918C101.834 137.793 100.669 136.277 101.423 133.244L103.598 124.51C104.353 121.477 106.273 119.961 109.357 119.962H118.216L117.206 124.02ZM122.239 137.795H117.666L122.107 119.963H126.68L125.187 125.959L132.147 119.963H137.679L129.163 127.302L133.34 136.916L132.7 137.795H128.495L125.635 131.091L123.694 131.954L122.239 137.795Z" fill="black"/>
<path d="M44.5912 94.1206H40.0176L35.5776 111.952H47.484L48.4943 107.895H41.1612L44.5912 94.1206Z" fill="white"/>
<path d="M66.2797 107.403L69.5876 94.1191H65.0139L61.6549 107.609C61.6068 107.798 61.4867 107.893 61.2946 107.893H56.4057C56.2135 107.893 56.1407 107.798 56.1873 107.609L59.5468 94.1191H54.9735L51.6656 107.403C50.9104 110.436 52.0754 111.953 55.1605 111.953H60.5225C63.6057 111.953 65.5247 110.436 66.2797 107.403Z" fill="white"/>
<path d="M83.8463 107.894H75.225C75.0329 107.894 74.9608 107.8 75.0089 107.611L77.2867 98.4626C77.3347 98.2737 77.4548 98.1792 77.647 98.1792H86.2686L87.2774 94.1221H78.4187C75.3346 94.1221 73.415 95.6382 72.6601 98.6706L70.485 107.406C69.7298 110.438 70.8947 111.954 73.9799 111.954H82.8374L83.8463 107.894Z" fill="white"/>
<path d="M91.2995 111.952L92.7537 106.111L94.695 105.248L97.5554 111.952H101.761H102.782L98.223 101.459L105.719 94.999L105.518 94.1201H101.207L94.2468 100.116L95.7398 94.1201H91.1666L86.7263 111.952H91.2995Z" fill="white"/>
<path d="M109.462 111.952H114.035L115.705 105.248L124.501 94.1201H123.548H119.632L114.484 100.968L112.746 94.1201H108.829H107.877L111.131 105.248L109.462 111.952Z" fill="white"/>
<path d="M74.1382 119.963H67.357L62.9167 137.795H69.6978C74.9193 137.795 78.1694 135.228 79.4482 130.093L80.0532 127.664C81.332 122.531 79.3603 119.964 74.1382 119.963ZM75.6471 126.992L74.7074 130.765C74.2145 132.748 72.9691 133.739 70.9711 133.739H68.5002L70.92 124.022H73.3916C75.3889 124.021 76.1407 125.011 75.6471 126.992Z" fill="white"/>
<path d="M92.5955 133.453C92.5475 133.642 92.4274 133.736 92.2352 133.736H87.3456C87.1535 133.736 87.0807 133.642 87.1273 133.453L90.4867 119.963H85.9134L82.6055 133.248C81.8503 136.28 83.0147 137.796 86.0986 137.796H91.4609C94.5446 137.796 96.4642 136.28 97.2196 133.248L100.528 119.963H95.9539L92.5955 133.453Z" fill="white"/>
<path d="M108.225 124.305C108.273 124.116 108.393 124.021 108.585 124.021H117.206L118.215 119.964H109.359C106.274 119.964 104.355 121.48 103.6 124.513L101.425 133.247C100.67 136.28 101.835 137.796 104.92 137.796H113.778L114.786 133.738H106.165C105.973 133.738 105.9 133.644 105.947 133.455L108.225 124.305Z" fill="white"/>
<path d="M137.679 119.962H136.457H132.147L125.187 125.958L126.68 119.962H122.106L117.666 137.794H122.239L123.694 131.953L125.635 131.091L128.495 137.794H132.7L133.34 136.915L129.162 127.302L137.679 119.962Z" fill="white"/>
<path d="M87.7154 131.092H83.1421L82.6056 133.246C81.8505 136.279 83.0148 137.795 86.0987 137.795H91.4611C94.5447 137.795 96.4643 136.279 97.2197 133.246L97.7562 131.092H93.1826L92.5956 133.453C92.5476 133.642 92.4275 133.737 92.2353 133.737H87.3457C87.1536 133.737 87.0808 133.642 87.1274 133.453L87.7154 131.092Z" fill="#15B39B"/>
<path d="M128.495 137.794H132.7L133.34 136.915L130.809 131.091H125.635L128.495 137.794Z" fill="#15B39B"/>
<path d="M79.1636 131.092H74.6166C74.0709 132.855 72.8561 133.737 70.9722 133.737H68.5013L69.1599 131.092H64.5859L62.9166 137.795H69.6978C74.5688 137.795 77.7241 135.56 79.1636 131.092Z" fill="#15B39B"/>
<path d="M106.535 131.092H101.963L101.427 133.246C100.672 136.279 101.837 137.795 104.922 137.795H113.779L114.788 133.737H106.165C105.973 133.737 105.9 133.643 105.947 133.454L106.535 131.092Z" fill="#15B39B"/>
<path d="M123.694 131.954L125.635 131.09L119.335 131.091L117.666 137.794H122.239L123.694 131.954Z" fill="#15B39B"/>
<path d="M111.132 105.248L109.462 111.952H114.036L115.705 105.248H111.132Z" fill="#15B39B"/>
<path d="M41.1611 107.894L41.8201 105.248H37.2468L35.5776 111.952H47.484L48.4943 107.894H41.1611Z" fill="#15B39B"/>
<path d="M75.2253 107.894C75.0331 107.894 74.9611 107.8 75.0091 107.611L75.5975 105.248H71.0221L70.4852 107.404C69.73 110.436 70.895 111.952 73.9801 111.952H82.8377L83.8465 107.895L75.2253 107.894Z" fill="#15B39B"/>
<path d="M66.2797 107.403L66.8165 105.248H62.2432L61.6549 107.61C61.6068 107.799 61.4867 107.894 61.2946 107.894H56.4057C56.2135 107.894 56.1407 107.799 56.1873 107.61L56.7757 105.248H52.2024L51.6656 107.403C50.9104 110.436 52.0754 111.953 55.1605 111.953H60.5225C63.6057 111.953 65.5247 110.436 66.2797 107.403Z" fill="#15B39B"/>
<path d="M94.6951 105.248H88.3956L86.7264 111.952H91.2996L92.7538 106.111L94.6951 105.248Z" fill="#15B39B"/>
<path d="M94.6951 105.248L97.5555 111.952H101.761H102.782L99.869 105.248H94.6951Z" fill="#15B39B"/>
<path d="M76.8904 151.672L59.3172 134.385L59.1068 120.444C59.0982 119.834 58.8842 119.244 58.498 118.766C58.1119 118.288 57.5755 117.949 56.9728 117.802L34.3388 112.269C34.2877 112.254 34.2354 112.243 34.1824 112.237C34.1157 112.221 34.0477 112.211 33.9792 112.206C33.9133 112.199 33.8445 112.194 33.776 112.192C33.7076 112.189 33.6366 112.187 33.5706 112.189C33.5027 112.19 33.4349 112.194 33.3674 112.201C33.2329 112.215 33.0996 112.239 32.9686 112.272C32.8965 112.292 32.8245 112.311 32.7524 112.335C32.6803 112.359 32.6227 112.38 32.5614 112.406L32.5395 112.415C32.4515 112.452 32.3657 112.494 32.2826 112.54C32.2679 112.547 32.254 112.555 32.2411 112.564C32.2019 112.586 32.1626 112.61 32.1258 112.632C32.0819 112.663 32.0379 112.692 31.9965 112.723C31.9551 112.754 31.918 112.781 31.8787 112.812C31.6447 112.999 31.4439 113.222 31.2842 113.474C31.2647 113.5 31.2482 113.529 31.2305 113.558L29.0204 112.615C29.0079 112.61 28.9949 112.606 28.9815 112.603C28.9601 112.593 28.9379 112.585 28.9152 112.579C28.8941 112.57 28.8719 112.565 28.8493 112.562C28.8295 112.555 28.8089 112.55 28.788 112.547C28.761 112.543 28.739 112.538 28.716 112.535C28.6958 112.533 28.6755 112.531 28.6551 112.531C28.6306 112.528 28.6061 112.526 28.583 112.526C28.56 112.526 28.5412 112.528 28.5193 112.531C28.4973 112.533 28.4703 112.533 28.4472 112.535C28.4241 112.537 28.4058 112.543 28.3863 112.545L28.3142 112.559C28.2944 112.567 28.2782 112.571 28.2555 112.579C28.2321 112.585 28.2092 112.593 28.1871 112.603C28.1735 112.605 28.1603 112.609 28.1478 112.615L23.1299 114.751C22.0533 113.9 20.7955 113.141 19.4549 112.661C18.6038 112.361 17.7105 112.194 16.807 112.165C16.3843 112.155 15.9615 112.184 15.5442 112.251C15.2822 112.131 15.0081 112.02 14.7317 111.917C13.7503 111.573 12.7054 111.346 11.631 111.318C10.5385 111.292 9.45206 111.485 8.43765 111.884C7.42493 112.308 6.50945 112.929 5.74585 113.708C4.99211 114.483 4.39257 115.376 3.92743 116.316C3.01227 118.212 2.60117 120.257 2.47867 122.281C2.26825 126.35 3.21295 130.356 4.80583 134.034C6.44303 137.694 8.76552 141.115 11.9271 143.75C13.5125 145.047 15.3118 146.156 17.3428 146.797C18.3585 147.105 19.435 147.29 20.5242 147.281C21.6256 147.266 22.7126 147.033 23.7208 146.597C24.7116 146.143 25.5989 145.496 26.3294 144.696C27.0438 143.903 27.5922 142.998 28.0058 142.057C28.111 141.814 28.2065 141.566 28.2919 141.318C28.6478 141.055 28.9773 140.758 29.2759 140.433C29.8884 139.749 30.3622 138.98 30.7221 138.178C30.9012 137.758 31.0532 137.328 31.1772 136.889L31.1894 137.731C31.1885 137.767 31.1902 137.803 31.1945 137.839C31.1945 137.865 31.197 137.887 31.1992 137.914C31.2459 138.491 31.4764 139.04 31.8579 139.482C32.2395 139.923 32.7527 140.236 33.3249 140.375L35.8722 140.998H35.8748L45.7783 150.731C47.1344 152.065 48.867 152.967 50.7513 153.321C52.6356 153.675 54.5845 153.463 56.3451 152.714C56.8092 152.518 57.2564 152.284 57.6826 152.017L67.0943 161.263C68.0774 162.227 69.3316 162.878 70.6952 163.134C72.0587 163.391 73.469 163.239 74.7441 162.699C75.5968 162.335 76.3666 161.807 77.0079 161.145C79.6067 158.455 79.5577 154.295 76.8904 151.672ZM53.5031 122.655H53.5128V122.768L53.5153 122.771L53.6058 128.752L45.378 120.667L53.5031 122.655ZM22.7372 117.278L27.4625 115.266L27.4135 120.153L27.3987 121.724L22.6709 123.738L22.7372 117.278ZM16.8027 113.606C17.5366 113.594 18.2882 113.712 19.0196 113.933C19.996 114.229 20.9872 114.718 21.8707 115.288L21.2074 115.569C21.0119 115.652 20.8451 115.789 20.727 115.963C20.6089 116.138 20.5446 116.342 20.5419 116.551L20.4857 122.113L18.709 122.868C16.9569 123.614 16.4392 126.138 17.5319 128.616C18.3329 130.437 19.7456 131.647 21.1324 131.87L21.1504 131.878L27.2697 133.375C27.2697 133.375 30.1496 139.196 25.844 140.72H25.8512C25.3425 140.862 24.8148 140.927 24.2861 140.914C23.5691 140.892 22.8449 140.745 22.1448 140.505C20.7397 140.004 19.4383 139.15 18.2897 138.131C17.127 137.116 16.1091 135.927 15.2206 134.65C14.3228 133.377 13.5665 132.003 12.9374 130.574C12.3083 129.145 11.7949 127.669 11.462 126.152C11.1143 124.643 10.9237 123.096 10.9576 121.566C10.9914 120.035 11.2364 118.517 11.8263 117.158C12.1178 116.492 12.5115 115.875 12.9936 115.327C13.4709 114.799 14.0518 114.372 14.7014 114.071C15.3629 113.778 16.0776 113.62 16.8027 113.606ZM26.3268 142.329C26.0129 142.819 25.6489 143.276 25.2405 143.692C24.634 144.315 23.9008 144.806 23.0886 145.131C22.2765 145.457 21.4038 145.611 20.5271 145.583C19.6512 145.562 18.7703 145.382 17.9185 145.09C16.2154 144.486 14.6442 143.457 13.2566 142.234C11.8569 141.014 10.6308 139.592 9.56646 138.057C8.48557 136.532 7.58158 134.886 6.82567 133.173C6.06976 131.46 5.46987 129.687 5.0757 127.868C4.6646 126.056 4.44698 124.201 4.50318 122.363C4.54462 120.532 4.85303 118.701 5.57255 117.062C5.93717 116.251 6.407 115.498 6.98961 114.853C7.56934 114.204 8.2818 113.683 9.08046 113.323C9.87912 112.963 10.746 112.773 11.6245 112.765C12.2465 112.756 12.8677 112.814 13.4768 112.938C12.846 113.272 12.2722 113.701 11.7762 114.209C11.1327 114.868 10.6211 115.633 10.2247 116.429C9.44396 118.039 9.08907 119.774 8.98386 121.487C8.89272 123.196 9.02262 124.909 9.37046 126.585C9.7131 128.253 10.2467 129.874 10.9147 131.433C11.6097 132.983 12.4416 134.477 13.4426 135.868C14.4449 137.269 15.6224 138.541 16.9472 139.654C18.2929 140.752 19.8198 141.694 21.555 142.24C22.4198 142.505 23.3439 142.661 24.2811 142.651C24.9871 142.646 25.6879 142.533 26.3589 142.317C26.3489 142.323 26.3381 142.327 26.3268 142.329ZM36.747 132.811C36.7404 132.376 36.6294 131.948 36.4229 131.563C36.2165 131.178 35.9205 130.846 35.5591 130.595C35.1977 130.343 34.781 130.179 34.3429 130.116C33.9048 130.053 33.4578 130.092 33.0381 130.231C32.819 130.302 32.6101 130.401 32.4166 130.525C32.3124 130.588 32.2134 130.659 32.1204 130.737C31.8006 131.001 31.5446 131.331 31.3714 131.704C31.1982 132.077 31.1122 132.483 31.1195 132.893L31.1246 133.266L23.4787 125.752L28.102 123.784L35.9565 128.221C35.9697 128.229 35.9854 128.232 36.0007 128.23C36.0161 128.227 36.0299 128.219 36.0396 128.207C36.0493 128.195 36.0542 128.18 36.0533 128.165C36.0524 128.15 36.0458 128.135 36.0347 128.124L29.5965 122.152L29.6686 115.249L42.0607 120.535C42.4109 120.925 43.9109 122.992 43.0717 128.923C42.8916 130.184 40.9524 132.101 39.6993 133.078L36.7701 134.324L36.747 132.811ZM40.7042 135.007H40.7089C40.7683 134.98 40.8256 134.949 40.8804 134.914C40.8919 134.905 40.9039 134.897 40.9164 134.889L40.9431 134.87C41.3444 134.565 44.8855 131.808 45.2501 129.221C45.5682 126.989 45.583 125.203 45.4302 123.783L53.6526 131.872L53.7701 139.668L38.5172 135.939L40.7042 135.007ZM75.4092 159.65C74.9751 160.099 74.4541 160.457 73.877 160.705C73.2998 160.952 72.6781 161.084 72.0485 161.091C71.4188 161.099 70.794 160.983 70.2108 160.749C69.6276 160.516 69.0978 160.17 68.6526 159.732L60.6179 151.838L55.568 146.875C55.5573 146.865 55.5434 146.858 55.5284 146.856C55.5134 146.854 55.4982 146.858 55.4853 146.865C55.4724 146.873 55.4625 146.885 55.4573 146.899C55.4521 146.913 55.4519 146.928 55.4566 146.942C55.6007 147.358 56.2745 148.572 57.0059 149.837C55.5879 150.899 53.8264 151.42 52.0478 151.303C50.2692 151.185 48.5941 150.438 47.333 149.2L40.0189 142.013L55.9546 145.909C56.5543 146.054 57.1859 146.003 57.7532 145.763C57.9791 145.667 58.1907 145.541 58.3823 145.39C58.7202 145.127 58.9921 144.791 59.1768 144.409C59.3614 144.026 59.4539 143.607 59.4469 143.183L59.3587 137.493L75.3289 153.205C77.1473 154.988 77.1816 157.822 75.4092 159.65Z" fill="black"/>
<path d="M4.50247 122.363C4.44771 124.2 4.66461 126.056 5.07499 127.866C5.46843 129.686 6.07157 131.461 6.82532 133.172C7.57906 134.884 8.48593 136.532 9.56359 138.057C10.6286 139.591 11.8554 141.014 13.2556 142.233C14.6427 143.457 16.2129 144.485 17.916 145.089C18.7678 145.382 19.6487 145.56 20.5257 145.583C21.4023 145.61 22.2749 145.456 23.087 145.131C23.8991 144.805 24.6325 144.315 25.2395 143.693C25.6487 143.277 26.0134 142.82 26.3276 142.33C26.3384 142.327 26.3488 142.323 26.36 142.319C25.6881 142.534 24.9868 142.647 24.2803 142.654C23.3555 142.656 22.4359 142.516 21.5547 142.24C19.8206 141.694 18.2918 140.753 16.9461 139.654C15.6209 138.542 14.4434 137.27 13.4415 135.868C12.442 134.477 11.6108 132.982 10.9151 131.433C10.2471 129.874 9.71455 128.252 9.36939 126.585C9.02215 124.908 8.89237 123.195 8.98315 121.487C9.09124 119.774 9.44397 118.04 10.2258 116.43C10.6221 115.632 11.1334 114.869 11.7751 114.208C12.2723 113.701 12.8462 113.273 13.4764 112.938C12.8673 112.815 12.2464 112.756 11.6245 112.764C10.7459 112.773 9.87896 112.963 9.08031 113.323C8.28166 113.684 7.56926 114.205 6.98961 114.854C6.40737 115.501 5.93682 116.254 5.57112 117.065C4.85268 118.7 4.54427 120.531 4.50247 122.363Z" fill="#A8A8A8"/>
<path d="M25.844 140.719C30.1496 139.196 27.2697 133.375 27.2697 133.375L21.1504 131.878L21.1335 131.87C21.0333 131.854 20.9328 131.835 20.8326 131.808C19.5446 131.47 18.2745 130.304 17.5308 128.616C16.9854 127.376 16.842 126.126 17.0542 125.092C17.2664 124.058 17.8328 123.24 18.709 122.867L19.2621 122.632L20.4846 122.112L20.5415 116.552C20.5422 116.499 20.5469 116.446 20.5556 116.393C20.5588 116.374 20.5649 116.355 20.5692 116.336C20.6058 116.167 20.6827 116.01 20.7937 115.876C20.9047 115.743 21.0465 115.637 21.2073 115.569L21.8631 115.29C21.7509 115.217 21.638 115.146 21.5244 115.077C21.4108 115.008 21.2961 114.941 21.1803 114.875C20.7232 114.614 20.2479 114.386 19.7579 114.191C19.515 114.095 19.2692 114.009 19.0203 113.934C18.2886 113.713 17.5377 113.595 16.8016 113.606C16.7094 113.608 16.6177 113.612 16.5267 113.618C16.3455 113.63 16.1652 113.652 15.9862 113.682C15.6318 113.743 15.2844 113.838 14.9489 113.966C14.8658 113.998 14.7833 114.032 14.7014 114.067C14.3784 114.218 14.0713 114.399 13.7848 114.609C13.4965 114.821 13.2309 115.06 12.9922 115.324C12.7523 115.594 12.5354 115.883 12.3436 116.188C12.1477 116.498 11.9748 116.821 11.8262 117.156C11.6046 117.67 11.4282 118.201 11.2991 118.745C11.2112 119.11 11.1417 119.481 11.0891 119.857C11.0624 120.044 11.0399 120.233 11.0217 120.423C10.9857 120.802 10.964 121.183 10.9565 121.565C10.9522 121.756 10.9513 121.948 10.954 122.139C10.972 123.481 11.1575 124.83 11.4613 126.15C11.5854 126.719 11.734 127.282 11.9069 127.84C12.1361 128.584 12.4045 129.316 12.705 130.036C12.7804 130.216 12.8575 130.395 12.9363 130.573C13.5654 132.002 14.3202 133.377 15.2192 134.647C15.8794 135.606 16.6237 136.506 17.4437 137.336C17.7165 137.61 17.9979 137.874 18.2878 138.128C18.432 138.256 18.5781 138.38 18.7263 138.503C19.0236 138.746 19.3295 138.979 19.6436 139.196C19.8007 139.304 19.9599 139.409 20.121 139.51C20.4416 139.712 20.7724 139.896 21.1122 140.064C21.4471 140.231 21.7917 140.378 22.1441 140.505C22.3195 140.565 22.496 140.62 22.6738 140.668C23.1989 140.813 23.7396 140.896 24.2846 140.916C24.4626 140.92 24.6407 140.916 24.8183 140.903C25.1682 140.876 25.5145 140.815 25.8523 140.722L25.844 140.719Z" fill="#515151"/>
<path d="M33.8906 130.086C33.3672 130.093 32.8563 130.244 32.4159 130.522C32.3118 130.587 32.2125 130.659 32.119 130.738C31.7991 131.001 31.5432 131.331 31.3701 131.704C31.197 132.078 31.1112 132.484 31.1188 132.894L31.1231 133.267L23.4783 125.753L28.1046 123.784L35.9566 128.221C35.9696 128.229 35.9854 128.232 36.0009 128.23C36.0163 128.228 36.0303 128.22 36.04 128.207C36.0498 128.195 36.0546 128.18 36.0535 128.165C36.0525 128.15 36.0457 128.135 36.0344 128.125L29.5969 122.153L29.669 115.251L42.0607 120.537C42.4102 120.926 43.9123 122.992 43.0714 128.924C42.8912 130.185 40.9532 132.101 39.7004 133.078L36.7697 134.325L36.7481 132.811C36.7363 132.077 36.4287 131.378 35.8929 130.867C35.3571 130.356 34.637 130.075 33.8906 130.086ZM27.398 121.726L27.4128 120.154L27.4632 115.266L22.7383 117.277L22.6709 123.737L27.398 121.726Z" fill="#4F7AD3"/>
<path d="M53.7687 139.667L38.5165 135.94L40.7039 135.009H40.7086C40.7686 134.983 40.826 134.951 40.8801 134.915L40.9161 134.891L40.9424 134.872C41.3442 134.567 44.8845 131.809 45.2498 129.223C45.5676 126.992 45.5813 125.204 45.43 123.786L53.6509 131.875L53.7687 139.667ZM75.3315 153.202L59.3623 137.491L59.4488 143.18C59.4554 143.603 59.363 144.023 59.1787 144.405C58.9944 144.788 58.7232 145.124 58.3859 145.387C58.1937 145.538 57.9816 145.664 57.7554 145.76C57.1881 146.001 56.5564 146.052 55.9564 145.907L40.0219 142.01L47.3359 149.198C48.5966 150.437 50.2716 151.185 52.0501 151.302C53.8287 151.419 55.5902 150.898 57.0078 149.836C56.276 148.569 55.6026 147.356 55.4585 146.941C55.4538 146.927 55.454 146.912 55.4592 146.898C55.4644 146.884 55.4743 146.872 55.4872 146.864C55.5001 146.857 55.5153 146.853 55.5303 146.855C55.5453 146.857 55.5592 146.864 55.5698 146.874L60.6198 151.837L68.6519 159.73C69.0972 160.168 69.6271 160.514 70.2105 160.748C70.7938 160.981 71.4189 161.098 72.0487 161.09C72.6786 161.083 73.3005 160.951 73.8778 160.703C74.4552 160.456 74.9763 160.097 75.4104 159.648C77.1813 157.821 77.1471 154.988 75.3315 153.202Z" fill="#3E50CE"/>
<path d="M33.0382 130.229L33.1127 135.08L33.0086 135.115C32.9693 135.129 32.9312 135.145 32.8908 135.163C32.354 135.392 31.9029 135.78 31.6001 136.272C31.2973 136.765 31.1577 137.338 31.2006 137.911C31.1974 137.887 31.1955 137.862 31.1949 137.838C31.1911 137.802 31.1894 137.767 31.1898 137.731L31.1707 136.374L31.1232 133.269L31.1188 132.896C31.1112 132.486 31.1971 132.079 31.3701 131.706C31.5432 131.333 31.7991 131.003 32.119 130.739C32.2126 130.661 32.3118 130.589 32.4159 130.524C32.6102 130.401 32.8192 130.302 33.0382 130.229ZM56.4313 119.713C56.0069 119.694 55.5838 119.771 55.1944 119.938C54.6628 120.165 54.2153 120.548 53.9131 121.034C53.6108 121.52 53.4684 122.086 53.5053 122.655H53.5139V122.767V122.769L53.604 128.751V128.753L53.6494 131.87L53.7672 139.663L56.7577 140.402L56.6738 134.84L56.6255 131.733L56.5268 125.223V125.218L56.4453 119.71L56.4313 119.713Z" fill="#515151"/>
<path d="M49.5848 130.961L53.6991 135.006L53.7459 138.114L48.0266 132.492C47.8201 132.289 47.704 132.013 47.704 131.726C47.704 131.439 47.8201 131.164 48.0266 130.961C48.233 130.758 48.5131 130.644 48.8052 130.644C49.0972 130.644 49.3773 130.758 49.5838 130.961H49.5848ZM59.4069 143.68L72.502 156.555C72.7085 156.758 72.9886 156.872 73.2806 156.872C73.5726 156.872 73.8527 156.758 74.0592 156.555C74.2657 156.352 74.3817 156.076 74.3817 155.789C74.3817 155.502 74.2657 155.227 74.0592 155.024L59.4098 140.621L59.4495 143.181C59.4507 143.348 59.4365 143.515 59.4069 143.68Z" fill="#4F7AD3"/>
<path d="M39.7526 123.349C39.602 123.349 39.453 123.318 39.3149 123.259L31.7601 120.036C31.6275 119.979 31.5075 119.897 31.4069 119.795C31.3064 119.693 31.2273 119.572 31.1742 119.44C31.1211 119.308 31.0951 119.167 31.0975 119.024C31.0999 118.882 31.1308 118.742 31.1883 118.612C31.2459 118.481 31.329 118.363 31.4329 118.264C31.5369 118.166 31.6596 118.088 31.7941 118.036C31.9286 117.983 32.0722 117.958 32.2168 117.96C32.3614 117.962 32.5041 117.993 32.6367 118.049L40.1915 121.273C40.4237 121.372 40.6141 121.547 40.7307 121.768C40.8472 121.989 40.8826 122.243 40.8311 122.487C40.7796 122.73 40.6442 122.949 40.4478 123.106C40.2513 123.264 40.0058 123.349 39.7526 123.349V123.349Z" fill="#D4D4D4"/>
<path d="M17.7885 115.187C16.7757 115.396 15.9344 115.889 15.3907 116.628C14.8352 117.355 14.5048 118.248 14.2998 119.185C14.2299 119.414 14.2126 119.66 14.1661 119.898L14.1041 120.257L14.0663 120.623C14.0439 120.868 14.0097 121.112 13.9892 121.359L13.9459 122.102C13.9395 122.227 13.924 122.35 13.9211 122.477C13.9182 122.603 13.9171 122.727 13.9121 122.853L13.8836 123.611C13.8706 124.118 13.8764 124.626 13.8335 125.146V125.15C13.832 125.168 13.8244 125.184 13.8118 125.197C13.7993 125.21 13.7827 125.218 13.7648 125.22C13.7469 125.222 13.7288 125.218 13.7137 125.208C13.6986 125.198 13.6873 125.184 13.6818 125.167C13.5211 124.673 13.3896 124.171 13.2747 123.663L13.1457 122.894C13.0988 122.637 13.0674 122.378 13.0517 122.117L13.0027 121.333C12.9948 121.07 13.0095 120.805 13.016 120.541C13.0211 120.409 13.0221 120.277 13.0326 120.144L13.0819 119.747C13.118 119.481 13.1414 119.215 13.2124 118.953C13.4307 117.904 13.8796 116.833 14.6982 116.02L14.8478 115.867L15.0196 115.735C15.1367 115.651 15.2437 115.556 15.368 115.483L15.7485 115.281C15.8728 115.212 16.0151 115.175 16.1448 115.124C16.6853 114.955 17.2553 114.903 17.7874 115.006C17.8086 115.01 17.8277 115.021 17.8413 115.037C17.855 115.054 17.8625 115.074 17.8625 115.096C17.8625 115.117 17.855 115.137 17.8413 115.154C17.8277 115.17 17.8086 115.181 17.7874 115.186L17.7885 115.187Z" fill="#A8A8A8"/>
<path d="M10.7973 113.875C10.0539 114.554 9.41478 115.337 8.89992 116.197C8.39236 117.039 7.97898 117.933 7.66698 118.863C7.35173 119.796 7.14468 120.761 7.04979 121.74C6.9435 122.727 6.95575 123.728 6.99574 124.769V124.772C6.99632 124.789 6.99058 124.807 6.97949 124.821C6.96841 124.835 6.95268 124.845 6.93501 124.849C6.91735 124.853 6.89885 124.85 6.88271 124.842C6.86657 124.834 6.85379 124.821 6.84658 124.805C6.42287 123.838 6.20236 122.782 6.15553 121.711C6.11513 120.632 6.26844 119.554 6.60842 118.526C6.94065 117.493 7.45895 116.527 8.13861 115.675C8.81633 114.834 9.68789 114.102 10.705 113.719C10.7252 113.711 10.7474 113.711 10.7679 113.718C10.7884 113.724 10.8059 113.738 10.8173 113.756C10.8288 113.774 10.8334 113.795 10.8305 113.816C10.8275 113.837 10.8172 113.857 10.8012 113.871L10.7973 113.875Z" fill="white"/>
<path d="M13.2577 142.233C14.6452 143.455 16.2165 144.485 17.9196 145.089C18.7713 145.38 19.6523 145.56 20.5282 145.582C21.4045 145.61 22.2771 145.456 23.089 145.13C23.9009 144.805 24.634 144.315 25.2405 143.692C25.6488 143.276 26.0128 142.819 26.3268 142.33C26.338 142.328 26.3488 142.323 26.3589 142.318C25.6879 142.534 24.987 142.647 24.281 142.652C21.0481 144.648 16.1249 143.717 11.3103 140.291C11.9153 140.98 12.5658 141.628 13.2577 142.233Z" fill="#515151"/>
<path d="M137.697 136.649C136.826 139.09 135.844 141.106 134.488 142.705C133.149 144.283 131.484 145.466 129.043 146.52C133.771 148.585 135.878 151.288 137.696 156.385C138.566 153.944 139.549 151.928 140.905 150.33C142.244 148.751 143.908 147.568 146.35 146.514C141.622 144.45 139.514 141.746 137.697 136.649Z" fill="white"/>
<path d="M137.733 163.767C137.731 163.774 137.726 163.78 137.719 163.785C137.713 163.789 137.705 163.792 137.697 163.792C137.689 163.792 137.682 163.789 137.675 163.785C137.669 163.78 137.664 163.774 137.661 163.767L136.64 160.29C134.179 151.912 132.325 149.769 125.621 147.543L122.637 146.552C122.629 146.549 122.623 146.544 122.618 146.538C122.614 146.531 122.611 146.524 122.611 146.516C122.611 146.508 122.614 146.501 122.618 146.494C122.623 146.488 122.629 146.483 122.637 146.481L125.621 145.491C132.324 143.268 134.178 141.123 136.638 132.747L137.66 129.27C137.663 129.262 137.667 129.256 137.674 129.252C137.68 129.247 137.688 129.245 137.696 129.245C137.704 129.245 137.712 129.247 137.718 129.252C137.724 129.256 137.729 129.262 137.732 129.27L138.753 132.747C141.214 141.125 143.067 143.268 149.772 145.493L152.756 146.484C152.763 146.486 152.77 146.491 152.774 146.497C152.779 146.504 152.781 146.511 152.781 146.519C152.781 146.527 152.779 146.534 152.774 146.541C152.77 146.547 152.763 146.552 152.756 146.554L149.772 147.546C143.067 149.771 141.214 151.915 138.753 160.293L137.733 163.767ZM129.043 146.521C133.771 148.585 135.878 151.289 137.696 156.385C138.566 153.945 139.549 151.929 140.905 150.33C142.244 148.752 143.909 147.569 146.35 146.514C141.622 144.45 139.514 141.747 137.697 136.65C136.827 139.09 135.844 141.106 134.488 142.705C133.149 144.283 131.484 145.467 129.043 146.521Z" fill="black"/>
<path d="M16.8809 87.5869C15.6295 90.8155 14.1174 92.6834 11.11 94.1199C14.1174 95.556 15.6295 97.4239 16.8809 100.652C18.1318 97.4239 19.6436 95.556 22.6514 94.1199C19.6436 92.6834 18.1318 90.8151 16.8809 87.5869Z" fill="white"/>
<path d="M16.9177 107.922C16.915 107.929 16.9102 107.935 16.9037 107.94C16.8972 107.944 16.8895 107.947 16.8816 107.947C16.8737 107.947 16.866 107.944 16.8595 107.94C16.8531 107.935 16.8482 107.929 16.8456 107.922L15.8241 104.445C14.027 98.3265 12.678 96.7625 7.80605 95.1457L4.8217 94.1538C4.81424 94.1512 4.80777 94.1464 4.8032 94.1401C4.79863 94.1337 4.79617 94.1262 4.79617 94.1184C4.79617 94.1106 4.79863 94.103 4.8032 94.0967C4.80777 94.0903 4.81424 94.0855 4.8217 94.083L7.80569 93.0928C12.6784 91.4757 14.027 89.9117 15.8241 83.7936L16.8441 80.3181C16.8468 80.3107 16.8516 80.3044 16.8581 80.2999C16.8646 80.2954 16.8723 80.293 16.8802 80.293C16.8881 80.293 16.8958 80.2954 16.9023 80.2999C16.9087 80.3044 16.9136 80.3107 16.9162 80.3181L17.9373 83.795C19.7341 89.9128 21.0831 91.4771 25.9557 93.0943L28.9397 94.0844C28.9472 94.087 28.9537 94.0917 28.9582 94.0981C28.9628 94.1044 28.9653 94.112 28.9653 94.1198C28.9653 94.1276 28.9628 94.1352 28.9582 94.1415C28.9537 94.1478 28.9472 94.1526 28.9397 94.1552L25.9554 95.1471C21.0831 96.7639 19.7341 98.3282 17.9373 104.446L16.9177 107.922ZM11.11 94.1198C14.1174 95.5559 15.6296 97.4238 16.8809 100.652C18.1319 97.4238 19.6437 95.5559 22.6514 94.1198C19.6437 92.6833 18.1319 90.815 16.8809 87.5868C15.6296 90.8154 14.1174 92.6833 11.11 94.1198Z" fill="black"/>
<path d="M130.211 51.7272C126.888 57.2459 121.943 61.7523 116.059 64.5831L115.782 64.7152L115.616 64.9727C109.428 74.4849 98.8871 80.1645 87.4166 80.1645C75.9461 80.1645 65.4023 74.4849 59.2153 64.9727L59.0488 64.7152L58.7721 64.5831C52.8877 61.7541 47.943 57.2459 44.6199 51.7272C47.1377 52.3669 49.1237 52.4683 49.6605 52.4849C49.6729 52.4846 49.6849 52.4807 49.6951 52.4739C49.7053 52.4671 49.7134 52.4575 49.7183 52.4463C49.7231 52.4352 49.7247 52.4229 49.7227 52.4109C49.7207 52.3989 49.7152 52.3877 49.707 52.3786C46.482 48.686 45.6381 47.3129 44.7277 44.8658C45.8812 45.2837 47.1013 45.4964 48.3307 45.4939H48.4503C51.3889 45.4553 53.7038 43.1651 54.0461 40.307L54.4204 37.1631C54.736 34.5024 53.8112 31.8271 51.6677 30.1313C51.1821 29.7509 50.7961 29.2618 50.542 28.7047C50.2879 28.1477 50.173 27.5389 50.2071 26.9293C50.2247 26.5744 50.2931 26.2236 50.4103 25.8875C50.9461 24.3409 52.4532 23.191 54.1686 23.1619H54.308C57.7997 23.2268 61.2103 21.8604 63.6758 19.4186C67.8596 15.2718 72.9661 12.3585 78.5439 10.8597C78.9402 10.7517 79.3365 10.6528 79.7379 10.5614C80.149 10.4676 80.5666 10.3787 80.9809 10.3018C81.0249 10.1427 81.0739 9.98297 81.1305 9.82781C81.2133 9.58976 81.3106 9.35383 81.4115 9.12534C81.4803 8.97372 81.5513 8.82459 81.6277 8.68041C81.6716 8.59362 81.7231 8.50329 81.7646 8.4374L81.9408 8.15577C81.9923 8.07146 82.046 7.99211 82.1 7.91524C82.1659 7.81889 82.2319 7.72749 82.3029 7.63362C83.3072 6.30175 84.7014 5.30331 86.2988 4.77196C87.8963 4.24061 89.6206 4.2017 91.2411 4.66044C91.8002 4.81965 92.34 5.03821 92.851 5.31225C92.7703 5.32925 87.7935 6.22904 85.7873 10.4219C85.7823 10.4351 85.7819 10.4495 85.7862 10.463C85.7905 10.4764 85.7991 10.4881 85.8109 10.4962C85.8226 10.5043 85.8367 10.5084 85.851 10.5077C85.8654 10.5071 85.8791 10.5018 85.89 10.4927C87.0069 9.50403 88.2121 8.75338 90.1775 8.33467C92.6045 9.48242 95.3107 10.9738 95.3107 16.2697C92.0248 14.7206 88.6812 14.4461 85.0422 15.8053C85.0289 15.8108 85.0177 15.8204 85.0106 15.8327C85.0034 15.845 85.0006 15.8593 85.0025 15.8734C85.0045 15.8874 85.0112 15.9004 85.0215 15.9104C85.0318 15.9203 85.0452 15.9266 85.0595 15.9283C87.5135 16.1854 88.7663 16.7221 88.7663 16.7221C89.2433 17.4965 89.2728 18.5642 89.1871 19.4884C89.1186 19.4332 89.0502 19.3821 88.9792 19.3322C88.6286 19.074 88.2575 18.844 87.8695 18.6443C87.4808 18.4531 87.0765 18.2945 86.6607 18.1703C85.8489 17.9257 85.001 17.8179 84.1526 17.8515C83.7388 17.8646 83.3273 17.9186 82.9244 18.0126C82.6071 18.0812 82.2961 18.1753 81.9944 18.2939C81.9815 18.2995 81.9708 18.3092 81.964 18.3215C81.9572 18.3338 81.9548 18.3479 81.9571 18.3616C81.9593 18.3754 81.9662 18.3881 81.9765 18.3976C81.9869 18.4071 82.0001 18.413 82.0143 18.4143C86.0954 18.8642 88.8798 20.7141 90.5461 23.5601C90.5521 23.5702 90.5607 23.5785 90.5711 23.5841C90.5815 23.5897 90.5933 23.5924 90.6051 23.5919C90.617 23.5914 90.6285 23.5877 90.6383 23.5812C90.6482 23.5747 90.6561 23.5657 90.6611 23.5551C91.684 21.3684 91.515 18.4792 91.1824 17.132C93.35 17.3941 95.1118 18.5082 96.8197 20.3868C96.8276 20.3954 96.8377 20.4017 96.849 20.4052C96.8603 20.4086 96.8723 20.409 96.8837 20.4063C96.8952 20.4037 96.9058 20.398 96.9143 20.39C96.9228 20.3819 96.9289 20.3718 96.9321 20.3606C97.6491 17.2861 97.5341 13.8779 96.3376 10.8725C101.894 12.3738 106.981 15.2846 111.155 19.4176C113.621 21.8619 117.035 23.2278 120.523 23.163H120.663C122.747 23.1984 124.526 24.8853 124.624 26.9304C124.685 28.1837 124.156 29.3506 123.163 30.1324C121.02 31.8282 120.093 34.5034 120.411 37.1642L120.785 40.3081C121.125 43.1661 123.442 45.4563 126.381 45.4949H126.501C127.73 45.4975 128.95 45.2848 130.104 44.8669C129.194 47.3136 128.349 48.687 125.122 52.3797C125.114 52.3889 125.108 52.4003 125.106 52.4125C125.105 52.4248 125.106 52.4373 125.111 52.4485C125.117 52.4598 125.125 52.4693 125.136 52.476C125.146 52.4826 125.159 52.4861 125.171 52.486C125.707 52.4682 127.693 52.3684 130.211 51.7272Z" fill="white"/>
<path d="M119.644 53.2865C112.137 57.4815 106.572 57.5173 102.905 57.5173C100.301 57.5173 97.984 56.4733 95.9999 55.4626C93.7343 54.3106 91.3902 53.1172 87.4165 53.1172C83.4427 53.1172 81.099 54.3106 78.8331 55.4626C76.8489 56.4733 74.5318 57.5173 71.9283 57.5173C68.2608 57.5173 62.6957 57.4818 55.1892 53.2865C55.1786 53.2805 55.1664 53.2775 55.1542 53.278C55.1419 53.2784 55.1301 53.2823 55.12 53.2891C55.1099 53.2959 55.1019 53.3054 55.0971 53.3165C55.0923 53.3276 55.0907 53.3398 55.0926 53.3517C55.6936 56.4882 57.2861 59.9406 59.4976 63.3726H61.4926C60.9211 62.4316 60.4039 61.4598 59.9433 60.4617C59.6962 59.9325 59.4661 59.3961 59.253 58.8524C59.1809 58.6671 59.1114 58.4843 59.0451 58.2966H61.306C63.0889 58.2992 64.798 58.9969 66.0584 60.2367C67.3189 61.4764 68.0279 63.157 68.0299 64.91C68.0277 65.2524 67.9954 65.594 67.9333 65.9309C67.9333 65.9341 67.9333 65.9373 67.9333 65.9401C67.8633 66.3202 67.7678 66.6952 67.6472 67.0627C67.5093 67.4871 67.3485 67.9039 67.1655 68.3114C66.9844 68.7158 66.7756 69.1359 66.539 69.5719C66.1138 70.3466 65.6492 71.0997 65.1468 71.8284C65.137 71.8454 65.1248 71.8638 65.1125 71.8815C64.6867 72.5068 64.2586 73.0891 63.8623 73.6039C63.4829 74.097 63.1356 74.5277 62.8491 74.8717C63.7613 75.4624 64.816 75.8057 65.9065 75.867C66.997 75.9283 68.0846 75.7053 69.0593 75.2206C69.1864 75.1555 69.3136 75.0931 69.4433 75.0304C69.7175 74.8983 69.9989 74.7683 70.2803 74.6432C70.8892 74.3712 71.5648 74.0874 72.3084 73.8083C72.9325 73.5727 73.6005 73.3392 74.3175 73.1157C77.7014 72.0498 82.1078 71.1695 87.415 71.1695H87.4197C92.7269 71.1695 97.1334 72.0498 100.517 73.1157C101.234 73.3392 101.902 73.5727 102.526 73.8083C103.27 74.0874 103.945 74.3712 104.554 74.6432C104.836 74.7683 105.117 74.8983 105.391 75.0329C105.521 75.0931 105.648 75.1555 105.776 75.2206C106.497 75.5796 107.282 75.7963 108.088 75.8583C109.463 75.9709 110.836 75.6234 111.985 74.8721C111.699 74.5281 111.352 74.0973 110.972 73.6042C110.576 73.0895 110.148 72.5061 109.722 71.8819C109.71 71.8649 109.7 71.8482 109.686 71.8312C109.184 71.1015 108.719 70.3476 108.294 69.5722C108.056 69.1367 107.848 68.7166 107.667 68.3118C107.484 67.9043 107.324 67.4874 107.186 67.0631C107.068 66.7034 106.974 66.3365 106.905 65.9649C106.9 65.9387 106.896 65.9129 106.891 65.887C106.867 65.7493 106.849 65.6142 106.836 65.4817C106.832 65.4438 106.827 65.4052 106.824 65.368C106.81 65.2125 106.801 65.0598 106.801 64.9121C106.803 63.1592 107.512 61.4785 108.773 60.2388C110.033 58.999 111.742 58.3014 113.525 58.2987H115.786C115.72 58.4865 115.649 58.6693 115.578 58.8545C115.365 59.3977 115.135 59.9342 114.888 60.4639C114.427 61.461 113.91 62.432 113.339 63.3722H115.337C117.548 59.9421 119.141 56.4896 119.742 53.3538C119.744 53.3416 119.743 53.3288 119.739 53.3171C119.734 53.3054 119.726 53.2954 119.715 53.2882C119.705 53.281 119.693 53.277 119.68 53.2767C119.667 53.2764 119.655 53.2798 119.644 53.2865Z" fill="#FF9906"/>
<path d="M97.2378 74.4601C94.0863 75.5448 90.759 76.1127 87.4165 76.0935H87.4118C84.0693 76.1127 80.7416 75.5448 77.5904 74.4601C80.3478 73.8009 83.6362 73.334 87.4118 73.334H87.4165C91.192 73.334 94.4805 73.7995 97.2378 74.4601Z" fill="#FF9906"/>
<path d="M106.369 72.1094C104.989 71.2117 103.477 70.5287 101.94 69.9177C100.392 69.3201 98.8067 68.8195 97.1939 68.4189C96.384 68.2361 95.5726 68.0292 94.7522 67.8971C94.3411 67.8262 93.9325 67.7454 93.5214 67.6781L92.2809 67.5049L91.6619 67.4181L91.0378 67.3604L89.7898 67.2449C89.0004 67.185 88.2109 67.156 87.4165 67.1152H87.414C86.6213 67.156 85.8286 67.1861 85.0407 67.2449L83.793 67.3604L83.1689 67.4181L82.5499 67.5049L81.3094 67.6781C80.8983 67.7454 80.4897 67.8248 80.0786 67.8971C79.2564 68.0292 78.4468 68.2361 77.6369 68.4189C76.024 68.8195 74.4385 69.3201 72.89 69.9177C71.3536 70.5287 69.8415 71.2117 68.4615 72.1094C68.4545 72.1145 68.4496 72.122 68.4477 72.1304C68.4459 72.1388 68.4472 72.1476 68.4514 72.1551C68.4559 72.1609 68.4622 72.165 68.4693 72.1667C68.4765 72.1685 68.484 72.1677 68.4907 72.1646H68.4932C70.0065 71.5486 71.5738 71.0845 73.1468 70.697C74.7199 70.3095 76.3157 70.0091 77.9107 69.7661L79.1123 69.6169C79.5112 69.5592 79.9122 69.5206 80.3136 69.4848C80.7149 69.449 81.1163 69.4029 81.5173 69.3714L82.7236 69.3006L83.3256 69.2623L83.9273 69.2453L85.1336 69.2099C85.8939 69.1978 86.6541 69.2194 87.414 69.2244H87.4165C88.1767 69.2194 88.9369 69.1978 89.6968 69.2099L90.9031 69.2453L91.5052 69.2623L92.1068 69.3006L93.3131 69.3714C93.7145 69.4029 94.1159 69.4462 94.5173 69.4848C94.9186 69.5234 95.3196 69.5592 95.7185 69.6169L96.9197 69.7661C98.5151 70.0091 100.108 70.3049 101.684 70.697C103.259 71.0892 104.823 71.5472 106.338 72.1646H106.34C106.347 72.1677 106.354 72.1684 106.361 72.1667C106.368 72.1649 106.375 72.1608 106.379 72.1551C106.383 72.1476 106.385 72.1388 106.383 72.1304C106.381 72.122 106.376 72.1145 106.369 72.1094Z" fill="#FFC438"/>
<path d="M81.361 56.4365C81.361 56.4365 76.5132 60.8221 69.4481 59.3977C72.5939 61.8324 69.4481 66.6444 74.5939 64.7935C77.0454 63.9118 78.1183 61.6847 81.361 56.4365Z" fill="#D97A05"/>
<path d="M93.4698 56.4365C93.4698 56.4365 98.3177 60.8221 105.383 59.3977C102.237 61.8324 105.383 66.6444 100.237 64.7935C97.7859 63.9118 96.7125 61.6847 93.4698 56.4365Z" fill="#D97A05"/>
<path d="M112.03 63.3698C112.691 62.4362 113.296 61.465 113.842 60.4614H113.524C112.599 60.4625 111.697 60.7417 110.939 61.2616C110.18 61.7815 109.602 62.5172 109.281 63.3698H112.03Z" fill="#964F03"/>
<path d="M65.5478 63.3723C65.2276 62.519 64.6493 61.7827 63.8907 61.2623C63.1321 60.7419 62.2296 60.4624 61.3046 60.4614H60.9864C61.5324 61.4659 62.138 62.4378 62.8002 63.3723H65.5478Z" fill="#964F03"/>
<path d="M90.7688 35.4889C89.9178 37.9753 89.4382 40.7792 89.4379 43.7488V43.7523C89.4379 37.7794 88.8877 33.7768 88.7645 32.3326H88.7663C88.9726 33.1263 89.3353 33.8725 89.8338 34.5289C90.1513 34.9295 90.6813 35.4028 90.7688 35.4889ZM129.252 46.836C129.572 46.2147 129.835 45.587 130.103 44.8661C128.949 45.284 127.729 45.4965 126.5 45.4938H126.38C124.506 45.4694 122.889 44.5278 121.872 43.1101H121.863C124.078 46.6713 127.807 46.8952 129.252 46.836ZM118.287 23.0042C115.914 22.6304 113.695 21.6152 111.876 20.0722C114.386 22.3446 108.309 22.9366 106.311 25.4312C108.901 24.0496 114.355 24.3164 118.283 23.006L118.287 23.0042ZM111.771 29.1426C111.321 29.3831 110.88 29.6449 110.445 29.917C111.156 30.8496 111.774 31.8478 112.289 32.8976L112.336 32.9553C111.953 27.9215 120.939 27.4822 120.991 27.4798H120.976C119.474 27.3193 117.964 27.3306 116.495 27.5598C114.837 27.8018 113.254 28.37 111.771 29.1426ZM106.276 15.4152C103.244 13.3668 99.8848 11.8311 96.3376 10.8717C96.6051 11.5482 96.8201 12.2437 96.9807 12.9522C97.4109 12.7156 99.9762 11.6479 106.276 15.4152ZM86.0676 32.3326H86.0658C85.8595 33.1263 85.4968 33.8725 84.9983 34.5289C84.6805 34.9281 84.0752 35.4754 84.0615 35.4882C84.9125 37.9746 85.3921 40.7781 85.3924 43.7477V43.7516C85.3942 37.7794 85.9444 33.7768 86.0676 32.3326ZM87.4166 77.7779H87.4119C84.8517 77.769 82.3024 77.4487 79.8222 76.8243C78.3112 77.1179 76.8193 77.4997 75.3545 77.9678C83.119 80.8967 91.7113 80.8967 99.4758 77.9678C98.011 77.4996 96.5191 77.1176 95.0081 76.8239C92.5273 77.4485 89.9774 77.769 87.4166 77.7779ZM62.4954 32.9557L62.5452 32.8937C63.0598 31.8457 63.6764 30.8492 64.3863 29.918C63.9507 29.646 63.5104 29.3842 63.0604 29.1437C61.577 28.371 59.9939 27.8028 58.3361 27.5609C56.8669 27.3317 55.3568 27.3204 53.8548 27.4808H53.8403C53.8922 27.4822 62.8784 27.9215 62.4954 32.9557ZM47.0156 52.2177C46.3065 52.1065 45.4965 51.9503 44.6199 51.7275C47.6385 56.7279 51.9406 60.8606 57.0953 63.7116C53.4109 61.1858 48.7072 54.6617 47.0156 52.2174V52.2177ZM52.967 43.1097H52.9558C51.939 44.5267 50.3224 45.469 48.4492 45.4935H48.3296C47.1002 45.4961 45.8802 45.2836 44.7266 44.8657C44.995 45.5866 45.258 46.2143 45.5773 46.8357C47.0235 46.8952 50.7529 46.6713 52.967 43.1094V43.1097ZM127.815 52.2177C126.124 54.662 121.421 61.1854 117.736 63.7112C122.89 60.8602 127.192 56.7275 130.211 51.7271C129.334 51.9499 128.525 52.1061 127.815 52.2174V52.2177ZM89.1831 19.4887C89.2689 18.5648 89.2393 17.4968 88.7623 16.7221C88.7623 16.7221 87.5618 16.2102 85.2148 15.9466C85.7787 16.0355 87.7261 16.5503 89.1831 19.4887ZM95.3082 16.27C95.2924 15.8726 95.2779 15.5095 95.2646 15.1719C94.913 10.7615 92.4247 9.40017 90.175 8.33496C88.2103 8.75368 87.0044 9.50397 85.8875 10.493C85.8875 10.4941 94.0064 8.2294 95.3075 16.2708L95.3082 16.27ZM90.5461 23.559C88.8798 20.7133 86.0954 18.8631 82.0143 18.4132C82.0143 18.4132 81.5556 20.9946 90.5461 23.559ZM68.5204 25.4312C66.5272 22.9412 60.4691 22.3464 62.9426 20.0845C61.1254 21.6209 58.9105 22.6316 56.544 23.0042C56.544 23.0042 56.5465 23.0042 56.548 23.0042C60.476 24.3164 65.9298 24.0485 68.5204 25.4312Z" fill="#D4D4D4"/>
<path d="M110.194 68.4736C110.697 69.3863 111.254 70.2699 111.86 71.1198H117.094L115.043 68.4736H110.194Z" fill="#A8A8A8"/>
<path d="M116.149 68.4727L118.202 71.1189H126.998L124.948 68.4727H116.149Z" fill="#A8A8A8"/>
<path d="M135.959 68.4727L137.172 70.0363H138.011V71.1189H146.807L144.756 68.4727H135.959Z" fill="#A8A8A8"/>
<path d="M153.105 68.4727H145.863L147.915 71.1189H155.158L153.105 68.4727Z" fill="#A8A8A8"/>
<path d="M126.054 68.4727L128.107 71.1189H128.655L129.756 70.0363H136.063L134.852 68.4727H126.054Z" fill="#A8A8A8"/>
<path d="M153.105 68.4725L150.832 65.5376H143.587L145.864 68.4725H153.105Z" fill="#D4D4D4"/>
<path d="M124.948 68.4728L124.351 67.7027H117.793C117.793 67.4156 117.677 67.1402 117.471 66.9372C117.265 66.7342 116.984 66.6201 116.692 66.6201C116.4 66.6201 116.12 66.7342 115.914 66.9372C115.707 67.1402 115.591 67.4156 115.591 67.7027H115.552L116.149 68.4728H124.948Z" fill="#D4D4D4"/>
<path d="M144.756 68.4725L142.482 65.5376H138.011V67.7027H135.361L135.959 68.4725H144.756Z" fill="#D4D4D4"/>
<path d="M134.852 68.4729L134.255 67.7031H125.457L126.054 68.4729H134.852Z" fill="#D4D4D4"/>
<path d="M113.629 66.6491C113.468 66.6134 113.301 66.6137 113.141 66.6501C112.98 66.6864 112.83 66.7578 112.701 66.8589C112.572 66.9601 112.468 67.0885 112.397 67.2345C112.325 67.3806 112.288 67.5406 112.288 67.7027H111.187C111.186 67.416 111.07 67.1414 110.863 66.939C110.657 66.7365 110.377 66.6228 110.086 66.6226C109.85 66.6215 109.62 66.6961 109.43 66.8351C109.65 67.3957 109.904 67.942 110.194 68.471H115.042L113.629 66.6491Z" fill="#D4D4D4"/>
<path d="M138.011 67.7027H135.363L137.174 70.0361H136.065L134.257 67.7027H125.458L128.108 71.119H127L124.352 67.7027H117.795C117.795 67.4156 117.679 67.1402 117.472 66.9372C117.266 66.7342 116.986 66.6201 116.694 66.6201C116.402 66.6201 116.122 66.7342 115.915 66.9372C115.709 67.1402 115.593 67.4156 115.593 67.7027H115.553L118.203 71.119H117.095L113.63 66.6492C113.469 66.6135 113.303 66.6138 113.142 66.6501C112.981 66.6864 112.831 66.7578 112.702 66.859C112.573 66.9602 112.469 67.0885 112.398 67.2346C112.327 67.3806 112.29 67.5406 112.29 67.7027H111.187C111.186 67.4161 111.07 67.1416 110.863 66.9392C110.657 66.7368 110.377 66.623 110.086 66.6226C109.85 66.6216 109.62 66.6962 109.43 66.8351C109.264 66.4148 109.14 65.9798 109.058 65.5361H128.655L129.756 66.6187H138.011V67.7027Z" fill="#515151"/>
<path d="M143.587 65.5376H142.482L146.807 71.1187H147.916L143.587 65.5376Z" fill="#515151"/>
<path d="M37.1137 65.5381V71.1192H27.3215V67.7032H29.6753V65.5381H37.1137Z" fill="#A8A8A8"/>
<path d="M65.0288 67.7027C64.9063 67.9556 64.7766 68.2128 64.6372 68.4728C64.1554 69.3602 63.5728 70.2674 62.9711 71.119H55.629V67.7027H56.1183C56.1183 67.4156 56.2343 67.1402 56.4407 66.9372C56.6472 66.7342 56.9273 66.6201 57.2193 66.6201C57.5113 66.6201 57.7914 66.7342 57.9979 66.9372C58.2044 67.1402 58.3204 67.4156 58.3204 67.7027H59.4215C59.4215 67.4156 59.5375 67.1402 59.744 66.9372C59.9505 66.7342 60.2305 66.6201 60.5225 66.6201C60.8146 66.6201 61.0946 66.7342 61.3011 66.9372C61.5076 67.1402 61.6236 67.4156 61.6236 67.7027H62.7247C62.7247 67.4156 62.8407 67.1402 63.0472 66.9372C63.2537 66.7342 63.5337 66.6201 63.8258 66.6201C64.1178 66.6201 64.3978 66.7342 64.6043 66.9372C64.8108 67.1402 64.9268 67.4156 64.9268 67.7027H65.0288Z" fill="#A8A8A8"/>
<path d="M55.629 65.5381H65.7732C65.6608 66.1949 65.3941 66.9331 65.0295 67.7029H64.9247C64.9247 67.4158 64.8087 67.1404 64.6022 66.9374C64.3957 66.7344 64.1156 66.6203 63.8236 66.6203C63.5316 66.6203 63.2515 66.7344 63.045 66.9374C62.8385 67.1404 62.7225 67.4158 62.7225 67.7029H61.6215C61.6215 67.4158 61.5054 67.1404 61.299 66.9374C61.0925 66.7344 60.8124 66.6203 60.5204 66.6203C60.2284 66.6203 59.9483 66.7344 59.7418 66.9374C59.5353 67.1404 59.4193 67.4158 59.4193 67.7029H58.3182C58.3182 67.4158 58.2022 67.1404 57.9957 66.9374C57.7893 66.7344 57.5092 66.6203 57.2172 66.6203C56.9251 66.6203 56.6451 66.7344 56.4386 66.9374C56.2321 67.1404 56.1161 67.4158 56.1161 67.7029H55.629V65.5381Z" fill="#515151"/>
<path d="M37.1133 65.5376H28.7259V67.7027H37.1133V65.5376Z" fill="#515151"/>
<path fill-rule="evenodd" clip-rule="evenodd" d="M38.5826 65.5376V71.1198H54.1593V65.5376H38.5826ZM52.6911 69.6762H40.0508V66.9808H52.6911V69.6762Z" fill="#515151"/>
<path d="M52.6911 66.9805H40.0507V69.6759H52.6911V66.9805Z" fill="white"/>
<path d="M156.325 70.2453L151.999 64.6603L151.559 64.0935H138.012V63.3691H122.492C128.198 59.4391 131.403 54.734 134.603 48.0501C134.609 48.0378 134.611 48.0238 134.609 48.0102C134.606 47.9967 134.599 47.9842 134.589 47.9748C134.579 47.9653 134.566 47.9593 134.552 47.9577C134.538 47.9561 134.524 47.9589 134.512 47.9658C133.93 48.3027 132.006 49.3346 129.89 49.5599C131.367 47.5032 132.497 45.2253 133.235 42.8144L134.152 39.8171C134.156 39.8036 134.155 39.7892 134.15 39.7763C134.144 39.7634 134.134 39.7527 134.122 39.7458C134.11 39.7389 134.095 39.7362 134.081 39.7382C134.067 39.7402 134.054 39.7468 134.044 39.7569C131.13 42.5738 129.149 43.327 126.408 43.327C124.61 43.3029 123.191 41.905 122.982 40.1586L122.584 36.8053C122.359 34.9214 123.019 33.0234 124.544 31.8158C126.088 30.5975 126.92 28.7753 126.824 26.8269C126.667 23.6104 123.976 21.0485 120.699 20.9978C120.627 20.9978 120.555 20.9978 120.483 21.0003C117.593 21.0535 114.764 19.9202 112.719 17.8947C107.257 12.4935 100.185 8.94715 92.5307 7.77177C95.3104 7.24713 97.0964 7.30027 99.4354 8.1997C99.4478 8.20499 99.4615 8.20632 99.4746 8.2035C99.4877 8.20068 99.4996 8.19385 99.5086 8.18399C99.5175 8.17413 99.5231 8.16174 99.5244 8.14859C99.5258 8.13545 99.5229 8.12221 99.5161 8.11078C98.0029 5.6378 94.361 1.73438 88.6917 1.73438C87.5856 1.73438 86.4939 1.98943 85.4569 2.35749C83.3722 3.09181 81.5732 4.44856 80.3115 6.23789C80.1598 6.45681 80.0056 6.69026 79.8759 6.91095L79.6828 7.24536C79.6021 7.38493 79.5433 7.50538 79.4796 7.6329C79.3448 7.91417 79.2252 8.19332 79.1193 8.47707C72.7232 9.96879 66.8633 13.185 62.1132 17.8929C60.0663 19.9192 57.2354 21.0528 54.3484 20.9989C54.2763 20.9964 54.2042 20.9964 54.1322 20.9964C51.1777 21.0421 48.7054 23.1219 48.1278 25.8871H48.1256C48.0607 26.1964 48.0206 26.5101 48.0057 26.8255C47.9102 28.7764 48.7421 30.5975 50.286 31.8172C51.8104 33.0248 52.4683 34.9229 52.246 36.8067L51.8472 40.16C51.6389 41.9064 50.2201 43.3043 48.4214 43.3284C45.681 43.3284 43.6968 42.5752 40.7853 39.7583C40.7754 39.7482 40.7624 39.7417 40.7483 39.7396C40.7342 39.7376 40.7199 39.7403 40.7075 39.7472C40.6951 39.7541 40.6854 39.7648 40.6799 39.7778C40.6744 39.7907 40.6735 39.805 40.6772 39.8185L41.5945 42.8158C42.3328 45.2267 43.4624 47.5045 44.9395 49.5613C42.8231 49.3353 40.8998 48.3055 40.3176 47.9672C40.3054 47.9606 40.2915 47.958 40.2777 47.9597C40.2639 47.9614 40.251 47.9674 40.2409 47.9768C40.2308 47.9862 40.224 47.9985 40.2215 48.0119C40.2189 48.0253 40.2208 48.0392 40.2268 48.0515C43.427 54.7368 46.6326 59.4423 52.3415 63.373H22.9051L16.9029 71.1189V73.2837H61.331C61.0218 73.6592 60.726 74.0024 60.4554 74.3035L59.7532 75.0928L60.6511 75.9182C62.1928 77.3157 64.204 78.0436 66.2469 78.0436C67.2878 78.0439 68.3198 77.8546 69.2907 77.4854C74.6858 80.6176 80.9107 82.3307 87.4137 82.3307H87.4162C93.9196 82.3307 100.142 80.6176 105.537 77.4854C106.508 77.8546 107.54 78.0439 108.581 78.0436C110.624 78.0436 112.635 77.3171 114.177 75.9182L115.075 75.0928L114.372 74.3035C114.102 74.0028 113.807 73.6606 113.498 73.2861H138.01V72.5624H158.123L156.325 70.2453ZM44.6199 51.7265C47.1377 52.3666 49.1237 52.4675 49.6601 52.4842C49.6726 52.4841 49.6848 52.4804 49.6951 52.4736C49.7055 52.4668 49.7137 52.4572 49.7186 52.446C49.7236 52.4347 49.7251 52.4223 49.7231 52.4102C49.721 52.3982 49.7154 52.3869 49.707 52.3779C46.482 48.6849 45.6378 47.3122 44.7277 44.8647C45.8812 45.2827 47.1013 45.4954 48.3306 45.4928H48.4506C51.3892 45.4542 53.7038 43.164 54.0464 40.306L54.4208 37.162C54.7364 34.5013 53.8115 31.826 51.6681 30.1303C51.1824 29.7499 50.7964 29.2607 50.5423 28.7036C50.2882 28.1466 50.1734 27.5378 50.2074 26.9283C50.2247 26.5733 50.2931 26.2225 50.4107 25.8864C50.9464 24.3398 52.4535 23.1899 54.1686 23.1609H54.308C57.7997 23.226 61.2106 21.8594 63.6758 19.4179C67.8596 15.2711 72.9657 12.3578 78.5439 10.859C78.9402 10.751 79.3365 10.6521 79.7379 10.5607C80.149 10.4669 80.5648 10.3779 80.9809 10.3011C81.0249 10.1424 81.0739 9.98225 81.1301 9.8271C81.2133 9.58904 81.3102 9.35312 81.4115 9.12463C81.4799 8.97301 81.5509 8.82387 81.6277 8.6797C81.6716 8.59291 81.7228 8.50257 81.7646 8.43668L81.9408 8.15506C81.9923 8.0711 82.046 7.9914 82.0997 7.91453C82.166 7.81853 82.2319 7.72678 82.3029 7.63326C83.3071 6.30128 84.7012 5.30273 86.2986 4.7713C87.8959 4.23988 89.6203 4.20095 91.2408 4.65973C91.8 4.81894 92.3399 5.03749 92.851 5.31154C92.7703 5.32854 87.7935 6.22832 85.787 10.4212C85.7818 10.4344 85.7814 10.449 85.7856 10.4626C85.7899 10.4761 85.7986 10.4879 85.8104 10.496C85.8223 10.5042 85.8365 10.5082 85.8509 10.5074C85.8653 10.5067 85.8791 10.5013 85.89 10.492C87.0069 9.50332 88.2118 8.75267 90.1776 8.33431C92.6049 9.48171 95.3111 10.9731 95.3111 16.2694C92.0252 14.7203 88.6816 14.4461 85.0426 15.8053C85.0292 15.8106 85.0179 15.8202 85.0107 15.8325C85.0034 15.8448 85.0005 15.8592 85.0025 15.8733C85.0045 15.8874 85.0112 15.9004 85.0216 15.9103C85.032 15.9202 85.0455 15.9264 85.0599 15.9279C87.5139 16.1851 88.7666 16.7218 88.7666 16.7218C89.2437 17.4965 89.2732 18.5638 89.1875 19.4881C89.119 19.4328 89.0505 19.3818 88.9796 19.3318C88.6301 19.0738 88.2602 18.8438 87.8734 18.6439C87.4848 18.4527 87.0805 18.2941 86.6646 18.1699C85.853 17.9254 85.0052 17.8176 84.157 17.8511C83.7431 17.8643 83.3316 17.9182 82.9287 18.0123C82.6115 18.081 82.3004 18.1751 81.9988 18.2935C81.9858 18.2992 81.9751 18.3088 81.9683 18.3211C81.9615 18.3333 81.9591 18.3474 81.9613 18.3611C81.9635 18.3749 81.9703 18.3875 81.9806 18.3971C81.9909 18.4067 82.0041 18.4126 82.0182 18.414C86.0997 18.8639 88.8841 20.7137 90.5505 23.5597C90.5564 23.5698 90.565 23.5781 90.5754 23.5838C90.5858 23.5894 90.5976 23.5921 90.6095 23.5916C90.6213 23.591 90.6328 23.5873 90.6427 23.5809C90.6525 23.5744 90.6604 23.5654 90.6654 23.5548C91.6879 21.368 91.5193 18.4788 91.1864 17.1316C93.3543 17.3941 95.1158 18.5079 96.8236 20.3864C96.8316 20.395 96.8418 20.4013 96.853 20.4048C96.8643 20.4082 96.8764 20.4086 96.8879 20.4059C96.8994 20.4032 96.9099 20.3976 96.9185 20.3896C96.927 20.3815 96.9332 20.3714 96.9364 20.3602C97.6534 17.2857 97.5381 13.8775 96.3419 10.8721C101.898 12.3734 106.985 15.2842 111.16 19.4172C113.626 21.8615 117.039 23.2278 120.527 23.1626H120.663C122.747 23.1981 124.526 24.8853 124.624 26.93C124.658 27.5396 124.543 28.1484 124.289 28.7054C124.035 29.2625 123.649 29.7516 123.164 30.132C121.02 31.8278 120.093 34.5031 120.411 37.1638L120.785 40.3077C121.125 43.1658 123.443 45.456 126.381 45.4946H126.501C127.73 45.4971 128.951 45.2845 130.104 44.8665C129.194 47.3133 128.35 48.6867 125.123 52.3797C125.114 52.3888 125.108 52.4002 125.106 52.4125C125.104 52.4247 125.106 52.4373 125.111 52.4486C125.116 52.4599 125.125 52.4695 125.136 52.4761C125.146 52.4827 125.159 52.4862 125.171 52.486C125.707 52.4693 127.693 52.3683 130.212 51.7282C127.316 56.5283 123.236 60.5329 118.348 63.3715H118.005C121.231 57.8453 121.994 52.6946 122.123 49.144C122.123 49.1319 122.12 49.1199 122.113 49.1096C122.106 49.0994 122.097 49.0912 122.086 49.0862C122.075 49.0812 122.062 49.0795 122.05 49.0814C122.038 49.0833 122.026 49.0887 122.017 49.0969C119.128 51.5437 115.939 53.1509 112.527 54.1229C113.896 51.1667 114.699 47.5974 114.699 43.7538C114.699 38.2471 113.055 33.3036 110.444 29.9163C110.444 29.9163 111.205 29.4466 111.771 29.1437C113.255 28.3715 114.838 27.8029 116.496 27.5609C117.965 27.3317 119.475 27.3208 120.977 27.4809C121.134 27.498 121.292 27.453 121.416 27.3558C121.539 27.2586 121.618 27.1171 121.636 26.9624C121.653 26.8078 121.607 26.6527 121.509 26.5312C121.41 26.4097 121.266 26.3319 121.108 26.3147C119.529 26.1085 117.91 26.0788 116.308 26.2896C115.402 26.3958 114.51 26.6084 113.637 26.873C112.765 27.1376 111.926 27.4997 111.11 27.8918C107.848 29.5011 105.26 31.9656 102.334 33.5565C100.876 34.3536 99.327 34.9066 97.7175 35.0876L97.1129 35.1446C96.9115 35.1609 96.7073 35.1552 96.5048 35.162C96.0998 35.1846 95.6909 35.1407 95.2841 35.1244C95.0805 35.1173 94.8766 35.078 94.6716 35.0568C94.473 35.0288 94.2533 35.0111 94.0724 34.9756C93.8994 34.9345 93.7215 34.9108 93.5557 34.847C93.4718 34.8187 93.386 34.796 93.3035 34.7652L93.0607 34.6589C92.4121 34.3784 91.8674 33.9009 91.4451 33.3507C91.0455 32.7839 90.7659 32.1279 90.6982 31.4452C90.6305 30.7626 90.7162 30.0637 90.9864 29.437C91.2558 28.8096 91.6837 28.2601 92.2295 27.8408L90.8495 26.1532C90.0275 26.8143 89.3925 27.6725 89.0057 28.645C88.6189 29.6175 88.4934 30.6716 88.6412 31.7056C88.7756 32.7329 89.2127 33.7078 89.8324 34.5303C90.1111 34.8809 90.4249 35.203 90.7692 35.4918C89.9181 37.9786 89.4386 40.7831 89.4386 43.7535C89.4386 46.3883 89.8155 48.8967 90.4961 51.1664C90.4961 51.1664 90.4961 51.1664 90.4961 51.1685L90.5036 51.1894C88.4578 50.873 86.3743 50.873 84.3285 51.1894C85.013 48.9137 85.3928 46.3979 85.3928 43.7503C85.3928 40.7799 84.9132 37.9761 84.0622 35.4886C84.4066 35.1999 84.7204 34.8778 84.999 34.5272C85.6187 33.7046 86.0561 32.7304 86.1901 31.7024C86.3382 30.6684 86.2127 29.6143 85.826 28.6417C85.4392 27.6692 84.8041 26.811 83.9819 26.15L82.6019 27.8376C83.1478 28.2569 83.5757 28.8063 83.8449 29.4338C84.1148 30.0594 84.2052 30.764 84.1332 31.442C84.0611 32.1201 83.7859 32.78 83.3863 33.3475C82.964 33.8977 82.4196 34.3748 81.7707 34.6558L81.5282 34.762C81.4454 34.7928 81.3596 34.8155 81.276 34.8439C81.1103 34.9076 80.9326 34.9314 80.7593 34.9724C80.5792 35.0079 80.3587 35.0256 80.1602 35.0536C79.9566 35.0748 79.7527 35.1141 79.5477 35.1212C79.1409 35.1375 78.7319 35.1814 78.327 35.1588C78.1245 35.152 77.9202 35.1588 77.7188 35.1414L77.1146 35.0844C75.5048 34.9034 73.9562 34.3504 72.4977 33.5533C69.5724 31.9635 66.9837 29.4994 63.7219 27.8897C62.9058 27.4975 62.0681 27.1387 61.1948 26.8709C60.3214 26.6031 59.4293 26.3937 58.5242 26.2874C56.9212 26.0767 55.3028 26.1064 53.7232 26.3126C53.566 26.3297 53.422 26.4076 53.3231 26.5291C53.2243 26.6506 53.1785 26.8057 53.1959 26.9603C53.2134 27.115 53.2926 27.2565 53.4161 27.3537C53.5397 27.4509 53.6975 27.4959 53.8548 27.4788C55.3565 27.3186 56.8665 27.3296 58.3361 27.5588C59.9935 27.8008 61.5767 28.3693 63.0604 29.1416C63.6729 29.4693 64.3874 29.9142 64.3874 29.9142C61.7792 33.3015 60.1358 38.245 60.1358 43.7517C60.1358 47.5952 60.9379 51.1646 62.3077 54.1208C58.8964 53.1487 55.7067 51.5415 52.8178 49.0948C52.8087 49.0866 52.7973 49.0812 52.7851 49.0793C52.773 49.0774 52.7605 49.0791 52.7492 49.0841C52.738 49.0891 52.7285 49.0973 52.7219 49.1075C52.7153 49.1178 52.712 49.1297 52.7122 49.1419C52.8402 52.6932 53.6033 57.8432 56.8312 63.3719H56.4878C51.5988 60.5331 47.5169 56.5277 44.6199 51.7265ZM100.433 51.9096C104.573 51.9096 108.023 47.7355 108.784 42.2075L101.639 39.85L108.769 37.4996C108.492 35.5679 107.886 33.807 107.037 32.3347L107.528 31.9607C108.217 31.4374 109.025 30.8653 109.025 30.8653C109.214 31.1037 109.394 31.3563 109.573 31.616C111.773 34.8346 112.984 39.1433 112.984 43.7528C112.984 47.7819 112.057 51.584 110.354 54.6249L110.338 54.6525C107.947 55.1399 105.46 55.3514 102.903 55.3514C100.258 55.3514 98.9224 54.5115 97.0113 53.5398C95.6732 52.859 94.2342 52.1267 92.4309 51.6152C91.5917 49.2191 91.1489 46.5392 91.1489 43.751C91.1489 41.1579 91.5305 38.6608 92.2572 36.4001L92.2666 36.4039L92.2889 36.4135C92.0449 37.5607 91.9228 38.7297 91.9246 39.9018C91.9261 46.5329 95.7355 51.9096 100.433 51.9096ZM74.3972 51.9096C78.537 51.9096 81.9872 47.7355 82.7482 42.2075L75.6035 39.85L82.7334 37.4996C82.6819 37.1316 82.616 36.7681 82.5403 36.4146L82.5626 36.405L82.572 36.4011C83.2987 38.6623 83.6803 41.159 83.6803 43.752C83.6803 46.54 83.2375 49.2198 82.4005 51.6163C80.599 52.1278 79.1578 52.86 77.8204 53.5409C75.9108 54.5126 74.5734 55.3525 71.9284 55.3525C69.3703 55.3525 66.8821 55.1399 64.4901 54.6518C62.7775 51.6053 61.8476 47.7936 61.8476 43.7524C61.8476 39.143 63.0564 34.8343 65.256 31.6156C65.4362 31.356 65.6163 31.1034 65.8041 30.865C65.8041 30.865 66.6111 31.4413 67.3015 31.961C67.6394 32.2154 67.7933 32.3326 67.7933 32.3326C66.6043 34.3989 65.8898 37.0331 65.8898 39.9032C65.8898 46.5329 69.6992 51.9096 74.3972 51.9096ZM37.1131 71.1189H29.6751V69.4185C29.3814 69.4185 29.0996 69.3038 28.8919 69.0995C28.6842 68.8953 28.5675 68.6183 28.5675 68.3295C28.5675 68.0407 28.6842 67.7638 28.8919 67.5595C29.0996 67.3553 29.3814 67.2406 29.6751 67.2406V65.5402H37.1131V71.1189ZM54.1599 71.1189H38.5813V65.5374H54.1599V71.1189ZM55.6281 71.1189V65.5374H65.7724C65.6599 66.1942 65.393 66.9328 65.0287 67.7025C64.9922 67.7772 64.9553 67.8523 64.9181 67.9278C64.8287 68.108 64.7349 68.2893 64.6367 68.4716C64.3052 69.0876 63.9269 69.7086 63.5284 70.3137L63.5244 70.3094C63.3443 70.5833 63.1577 70.8539 62.9703 71.1196L55.6281 71.1189ZM62.8017 63.3722C62.1214 62.363 61.3047 60.4614 61.3047 60.4614C62.2296 60.4625 63.1321 60.742 63.8907 61.2624C64.6493 61.7828 65.2276 62.5191 65.5479 63.3722H62.8017ZM87.4166 80.1634C81.85 80.1634 76.4995 78.8258 71.762 76.3606C72.8233 75.9103 73.907 75.5127 75.009 75.1693C75.2046 75.2561 75.4003 75.3429 75.5984 75.4244C79.3225 76.9735 83.3697 77.7624 87.4115 77.7776H87.4166C91.4588 77.7627 95.5057 76.9735 99.2297 75.4244C99.4279 75.3429 99.6235 75.2561 99.8192 75.1693C100.921 75.5127 102.005 75.9103 103.066 76.3606C98.3293 78.8262 92.9828 80.1638 87.4166 80.1638V80.1634ZM77.5902 74.4601C80.3479 73.8009 83.6363 73.3343 87.4115 73.3343H87.4166C91.1918 73.3343 94.4784 73.8009 97.238 74.4601C94.0864 75.5448 90.7587 76.113 87.4166 76.0935H87.4115C84.0694 76.113 80.7417 75.5448 77.5902 74.4601ZM108.08 75.8576C107.276 75.7955 106.493 75.5789 105.774 75.22C105.647 75.1548 105.519 75.0924 105.389 75.0322C105.116 74.8976 104.834 74.768 104.553 74.6425C103.943 74.3708 103.268 74.0867 102.524 73.8076C101.901 73.5724 101.233 73.3386 100.516 73.115C97.1317 72.0491 92.7249 71.1688 87.418 71.1688H87.413C82.1061 71.1688 77.6993 72.0491 74.3154 73.115C73.5988 73.3386 72.9308 73.5724 72.3067 73.8076C71.5627 74.0867 70.8875 74.3708 70.2782 74.6425C69.9969 74.768 69.7155 74.8976 69.4416 75.0297C69.3119 75.0924 69.1847 75.1548 69.0572 75.22C68.0826 75.7048 66.995 75.9278 65.9046 75.8665C64.8141 75.8053 63.7595 75.4619 62.8474 74.871C63.1357 74.5274 63.4812 74.0963 63.8602 73.6032C64.2566 73.0885 64.685 72.505 65.1108 71.8809C65.1231 71.8638 65.1353 71.8454 65.1451 71.8277C65.6472 71.099 66.1119 70.346 66.5373 69.5715C66.7743 69.1358 66.9831 68.7157 67.1635 68.3111C67.7399 67.0188 68.0282 65.8853 68.0282 64.9104C68.0262 63.1575 67.3173 61.4769 66.0569 60.2372C64.7965 58.9974 63.0875 58.2997 61.3047 58.297H59.0438C59.1097 58.4847 59.1807 58.6675 59.2517 58.8528C59.4647 59.396 59.6947 59.9324 59.9416 60.4621C60.4023 61.4601 60.9196 62.4319 61.4909 63.373H59.4945C57.2837 59.9421 55.6923 56.4886 55.0913 53.3521C55.0893 53.3402 55.0908 53.3279 55.0956 53.3168C55.1005 53.3057 55.1084 53.2962 55.1186 53.2894C55.1287 53.2826 55.1406 53.2788 55.1529 53.2784C55.1652 53.278 55.1773 53.2811 55.1879 53.2873C62.6943 57.4822 68.2595 57.5176 71.927 57.5176C74.5305 57.5176 76.8476 56.4737 78.8317 55.463C81.0977 54.3107 83.4414 53.1176 87.4151 53.1176C91.3889 53.1176 93.7326 54.3107 95.9985 55.463C97.9827 56.4733 100.3 57.5176 102.903 57.5176C106.571 57.5176 112.136 57.4822 119.642 53.2873C119.653 53.2811 119.665 53.278 119.677 53.2784C119.69 53.2788 119.702 53.2826 119.712 53.2894C119.722 53.2962 119.73 53.3057 119.735 53.3168C119.739 53.3279 119.741 53.3402 119.739 53.3521C119.138 56.4879 117.547 59.941 115.337 63.3705H113.336C113.907 62.4303 114.424 61.4593 114.885 60.4621C115.132 59.9329 115.362 59.3964 115.575 58.8528C115.647 58.6675 115.717 58.4847 115.783 58.297H113.522C111.74 58.3001 110.032 58.9977 108.772 60.2369C107.511 61.4762 106.803 63.156 106.8 64.9082C106.8 65.8824 107.088 67.016 107.665 68.309C107.846 68.7128 108.054 69.133 108.291 69.5694C108.68 70.284 109.144 71.0369 109.683 71.8281C109.695 71.8451 109.705 71.8635 109.717 71.8787C110.143 72.5043 110.572 73.0863 110.968 73.6011C111.347 74.0942 111.695 74.5253 111.981 74.8689C110.831 75.622 109.456 75.9704 108.08 75.8576ZM112.028 63.3698H109.281C109.602 62.5172 110.18 61.7816 110.939 61.2617C111.697 60.7418 112.599 60.4625 113.523 60.4614C113.523 60.4614 112.708 62.3598 112.028 63.3698ZM138.011 71.1189V70.0359H129.756L128.655 71.1189H111.86C111.672 70.8532 111.486 70.5815 111.304 70.3073L111.299 70.313C110.788 69.5464 110.324 68.7502 109.91 67.9285V67.9264C109.726 67.5552 109.563 67.1892 109.428 66.8364C109.404 66.7719 109.38 66.7078 109.356 66.6441C109.33 66.5715 109.306 66.4995 109.282 66.428C109.274 66.4042 109.267 66.3805 109.259 66.3571C109.252 66.3337 109.245 66.31 109.237 66.2863C109.161 66.0406 109.101 65.7905 109.057 65.5374H128.653L129.754 66.62H138.009V65.5374H150.83L153.103 68.4723L155.157 71.1189H138.011Z" fill="black"/>
</svg>
