<svg width="152" height="152" viewBox="0 0 152 152" fill="none" xmlns="http://www.w3.org/2000/svg">
<path d="M121.297 18.1901C122.152 18.1901 122.845 17.4973 122.845 16.6426C122.845 15.788 122.152 15.0952 121.297 15.0952C120.442 15.0952 119.749 15.788 119.749 16.6426C119.749 17.4973 120.442 18.1901 121.297 18.1901Z" fill="#1DB099"/>
<path d="M140.203 39.4351C141.058 39.4351 141.751 38.7423 141.751 37.8877C141.751 37.033 141.058 36.3402 140.203 36.3402C139.348 36.3402 138.655 37.033 138.655 37.8877C138.655 38.7423 139.348 39.4351 140.203 39.4351Z" fill="#1DB099"/>
<path d="M131.644 27.8342C132.499 27.8342 133.192 27.1414 133.192 26.2868C133.192 25.4321 132.499 24.7393 131.644 24.7393C130.789 24.7393 130.096 25.4321 130.096 26.2868C130.096 27.1414 130.789 27.8342 131.644 27.8342Z" fill="#1DB099"/>
<path d="M75.9844 151.97C64.5465 151.966 53.257 149.381 42.9573 144.409C32.6575 139.437 23.6131 132.205 16.4979 123.253C9.38271 114.301 4.38026 103.859 1.86329 92.7059C-0.653677 81.5526 -0.620265 69.9752 1.96107 58.8366C4.5424 47.698 9.60508 37.2853 16.7718 28.3744C23.9386 19.4636 33.0247 12.2843 43.3529 7.37161C53.6812 2.45894 64.9854 -0.0604822 76.4232 0.00110241C87.8609 0.062687 99.1373 2.70368 109.412 7.72728C109.749 7.91334 110.001 8.2217 110.116 8.58848C110.232 8.95526 110.202 9.35237 110.032 9.69755C109.863 10.0427 109.567 10.3095 109.206 10.4427C108.845 10.5759 108.447 10.5652 108.094 10.4129C98.1043 5.50328 87.116 2.9648 75.9844 2.99508C60.4794 3.0075 45.3815 7.95745 32.8808 17.1268C20.3802 26.2962 11.127 39.2081 6.46348 53.9897C1.79998 68.7712 1.96874 84.6535 6.94523 99.3327C11.9217 114.012 21.4471 126.724 34.1397 135.626C46.8324 144.528 62.032 149.157 77.5338 148.84C93.0357 148.523 108.033 143.278 120.352 133.865C132.67 124.452 141.667 111.361 146.04 96.4906C150.412 81.6204 149.931 65.7445 144.667 51.1659C144.585 50.9774 144.542 50.7739 144.541 50.568C144.541 50.3622 144.583 50.1585 144.664 49.9695C144.746 49.7806 144.866 49.6105 145.016 49.47C145.167 49.3294 145.344 49.2214 145.539 49.1526C145.733 49.0838 145.939 49.0557 146.144 49.0701C146.35 49.0846 146.55 49.1412 146.732 49.2364C146.915 49.3317 147.076 49.4635 147.205 49.6237C147.335 49.7839 147.429 49.969 147.484 50.1675C151.627 61.6441 152.947 73.949 151.33 86.0426C149.714 98.1363 145.209 109.663 138.197 119.65C131.185 129.637 121.872 137.79 111.043 143.421C100.215 149.051 88.1901 151.994 75.9844 152V151.97Z" fill="#1DB099"/>
<path d="M111.619 119.783C111.09 119.783 110.551 119.783 109.991 119.713C107.574 119.504 105.21 118.886 103 117.886C102.606 117.717 102.263 117.449 102.004 117.108C101.745 116.766 101.579 116.364 101.522 115.939C101.402 115.201 101.282 114.462 101.153 113.733C101.023 113.004 100.953 112.555 100.863 111.966L98.3161 112.096L94.2213 112.285C90.6758 112.425 87.0804 112.495 83.5948 112.555H81.1479C78.3914 112.555 75.6049 112.555 72.8983 112.555C71.3203 112.555 69.7523 112.505 68.1743 112.505C66.077 112.505 63.9896 112.415 62.0221 112.325L59.4853 112.225C57.1582 112.126 54.7513 112.036 52.3743 111.856C52.2944 112.235 52.2145 112.605 52.1446 112.964C52.0048 113.633 51.8649 114.302 51.7351 114.961C51.6763 115.326 51.5266 115.669 51.2997 115.961C51.0727 116.252 50.7759 116.482 50.4367 116.628C48.1242 117.699 45.6376 118.345 43.0961 118.535C40.6223 118.757 38.1319 118.366 35.8452 117.397C35.2802 117.176 34.8032 116.776 34.487 116.259C32.232 112.737 30.8615 108.723 30.492 104.558C30.3822 103.19 30.1524 101.842 29.9127 100.425C29.8229 99.8757 29.723 99.3167 29.6431 98.7676C29.1936 95.9123 28.904 93.5561 28.7342 91.3597C28.5021 88.881 28.4087 86.3912 28.4546 83.902C28.4907 81.5986 28.7754 79.3057 29.3035 77.0633C29.4709 76.3725 29.8647 75.7574 30.4221 75.3162C31.7005 74.2579 32.9756 73.1963 34.2473 72.1314H33.2485C32.8675 72.1799 32.4805 72.1508 32.111 72.0458C31.7414 71.9408 31.3969 71.7621 31.0983 71.5205C30.7997 71.2789 30.5531 70.9794 30.3734 70.64C30.1937 70.3006 30.0846 69.9283 30.0526 69.5456C29.9627 69.1163 29.8628 68.6771 29.7629 68.2478C29.663 67.8185 29.5931 67.5389 29.5132 67.1795C29.4151 66.8026 29.3977 66.4092 29.4623 66.0251C29.5268 65.6409 29.6718 65.2748 29.8877 64.9505C30.1036 64.6263 30.3856 64.3513 30.7152 64.1436C31.0448 63.9359 31.4146 63.8001 31.8004 63.7452L39.2609 62.4772L40.6591 62.2376C41.2179 62.1369 41.7942 62.2138 42.3071 62.4573L42.7365 61.6087C44.2628 58.5019 46.1213 55.5696 48.2795 52.8631C49.0749 51.9351 49.9578 51.0859 50.9162 50.3272C51.3654 49.9744 51.8872 49.7255 52.4442 49.5985C56.2603 48.6455 60.1286 47.9154 64.0296 47.4121C66.826 47.0227 69.9221 46.7531 73.7573 46.5634C76.2341 46.4436 78.8807 46.4237 81.847 46.5135C87.0932 46.6624 92.3089 47.3652 97.4073 48.6101C98.7272 48.9116 100.025 49.3018 101.292 49.7782C102.834 50.4605 104.185 51.5093 105.227 52.8331C107.71 55.8052 109.794 59.0873 111.43 62.597C111.999 62.2949 112.654 62.1963 113.287 62.3175L122.036 63.7951C122.424 63.8441 122.797 63.9744 123.131 64.1774C123.465 64.3804 123.752 64.6515 123.974 64.9731C124.191 65.3018 124.338 65.672 124.405 66.0604C124.473 66.4488 124.458 66.8469 124.363 67.2294C124.173 68.1579 123.954 69.0764 123.724 70.0049C123.596 70.6422 123.243 71.2124 122.73 71.6118C122.217 72.0111 121.577 72.2132 120.928 72.1813H119.15L122.985 75.3661C123.57 75.8403 123.955 76.5175 124.064 77.2629C124.503 80.0683 124.693 82.8538 124.813 84.9803C124.922 86.977 124.912 88.9038 124.892 90.7607C124.839 95.8077 124.209 100.832 123.015 105.736C122.903 106.263 122.827 106.797 122.785 107.333C122.735 107.964 122.648 108.59 122.525 109.21C121.901 112.297 120.571 115.198 118.64 117.686C118.305 118.121 117.865 118.464 117.362 118.685C115.539 119.424 113.587 119.798 111.619 119.783ZM104.458 115.221C106.297 116.033 108.258 116.532 110.261 116.698C112.296 116.916 114.354 116.632 116.253 115.869C116.253 115.869 116.253 115.869 116.323 115.81C117.974 113.68 119.106 111.195 119.629 108.551C119.729 108.082 119.779 107.553 119.839 107.034C119.89 106.362 119.99 105.695 120.139 105.037C121.28 100.349 121.88 95.5456 121.926 90.7208C121.926 88.9238 121.926 87.0069 121.856 85.14C121.737 82.6601 121.494 80.1877 121.127 77.7322C119.529 76.3744 117.961 75.0566 116.393 73.7388L114.196 71.8918C114.012 71.7385 113.868 71.5433 113.776 71.3226C113.684 71.1018 113.646 70.8622 113.667 70.6239C113.689 70.3861 113.768 70.1571 113.897 69.9558C114.025 69.7544 114.2 69.5865 114.406 69.4658C114.795 69.2296 115.251 69.1279 115.704 69.1762H120.868C121.077 68.3177 121.267 67.519 121.437 66.7203L112.898 65.2726L112.388 66.1113C112.248 66.3428 112.047 66.5319 111.808 66.6585C111.568 66.785 111.299 66.8444 111.028 66.83C110.758 66.8157 110.496 66.7282 110.271 66.5771C110.046 66.4259 109.867 66.2166 109.752 65.9715L109.362 65.1329C107.713 61.4086 105.555 57.9311 102.95 54.7999C102.22 53.8374 101.268 53.0666 100.174 52.5536C99.0339 52.1247 97.866 51.7744 96.6782 51.5053C91.7685 50.316 86.7471 49.6467 81.6972 49.5086C78.8108 49.4187 76.2441 49.4387 73.8471 49.5585C70.0419 49.7482 67.1256 49.9978 64.3791 50.3772C60.5961 50.8653 56.8446 51.572 53.1433 52.4937C53.0064 52.5226 52.8749 52.5732 52.7538 52.6434C51.9682 53.2933 51.2519 54.0226 50.6165 54.8199C48.5979 57.359 46.8569 60.1069 45.4231 63.0164L44.4843 64.8733L44.0349 65.7718C43.9171 66.0088 43.7385 66.2103 43.5175 66.3558C43.2964 66.5014 43.0408 66.5858 42.7765 66.6005C42.5129 66.6109 42.2511 66.5529 42.0166 66.4322C41.782 66.3115 41.5827 66.1321 41.4381 65.9116L41.2484 65.6121C41.1785 65.4923 41.1086 65.3725 41.0287 65.2627L39.7803 65.4723L32.4995 66.7203L32.6992 67.6188C32.7991 68.0681 32.9089 68.5073 33.0088 68.9566C33.0088 69.0564 33.0089 69.1263 33.0588 69.1862H38.2822C38.5602 69.1839 38.8334 69.2595 39.0706 69.4044C39.3079 69.5493 39.4998 69.7578 39.6246 70.0062C39.7493 70.2547 39.802 70.5331 39.7766 70.8099C39.7512 71.0867 39.6486 71.3508 39.4806 71.5723V71.6322C39.3898 71.777 39.2749 71.9053 39.1411 72.0116L37.8028 73.1298C35.9851 74.6473 34.164 76.1614 32.3397 77.6723C32.3119 77.6882 32.2879 77.7097 32.269 77.7355C32.25 77.7613 32.2367 77.7908 32.2298 77.822C31.7522 79.8583 31.4977 81.9405 31.4708 84.0318C31.4227 86.4111 31.5128 88.7912 31.7404 91.1601C31.9102 93.2866 32.1899 95.5628 32.6193 98.3482L32.889 99.9656C33.1287 101.393 33.3784 102.861 33.4982 104.368C33.8194 108.036 35.0183 111.574 36.9938 114.681C38.8257 115.462 40.8235 115.775 42.8065 115.59C44.8917 115.441 46.9357 114.935 48.8488 114.092C48.9587 113.523 49.0785 112.954 49.1983 112.385C49.2882 111.976 49.3681 111.557 49.458 111.147C49.8375 109.24 50.5267 108.731 52.4542 108.891C54.8212 109.071 57.2382 109.17 59.5752 109.26L62.132 109.36C64.0695 109.45 66.1269 109.53 68.1244 109.54C69.7124 109.54 71.3004 109.54 72.8784 109.59C75.555 109.59 78.3214 109.66 81.028 109.59H83.4749C86.9406 109.53 90.526 109.46 94.0416 109.32C95.3999 109.32 96.7481 109.2 98.0964 109.131L101.492 108.961C101.745 108.935 102.001 108.958 102.245 109.031C102.489 109.104 102.716 109.223 102.914 109.384C103.111 109.544 103.275 109.742 103.396 109.966C103.517 110.189 103.593 110.435 103.619 110.688C103.759 111.547 103.899 112.405 104.049 113.254C104.229 113.903 104.349 114.572 104.458 115.221ZM79.5599 107.553H74.9857C72.9882 107.553 71.0507 107.553 69.0832 107.553C66.087 107.553 63.0108 107.403 59.2556 107.244C55.76 107.094 52.6839 106.934 49.8475 106.744L47.7302 106.605C45.3932 106.455 42.9762 106.305 40.5892 106.056C39.8602 105.976 39.1211 105.916 38.382 105.866H37.9526C37.3871 105.901 36.8306 105.711 36.4055 105.337C35.9804 104.962 35.7214 104.434 35.6855 103.869C34.8166 99.4764 34.2772 96.092 33.9377 92.8872C33.8953 92.4901 34.0125 92.0923 34.2634 91.7815C34.5144 91.4707 34.8786 91.2723 35.2759 91.2299C35.6733 91.1876 36.0712 91.3047 36.3821 91.5556C36.693 91.8065 36.8915 92.1706 36.9339 92.5678C37.2535 95.5628 37.7628 98.8075 38.5718 102.931H38.6317C39.3907 102.931 40.1598 103.041 40.9188 103.12C43.2459 103.37 45.6329 103.52 47.91 103.66L50.0473 103.799C52.8437 103.989 55.8998 104.159 59.3754 104.298C63.1007 104.458 66.1968 104.558 69.1331 104.608C71.0707 104.608 73.0182 104.608 74.9657 104.608H83.1453C85.4225 104.608 87.6996 104.608 89.9767 104.508C92.5035 104.438 95.0703 104.298 97.5471 104.179L98.8155 104.109C100.813 104.019 102.751 103.889 104.718 103.759C106.855 103.62 108.989 103.466 111.12 103.3L113.577 103.071L115.365 102.901C116.303 98.6949 116.788 94.4009 116.813 90.0919C116.817 89.8952 116.861 89.7014 116.94 89.5214C117.02 89.3415 117.134 89.179 117.276 89.0432C117.419 88.9073 117.586 88.8008 117.77 88.7298C117.953 88.6588 118.149 88.6246 118.346 88.6292C118.542 88.6338 118.736 88.6771 118.916 88.7566C119.096 88.8361 119.259 88.9503 119.395 89.0926C119.531 89.2349 119.637 89.4025 119.708 89.586C119.779 89.7694 119.814 89.9651 119.809 90.1617C119.773 94.8406 119.22 99.5012 118.161 104.059C118.076 104.536 117.833 104.972 117.471 105.294C117.109 105.617 116.648 105.807 116.164 105.836L113.916 106.056L111.41 106.285C109.259 106.452 107.112 106.605 104.968 106.744C102.97 106.874 100.973 107.004 98.9753 107.104L97.7169 107.164C95.2101 107.294 92.6233 107.423 90.0766 107.503C87.7795 107.563 85.4824 107.583 83.1853 107.603H80.7584L79.5599 107.553Z" fill="#1DB099"/>
<path d="M61.3929 106.385C60.656 106.416 59.9283 106.213 59.3132 105.806C58.6982 105.399 58.2272 104.809 57.9673 104.119L53.2332 92.6277C52.9911 92.0736 52.9014 91.4651 52.9734 90.8648C53.0454 90.2645 53.2765 89.6944 53.6427 89.2133L53.8525 88.9237L57.1782 84.3812C57.4763 83.9923 57.8653 83.6825 58.3111 83.4788C58.7568 83.2752 59.2457 83.184 59.735 83.2132H93.4024C93.8226 83.2066 94.2398 83.2845 94.6292 83.4423C95.0187 83.6001 95.3725 83.8345 95.6695 84.1316C96.9479 85.3895 98.2329 86.6309 99.5246 87.8555C100.058 88.3281 100.433 88.9531 100.6 89.646C100.766 90.339 100.715 91.0661 100.453 91.7291C99.4547 94.6377 98.456 97.5463 97.4573 100.455L96.3387 103.769C96.144 104.567 95.6707 105.269 95.0042 105.748C94.3376 106.228 93.5216 106.454 92.7033 106.385H61.3929ZM59.5452 86.2681L56.2694 90.7507L56.0596 91.0303C55.9976 91.0982 55.9584 91.1839 55.9477 91.2752C55.9369 91.3666 55.9551 91.459 55.9997 91.5395L60.7337 103.031C60.8636 103.33 60.9435 103.44 61.3929 103.44H92.7332C92.9193 103.457 93.1068 103.433 93.2825 103.37C93.3971 103.219 93.4788 103.045 93.5222 102.861L94.6408 99.5463C95.6395 96.6311 96.6383 93.7059 97.637 90.8006C97.7669 90.4113 97.7169 90.3215 97.4672 90.0819C96.1689 88.8372 94.8738 87.586 93.5822 86.328C93.5222 86.2581 93.5023 86.2681 93.4124 86.2581H59.5552L59.5452 86.2681ZM87.5098 98.0887H66.6363C66.239 98.0887 65.8579 97.9309 65.577 97.65C65.296 97.3692 65.1382 96.9883 65.1382 96.5912C65.1382 96.194 65.296 95.8131 65.577 95.5322C65.8579 95.2514 66.239 95.0936 66.6363 95.0936H87.4599C87.8572 95.0936 88.2383 95.2514 88.5192 95.5322C88.8002 95.8131 88.958 96.194 88.958 96.5912C88.958 96.9883 88.8002 97.3692 88.5192 97.65C88.2383 97.9309 87.8572 98.0887 87.4599 98.0887H87.5098ZM92.7332 93.0969H61.4129C61.0155 93.0969 60.6345 92.9391 60.3536 92.6582C60.0726 92.3774 59.9147 91.9966 59.9147 91.5994C59.9147 91.2022 60.0726 90.8213 60.3536 90.5405C60.6345 90.2596 61.0155 90.1018 61.4129 90.1018H92.6833C93.0806 90.1018 93.4616 90.2596 93.7426 90.5405C94.0235 90.8213 94.1814 91.2022 94.1814 91.5994C94.1814 91.9966 94.0235 92.3774 93.7426 92.6582C93.4616 92.9391 93.0806 93.0969 92.6833 93.0969H92.7332Z" fill="#1DB099"/>
<path d="M49.7277 73.3793C49.2543 73.4108 48.7803 73.3263 48.347 73.1332C47.9136 72.94 47.5339 72.6441 47.2408 72.2711C46.9277 71.8619 46.7395 71.3709 46.6988 70.8574C46.658 70.3438 46.7665 69.8294 47.0111 69.3759C47.9499 67.5289 48.8788 65.672 49.8176 63.8051L52.0547 59.3923C52.3943 58.7334 52.7339 58.0645 53.0535 57.3956C53.2588 56.9549 53.566 56.5693 53.9498 56.2708C54.3336 55.9722 54.7829 55.7691 55.2607 55.6784C57.9373 55.1593 60.3742 54.7599 62.7212 54.4904C64.8885 54.2308 67.2156 53.9712 69.5526 53.8115C73.4051 53.5441 77.2695 53.4908 81.128 53.6518C83.5749 53.7516 86.1816 53.9912 89.1179 54.3806C92.1641 54.7966 95.1706 55.4644 98.1065 56.3773C98.8371 56.6022 99.4659 57.0755 99.8842 57.7151C101.436 60.1118 102.843 62.5988 104.099 65.1628L104.369 65.702C104.888 66.7003 105.367 67.6987 105.867 68.7469L106.086 69.1962C106.331 69.6395 106.46 70.1375 106.46 70.6438C106.46 71.1501 106.331 71.6482 106.086 72.0914C105.796 72.5078 105.404 72.8435 104.948 73.067C104.492 73.2906 103.987 73.3946 103.48 73.3693H49.7277V73.3793ZM55.83 58.6336C55.83 58.6336 55.78 58.6335 55.7501 58.7234C55.4105 59.4023 55.0709 60.0812 54.7513 60.7201L52.5242 65.1229L49.8875 70.3543H103.29L103.13 70.0248C102.651 69.0265 102.131 68.0281 101.662 67.0297L101.392 66.4906C100.204 64.0371 98.8699 61.6567 97.3973 59.3624C97.3075 59.2226 97.2575 59.2126 97.2176 59.2026C94.4525 58.3349 91.6195 57.7003 88.7483 57.3057C85.9319 56.9264 83.4151 56.6968 81.068 56.5969C77.3192 56.4444 73.5648 56.5011 69.8223 56.7666C67.5452 56.9164 65.268 57.1759 63.1407 57.4255C60.8636 57.6851 58.4966 58.0645 55.8899 58.5837L55.83 58.6336Z" fill="#1DB099"/>
<path d="M39.8202 91.7391C38.8488 91.7525 37.9 91.446 37.1203 90.8668C36.3405 90.2876 35.7731 89.4679 35.5056 88.5344C35.2177 87.5932 35.0763 86.6133 35.0862 85.6291C35.0209 84.3569 35.3114 83.0916 35.9251 81.9752C36.2671 81.3302 36.8095 80.8139 37.4707 80.5042C38.1318 80.1944 38.8759 80.108 39.5905 80.2579C41.518 80.5674 43.4855 80.827 45.3931 81.0866L47.84 81.4061L52.1546 82.0051C52.7049 82.0664 53.2288 82.2732 53.6726 82.6041C53.9825 82.857 54.2328 83.1751 54.4054 83.5358C54.5781 83.8965 54.6688 84.2908 54.6714 84.6907C54.6749 85.1001 54.5871 85.5053 54.4144 85.8766C54.2416 86.2479 53.9882 86.576 53.6726 86.8372C53.0734 87.3363 52.4542 87.8355 51.845 88.3147L51.3955 88.6741C50.9122 89.0521 50.3292 89.2812 49.7177 89.333C48.3894 89.4529 47.061 89.5926 45.7227 89.7324L44.724 89.8422C44.6405 89.8502 44.5609 89.8813 44.4942 89.932C43.3473 90.7868 42.0287 91.3829 40.6291 91.6792C40.3612 91.7181 40.0909 91.7382 39.8202 91.7391ZM38.8814 83.1831C38.7216 83.1831 38.6517 83.263 38.4819 83.5326C38.1612 84.1895 38.0232 84.9205 38.0824 85.6491C38.0752 86.3256 38.1729 86.9992 38.3721 87.6458C38.4185 87.8345 38.5022 88.0119 38.6183 88.1678C38.7344 88.3236 38.8805 88.4547 39.048 88.5533C39.2154 88.6519 39.401 88.7161 39.5936 88.742C39.7863 88.7679 39.9822 88.755 40.1698 88.7041C41.1449 88.4708 42.0602 88.0354 42.8564 87.4262C43.3245 87.1092 43.8626 86.9106 44.4244 86.8471L45.473 86.7473L49.468 86.338L50.0073 85.9586L51.3256 84.9103L47.4106 84.3712L44.9837 84.0418C43.0561 83.7922 41.0586 83.5226 39.0911 83.2031L38.8814 83.1831Z" fill="#1DB099"/>
<path d="M112.938 91.2599C112.46 91.2559 111.984 91.199 111.519 91.0902C110.375 90.7643 109.297 90.2406 108.334 89.5428C108.163 89.4231 107.962 89.3539 107.754 89.3431C106.466 89.2233 105.177 89.0935 103.899 88.9537L102.741 88.8339C102.171 88.7612 101.636 88.5215 101.203 88.1451L99.205 86.5377C98.7462 86.2225 98.3962 85.7731 98.2031 85.2511C98.0099 84.7292 97.9831 84.1602 98.1264 83.6225C98.2741 83.0648 98.5902 82.5662 99.0317 82.1946C99.4731 81.823 100.018 81.5965 100.593 81.5459L113.437 79.7389C114.091 79.6391 114.759 79.7439 115.351 80.0387C115.943 80.3337 116.429 80.8043 116.743 81.3861C117.413 82.5481 117.725 83.8815 117.642 85.2199C117.641 85.9486 117.561 86.675 117.402 87.3863C117.294 88.0333 117.056 88.6518 116.703 89.2043C116.349 89.7569 115.887 90.232 115.345 90.601C114.624 91.0502 113.787 91.2791 112.938 91.2599ZM103.14 85.8688L104.209 85.9786C105.477 86.1084 106.756 86.2482 108.024 86.358C108.688 86.4083 109.329 86.6209 109.892 86.977C110.59 87.5055 111.374 87.9106 112.209 88.175C112.706 88.3322 113.244 88.2965 113.717 88.0752C114.116 87.7485 114.374 87.2798 114.436 86.7673C114.554 86.2701 114.614 85.7608 114.616 85.2498V85.15C114.68 84.3747 114.517 83.5975 114.146 82.9137C114.006 82.684 113.956 82.684 113.827 82.704L101.382 84.4611L103.07 85.8089L103.14 85.8688Z" fill="#1DB099"/>
<path d="M38.0325 56.1577C37.6352 56.1577 37.2541 55.9998 36.9731 55.719C36.6922 55.4381 36.5344 55.0573 36.5344 54.6601C36.5317 51.5312 35.2872 48.5312 33.0738 46.3187C30.8605 44.1063 27.8594 42.8621 24.7293 42.8595C24.332 42.8595 23.9509 42.7017 23.67 42.4209C23.389 42.14 23.2312 41.7591 23.2312 41.362C23.2312 40.9648 23.389 40.5839 23.67 40.3031C23.9509 40.0222 24.332 39.8644 24.7293 39.8644C27.8594 39.8618 30.8605 38.6177 33.0738 36.4052C35.2872 34.1927 36.5317 31.1928 36.5344 28.0639C36.5344 27.6667 36.6922 27.2858 36.9731 27.0049C37.2541 26.7241 37.6352 26.5663 38.0325 26.5663C38.4298 26.5663 38.8109 26.7241 39.0918 27.0049C39.3728 27.2858 39.5306 27.6667 39.5306 28.0639C39.5332 31.1928 40.7778 34.1927 42.9911 36.4052C45.2044 38.6177 48.2056 39.8618 51.3356 39.8644C51.733 39.8644 52.114 40.0222 52.395 40.3031C52.6759 40.5839 52.8337 40.9648 52.8337 41.362C52.8337 41.7591 52.6759 42.14 52.395 42.4209C52.114 42.7017 51.733 42.8595 51.3356 42.8595C48.2056 42.8621 45.2044 44.1063 42.9911 46.3187C40.7778 48.5312 39.5332 51.5312 39.5306 54.6601C39.5306 55.0573 39.3728 55.4381 39.0918 55.719C38.8109 55.9998 38.4298 56.1577 38.0325 56.1577ZM31.2011 41.342C34.1655 42.7965 36.5618 45.1954 38.0125 48.1608C39.4639 45.1924 41.8644 42.7928 44.8339 41.342C41.8779 39.8934 39.486 37.5059 38.0325 34.5532C36.5701 37.5097 34.1673 39.8975 31.2011 41.342Z" fill="#1DB099"/>
<path d="M61.0533 35.252C60.656 35.252 60.2749 35.0942 59.994 34.8134C59.713 34.5326 59.5552 34.1516 59.5552 33.7545C59.5526 32.0404 58.8695 30.3975 57.6561 29.1864C56.4427 27.9753 54.7981 27.2951 53.0834 27.2951C52.6861 27.2951 52.305 27.1373 52.0241 26.8565C51.7432 26.5756 51.5853 26.1947 51.5853 25.7976C51.5853 25.4004 51.7432 25.0195 52.0241 24.7387C52.305 24.4578 52.6861 24.3 53.0834 24.3C54.7999 24.3 56.446 23.6184 57.6597 22.4052C58.8734 21.192 59.5552 19.5465 59.5552 17.8307C59.5552 17.4335 59.713 17.0526 59.994 16.7718C60.2749 16.4909 60.656 16.3331 61.0533 16.3331C61.4506 16.3331 61.8317 16.4909 62.1126 16.7718C62.3936 17.0526 62.5514 17.4335 62.5514 17.8307C62.5541 19.5457 63.2368 21.1896 64.4499 22.4023C65.663 23.615 67.3076 24.2974 69.0233 24.3C69.4206 24.3 69.8016 24.4578 70.0825 24.7387C70.3635 25.0195 70.5214 25.4004 70.5214 25.7976C70.5214 26.1947 70.3635 26.5756 70.0825 26.8565C69.8016 27.1373 69.4206 27.2951 69.0233 27.2951C67.3086 27.2951 65.6639 27.9753 64.4505 29.1864C63.2371 30.3975 62.5541 32.0404 62.5514 33.7545C62.5514 34.1516 62.3936 34.5326 62.1126 34.8134C61.8317 35.0942 61.4506 35.252 61.0533 35.252ZM58.1969 25.7976C59.3429 26.5336 60.317 27.5074 61.0533 28.6529C61.7905 27.5047 62.7686 26.5305 63.9197 25.7976C62.7705 25.0581 61.7931 24.0811 61.0533 22.9323C60.3145 24.0785 59.341 25.055 58.1969 25.7976Z" fill="#1DB099"/>
<path d="M110.591 50.8264C110.193 50.8264 109.812 50.6686 109.531 50.3878C109.25 50.1069 109.093 49.726 109.093 49.3289C109.093 47.6131 108.411 45.9676 107.197 44.7544C105.983 43.5411 104.337 42.8595 102.621 42.8595C102.223 42.8595 101.842 42.7017 101.561 42.4209C101.28 42.14 101.123 41.7591 101.123 41.362C101.123 40.9648 101.28 40.5839 101.561 40.3031C101.842 40.0222 102.223 39.8644 102.621 39.8644C103.471 39.8644 104.312 39.6971 105.097 39.372C105.883 39.0469 106.596 38.5703 107.197 37.9696C107.798 37.3689 108.275 36.6557 108.6 35.8708C108.925 35.0859 109.093 34.2446 109.093 33.3951C109.093 32.9979 109.25 32.617 109.531 32.3362C109.812 32.0553 110.193 31.8975 110.591 31.8975C110.988 31.8975 111.369 32.0553 111.65 32.3362C111.931 32.617 112.089 32.9979 112.089 33.3951C112.089 34.2446 112.256 35.0859 112.581 35.8708C112.907 36.6557 113.383 37.3689 113.984 37.9696C114.585 38.5703 115.299 39.0469 116.084 39.372C116.869 39.6971 117.711 39.8644 118.561 39.8644C118.958 39.8644 119.339 40.0222 119.62 40.3031C119.901 40.5839 120.059 40.9648 120.059 41.362C120.059 41.7591 119.901 42.14 119.62 42.4209C119.339 42.7017 118.958 42.8595 118.561 42.8595C116.845 42.8621 115.2 43.5446 113.987 44.7573C112.774 45.9699 112.091 47.6139 112.089 49.3289C112.089 49.726 111.931 50.1069 111.65 50.3878C111.369 50.6686 110.988 50.8264 110.591 50.8264ZM107.734 41.342C108.878 42.0845 109.852 43.0611 110.591 44.2073C111.33 43.0585 112.308 42.0815 113.457 41.342C112.308 40.6061 111.331 39.6325 110.591 38.4867C109.851 39.6299 108.878 40.6031 107.734 41.342Z" fill="#1DB099"/>
</svg>
