<svg width="152" height="152" viewBox="0 0 152 152" fill="none" xmlns="http://www.w3.org/2000/svg">
<path d="M149.952 67.5878C150.807 67.5878 151.501 66.8944 151.501 66.0392C151.501 65.1839 150.807 64.4906 149.952 64.4906C149.097 64.4906 148.404 65.1839 148.404 66.0392C148.404 66.8944 149.097 67.5878 149.952 67.5878Z" fill="#1DB099"/>
<path d="M148.294 95.9916C149.149 95.9916 149.842 95.2983 149.842 94.443C149.842 93.5878 149.149 92.8944 148.294 92.8944C147.439 92.8944 146.746 93.5878 146.746 94.443C146.746 95.2983 147.439 95.9916 148.294 95.9916Z" fill="#1DB099"/>
<path d="M150.452 81.7247C151.307 81.7247 152 81.0314 152 80.1762C152 79.3209 151.307 78.6276 150.452 78.6276C149.597 78.6276 148.903 79.3209 148.903 80.1762C148.903 81.0314 149.597 81.7247 150.452 81.7247Z" fill="#1DB099"/>
<path d="M75.941 152C61.9818 151.991 48.2948 148.137 36.3817 140.86C24.4687 133.583 14.7901 123.165 8.40772 110.748C2.02538 98.332 -0.813915 84.3972 0.20124 70.473C1.21639 56.5489 6.04686 43.1734 14.1626 31.8143C22.2783 20.4552 33.3656 11.5514 46.2081 6.07984C59.0505 0.608301 73.1518 -1.21952 86.9645 0.796928C100.777 2.81338 113.768 8.59617 124.511 17.5108C135.254 26.4254 143.334 38.1274 147.864 51.3327C147.929 51.519 147.956 51.7162 147.944 51.913C147.933 52.1099 147.882 52.3024 147.796 52.4797C147.71 52.6569 147.589 52.8155 147.441 52.9461C147.294 53.0767 147.122 53.1769 146.935 53.241C146.749 53.3052 146.552 53.3318 146.356 53.3192C146.159 53.3067 145.967 53.2552 145.79 53.1679C145.614 53.0805 145.456 52.959 145.327 52.8104C145.198 52.6617 145.099 52.4888 145.037 52.3019C139.548 36.2966 128.666 22.6981 114.254 13.8358C99.8414 4.97352 82.7967 1.39884 66.0389 3.72407C49.2812 6.0493 33.8533 14.1297 22.3977 26.5813C10.9422 39.0329 4.17201 55.0808 3.24671 71.9761C2.3214 88.8714 7.29863 105.563 17.3258 119.191C27.3531 132.82 41.8063 142.537 58.2099 146.679C74.6134 150.821 91.9465 149.13 107.24 141.895C122.534 134.66 134.836 122.331 142.041 107.021C142.209 106.661 142.513 106.382 142.887 106.246C143.261 106.111 143.673 106.129 144.033 106.297C144.394 106.465 144.673 106.77 144.808 107.144C144.944 107.517 144.926 107.93 144.758 108.29C138.614 121.363 128.876 132.415 116.682 140.156C104.489 147.896 90.3434 152.004 75.901 152H75.941Z" fill="#1DB099"/>
<path d="M79.3073 129.411H74.3126L73.3137 129.321L71.4057 129.131C68.1518 128.765 64.9487 128.038 61.8558 126.963C56.6037 125.163 51.7252 122.417 47.4612 118.861C42.1845 114.475 37.9499 108.971 35.0643 102.745C33.2593 98.8093 32.0023 94.6443 31.3283 90.3668C30.8261 87.1624 30.6787 83.9124 30.8887 80.6757C31.3923 71.4864 34.6776 62.6675 40.3088 55.389C45.791 48.2067 53.2735 42.8053 61.8159 39.8633C63.935 39.109 66.1137 38.5342 68.329 38.1449C68.329 36.946 68.329 35.6771 68.329 34.2984H61.8459C61.3847 34.3121 60.9256 34.2317 60.4965 34.0621C60.0674 33.8925 59.6774 33.6372 59.3503 33.3119C59.0231 32.9865 58.7657 32.5979 58.5936 32.1698C58.4216 31.7416 58.3386 31.2829 58.3496 30.8216C58.3496 29.1531 58.3496 27.4847 58.3496 25.8262C58.334 25.3581 58.4153 24.8918 58.5885 24.4566C58.7617 24.0214 59.0231 23.6267 59.3561 23.2974C59.6891 22.9681 60.0866 22.7112 60.5237 22.5429C60.9608 22.3746 61.4279 22.2985 61.8958 22.3195H90.6152C91.0684 22.2906 91.5228 22.3555 91.9499 22.51C92.3769 22.6645 92.7675 22.9053 93.0974 23.2174C93.4273 23.5296 93.6895 23.9063 93.8674 24.3242C94.0453 24.7421 94.1352 25.1922 94.1315 25.6464C94.2322 27.5166 94.2322 29.391 94.1315 31.2612C94.0799 32.1084 93.6987 32.9017 93.0695 33.4713C92.4403 34.0408 91.6131 34.3413 90.7651 34.3084H85.4308C85.4308 35.5872 85.4308 36.8561 85.4308 38.1349C88.9026 38.774 92.2861 39.8238 95.51 41.262C104.062 45.0442 111.26 51.3392 116.149 59.3107C121.038 67.2822 123.386 76.5529 122.881 85.8909C122.624 91.0411 121.489 96.1095 119.525 100.877C116.692 107.79 112.222 113.911 106.501 118.714C100.78 123.518 93.9776 126.859 86.6795 128.452C84.4029 128.978 82.0817 129.29 79.7468 129.381H79.6069L79.3073 129.411ZM74.4924 126.414H79.1474C79.302 126.378 79.4589 126.355 79.6169 126.344C81.7667 126.256 83.9038 125.969 86.0001 125.484C95.2188 123.484 103.525 118.51 109.642 111.327C115.758 104.145 119.346 95.1518 119.854 85.731C120.326 76.9981 118.131 68.328 113.56 60.8724C108.989 53.4169 102.258 47.5286 94.2614 43.9895C91.033 42.5531 87.6365 41.5292 84.1521 40.9423C83.6471 40.8797 83.185 40.6267 82.8602 40.2349C82.5353 39.8432 82.3721 39.3422 82.404 38.8343C82.404 37.0159 82.404 35.2076 82.404 33.3892C82.3833 33.1078 82.4224 32.8252 82.5189 32.56C82.6153 32.2948 82.7667 32.0531 82.9633 31.8507C83.1643 31.6584 83.4032 31.5103 83.6646 31.4157C83.9261 31.321 84.2043 31.2821 84.4817 31.3012H90.7251C91.0947 31.3012 91.1047 31.1313 91.1047 31.0614C91.2055 29.2978 91.2055 27.5299 91.1047 25.7663C91.1047 25.3966 91.1047 25.3067 90.5852 25.3067H61.8658C61.4063 25.3067 61.3264 25.4466 61.3164 25.8262C61.3164 27.4847 61.3164 29.1432 61.3164 30.8216C61.3164 31.2113 61.4363 31.3211 61.8159 31.3211H63.2543C65.2522 31.3211 67.2501 31.3211 69.1881 31.3211C69.4726 31.3074 69.7571 31.3507 70.0247 31.4485C70.2923 31.5463 70.5376 31.6966 70.7463 31.8906C70.9401 32.097 71.0897 32.3408 71.1859 32.6071C71.2821 32.8734 71.323 33.1566 71.3058 33.4392C71.3058 35.4374 71.3058 37.1858 71.3058 38.8043C71.3473 39.3483 71.172 39.8866 70.8184 40.3021C70.4648 40.7175 69.9614 40.9764 69.4178 41.0222C67.1513 41.3811 64.9238 41.9531 62.7648 42.7307C54.7015 45.507 47.6438 50.6153 42.4865 57.4079C37.3292 64.2005 34.3044 72.3716 33.7957 80.8855C33.6001 83.8883 33.7342 86.9036 34.1953 89.8772C35.7961 100.318 41.1745 109.807 49.3092 116.543C53.2963 119.862 57.8564 122.425 62.7648 124.106C65.648 125.101 68.6334 125.771 71.6654 126.104C72.2848 126.174 72.9041 126.224 73.5334 126.284L74.4924 126.414ZM76.81 120.739H76.4702C71.5167 120.697 66.6212 119.668 62.0695 117.713C57.5179 115.757 53.4015 112.914 49.9606 109.35C46.5197 105.786 43.8232 101.572 42.0288 96.954C40.2345 92.336 39.378 87.4068 39.5096 82.4541C39.7894 72.7342 43.8358 63.5037 50.7941 56.7122C57.7523 49.9208 67.0775 46.1002 76.8 46.0576H77.0197C86.8173 46.2452 96.1484 50.2773 103 57.284C109.852 64.2908 113.675 73.7105 113.645 83.5113C113.615 93.312 109.734 102.708 102.839 109.672C95.9443 116.637 86.5885 120.612 76.79 120.739H76.81ZM76.81 49.0548C70.0739 49.0747 63.4922 51.074 57.8831 54.8045C52.274 58.5349 47.8849 63.8319 45.2612 70.0369C42.6376 76.2419 41.8952 83.0813 43.1264 89.7048C44.3576 96.3283 47.5081 102.444 52.1861 107.291C55.3368 110.562 59.1104 113.17 63.2846 114.959C67.4587 116.749 71.9488 117.685 76.4902 117.712H76.8C85.8083 117.593 94.4092 113.938 100.749 107.536C107.088 101.134 110.658 92.4965 110.69 83.4861C110.721 74.4758 107.211 65.8138 100.917 59.3675C94.6222 52.9212 86.047 49.2067 77.0397 49.0248H76.82L76.81 49.0548Z" fill="#1DB099"/>
<path d="M34.5149 54.25H34.415C34.1571 54.2323 33.9058 54.161 33.677 54.0406C33.4483 53.9201 33.2471 53.7533 33.0865 53.5507C31.834 52.0803 30.9987 50.3008 30.6678 48.3977C30.3368 46.4946 30.5223 44.5376 31.2048 42.7305C31.8873 40.9235 33.0419 39.3326 34.5483 38.1237C36.0547 36.9147 37.8576 36.132 39.7693 35.857C40.1513 35.8181 40.5362 35.8181 40.9181 35.857H41.2477C42.6391 35.8089 44.0254 36.0505 45.3186 36.5664C46.6117 37.0824 47.7835 37.8615 48.7598 38.8542C48.9752 39.0385 49.1491 39.2666 49.2697 39.5233C49.3903 39.7799 49.4548 40.0593 49.4591 40.3428C49.4455 40.6286 49.3728 40.9085 49.2456 41.1647C49.1183 41.421 48.9393 41.648 48.7199 41.8315C47.3613 43.0703 46.0027 44.3292 44.6541 45.588L39.6594 50.1638C38.3608 51.3627 37.0622 52.5516 35.7636 53.7605C35.4218 54.0718 34.9772 54.2461 34.5149 54.25ZM40.4586 38.8143H40.2189C38.3539 39.0626 36.6462 39.9913 35.424 41.4219C34.3268 42.6773 33.6618 44.252 33.5269 45.914C33.392 47.576 33.7944 49.2373 34.6748 50.6534L37.6716 47.8959L45.9028 40.2829C44.5898 39.265 42.9573 38.7479 41.2977 38.8243H40.4586V38.8143Z" fill="#1DB099"/>
<path d="M104.201 85.5113H76.4404C74.9221 85.5113 74.2427 84.8219 74.2427 83.2933V55.4889C74.2141 55.1941 74.2484 54.8965 74.3431 54.6158C74.4378 54.3352 74.5908 54.0777 74.7922 53.8604C75.0154 53.6648 75.2782 53.5197 75.5627 53.4352C75.8472 53.3507 76.1467 53.3288 76.4404 53.3709C83.0295 53.524 89.3937 55.7975 94.5887 59.8541C99.7838 63.9106 103.533 69.5341 105.28 75.8901C105.933 78.2931 106.301 80.7644 106.379 83.2533C106.444 83.5564 106.434 83.871 106.349 84.1693C106.264 84.4675 106.107 84.7403 105.892 84.9634C105.677 85.1866 105.41 85.3533 105.115 85.4489C104.82 85.5444 104.506 85.5659 104.201 85.5113ZM77.2295 82.514H103.322C102.953 75.7108 100.086 69.2832 95.2711 64.4637C90.456 59.6442 84.0315 56.7721 77.2295 56.3981V82.514Z" fill="#1DB099"/>
<path d="M49.3092 87.909C49.0419 87.9284 48.7735 87.89 48.5223 87.7964C48.2712 87.7028 48.0431 87.5563 47.8536 87.3668C47.6641 87.1772 47.5176 86.9491 47.424 86.6979C47.3305 86.4467 47.292 86.1782 47.3114 85.9109C47.3114 84.0326 47.3114 82.1543 47.3114 80.2861C47.3006 80.0209 47.3428 79.7562 47.4354 79.5075C47.528 79.2587 47.6692 79.031 47.8508 78.8374C48.0451 78.6576 48.2732 78.5181 48.5219 78.4272C48.7705 78.3363 49.0348 78.2958 49.2992 78.3079H54.224C55.1431 78.3079 56.0521 78.3079 56.9611 78.3079C57.5101 78.2891 58.0444 78.4864 58.4495 78.8574C58.6413 79.048 58.7925 79.2755 58.8938 79.5263C58.9951 79.777 59.0444 80.0457 59.0389 80.3161C59.0389 82.1743 59.0389 84.0326 59.0389 85.8909C59.0582 86.1583 59.0198 86.4267 58.9262 86.6779C58.8326 86.9291 58.6861 87.1572 58.4966 87.3467C58.3071 87.5363 58.079 87.6828 57.8279 87.7764C57.5767 87.87 57.3083 87.9084 57.041 87.8891H49.2892L49.3092 87.909ZM50.3382 81.2851C50.3382 82.484 50.3382 83.673 50.3382 84.8619H56.0421V81.3151H50.3582L50.3382 81.2851Z" fill="#1DB099"/>
<path d="M80.486 113.446C79.1175 113.446 77.7389 113.446 76.3704 113.446C76.0923 113.463 75.8135 113.423 75.552 113.326C75.2905 113.23 75.0521 113.08 74.852 112.886C74.6581 112.681 74.5078 112.439 74.4099 112.175C74.3121 111.911 74.2688 111.629 74.2826 111.347C74.2826 108.83 74.2826 106.352 74.2826 103.804C74.2668 103.521 74.3091 103.238 74.407 102.971C74.5049 102.705 74.6564 102.461 74.852 102.256C75.0606 102.065 75.3048 101.918 75.5704 101.822C75.8361 101.726 76.1182 101.683 76.4004 101.696C77.7789 101.696 79.1475 101.696 80.526 101.696C80.804 101.673 81.0838 101.711 81.3448 101.81C81.6059 101.909 81.8415 102.064 82.0344 102.266C82.2289 102.464 82.38 102.7 82.478 102.96C82.5761 103.22 82.6188 103.497 82.6037 103.774C82.6037 104.684 82.6037 105.583 82.6037 106.492V108.64C82.6037 109.529 82.6037 110.408 82.6037 111.288C82.622 111.578 82.58 111.869 82.4803 112.142C82.3806 112.416 82.2254 112.666 82.0244 112.876C81.8229 113.074 81.5815 113.228 81.3163 113.326C81.0511 113.424 80.7681 113.465 80.486 113.446ZM79.5471 110.448C79.5471 109.839 79.5471 109.239 79.5471 108.64V104.714H77.2394C77.2394 106.632 77.2394 108.54 77.2394 110.448H79.5471Z" fill="#1DB099"/>
<path d="M65.492 64.5006C65.3522 64.5006 65.3022 64.4007 65.2423 64.3008L62.2455 59.1855C62.0956 58.9457 62.1756 58.8058 62.3953 58.686C62.9647 58.3662 63.5342 58.0365 64.0836 57.6869C64.3034 57.547 64.4332 57.597 64.5531 57.8068L67.5499 62.9221C67.6398 63.082 67.7097 63.2418 67.4799 63.3617L65.6219 64.4307L65.492 64.5006Z" fill="#1DB099"/>
<path d="M59.0388 95.3022C59.0388 95.522 58.929 95.5819 58.8091 95.6519L53.7544 98.5792C53.7132 98.6172 53.6629 98.6439 53.6085 98.657C53.554 98.6702 53.4971 98.6692 53.4431 98.6542C53.3891 98.6392 53.3399 98.6106 53.3 98.5713C53.2601 98.532 53.2309 98.4831 53.2151 98.4293C52.9054 97.8599 52.5758 97.2904 52.2162 96.7309C52.0863 96.5111 52.1562 96.3912 52.356 96.2813L57.4506 93.344C57.6404 93.2341 57.8102 93.1442 57.96 93.4139C58.2697 93.9934 58.6094 94.5529 58.959 95.1224C58.9903 95.1802 59.0169 95.2403 59.0388 95.3022Z" fill="#1DB099"/>
<path d="M67.6398 103.085C67.6398 103.155 67.5698 103.245 67.5199 103.325L64.5931 108.37C64.4732 108.58 64.3532 108.68 64.1035 108.52C63.5441 108.18 62.9747 107.861 62.4053 107.521C62.1456 107.371 62.1456 107.211 62.2855 106.971C63.2778 105.293 64.2567 103.628 65.2223 101.976C65.3522 101.756 65.4721 101.676 65.7119 101.826C66.2713 102.166 66.8406 102.486 67.4 102.825C67.5099 102.855 67.6398 102.905 67.6398 103.085Z" fill="#1DB099"/>
<path d="M53.5148 67.5978L53.7945 67.7376C55.4527 68.7367 57.101 69.6559 58.7892 70.595C59.0889 70.7648 59.1189 70.9447 58.9491 71.2144C58.6494 71.714 58.3397 72.2135 58.07 72.743C57.9002 73.0727 57.7503 73.0927 57.4407 72.9129C55.9822 72.0537 54.5138 71.2244 53.0553 70.3752C52.1163 69.8257 52.1163 69.8157 52.6457 68.8766L53.245 67.8775C53.285 67.7376 53.335 67.6078 53.5148 67.5978Z" fill="#1DB099"/>
<path d="M90.006 101.726C90.1558 101.726 90.2058 101.826 90.2657 101.916L93.1726 106.912C93.2013 106.946 93.2218 106.986 93.2324 107.029C93.243 107.072 93.2435 107.118 93.2338 107.161C93.2242 107.205 93.2046 107.245 93.1767 107.28C93.1487 107.315 93.1131 107.342 93.0726 107.361L91.3845 108.51C91.1647 108.67 91.0349 108.57 90.925 108.37C89.9461 106.678 88.9471 104.99 87.9282 103.305C87.8383 103.145 87.7683 102.985 87.9881 102.865L89.8461 101.786L90.006 101.726Z" fill="#1DB099"/>
<path d="M97.8077 93.1742L98.1273 93.344C99.416 94.0833 100.695 94.8326 101.973 95.552C102.253 95.7118 102.333 95.8617 102.173 96.1614C101.883 96.7009 101.614 97.2604 101.344 97.8199C101.224 98.0597 101.104 98.1596 100.824 97.9997C99.4925 97.2005 98.1307 96.4112 96.7388 95.6319C96.4291 95.4621 96.3892 95.3022 96.5789 95.0025C96.9086 94.493 97.1783 93.9534 97.478 93.4239C97.5479 93.304 97.598 93.1542 97.8077 93.1742Z" fill="#1DB099"/>
</svg>
