<svg width="152" height="152" viewBox="0 0 152 152" fill="none" xmlns="http://www.w3.org/2000/svg">
<path fill-rule="evenodd" clip-rule="evenodd" d="M113.059 13.7823C98.7644 4.92104 81.8639 1.35627 65.2529 3.69875C48.642 6.04122 33.3547 14.1451 22.0102 26.622C10.6658 39.0988 3.97052 55.1718 3.07155 72.0871C2.17257 89.0024 7.12584 105.707 17.0827 119.339C27.0396 132.97 41.3802 142.68 57.6474 146.805C73.9146 150.93 91.0959 149.213 106.247 141.948C121.398 134.683 133.577 122.323 140.695 106.985C141.043 106.235 141.927 105.912 142.669 106.264C143.411 106.615 143.73 107.507 143.382 108.257C135.972 124.225 123.293 137.093 107.52 144.656C91.7465 152.219 73.8599 154.007 56.9248 149.712C39.9897 145.418 25.0603 135.309 14.6946 121.118C4.32897 106.927 -0.82766 89.5362 0.108227 71.9265C1.04411 54.3167 8.0143 37.5838 19.8245 24.5947C31.6346 11.6056 47.5497 3.16896 64.8426 0.730306C82.1355 -1.70834 99.7299 2.00278 114.611 11.2278C129.492 20.4529 140.734 34.6176 146.41 51.295C146.676 52.0777 146.264 52.9303 145.489 53.1994C144.714 53.4684 143.87 53.052 143.603 52.2693C138.151 36.2496 127.353 22.6435 113.059 13.7823ZM71.9824 17.3621C73.1778 16.862 74.459 16.6046 75.7528 16.6046H75.9209C77.2147 16.6046 78.4959 16.862 79.6913 17.3621C80.8867 17.8621 81.9728 18.5951 82.8877 19.5191C83.8026 20.4432 84.5282 21.5401 85.0234 22.7474C85.5185 23.9547 85.7734 25.2486 85.7734 26.5554V26.5854H94.8838C95.2107 26.5854 95.5343 26.6508 95.8359 26.7779C96.1374 26.9049 96.4112 27.0911 96.6413 27.3258C96.8714 27.5606 97.0529 27.8389 97.1756 28.1446C97.2891 28.4273 97.3503 28.7284 97.3564 29.0332H107.985C108.756 29.0179 109.522 29.1551 110.241 29.4369C110.965 29.7208 111.627 30.1462 112.189 30.6887C112.751 31.2311 113.201 31.88 113.514 32.5982C113.827 33.3166 113.997 34.0902 114.014 34.8747L114.015 34.8912V124.562L114.014 124.578C113.997 125.363 113.827 126.136 113.514 126.855C113.201 127.573 112.751 128.222 112.189 128.764C111.627 129.307 110.965 129.732 110.241 130.016C109.522 130.298 108.756 130.435 107.985 130.42H42.4227C41.6519 130.435 40.8854 130.298 40.1665 130.016C39.442 129.732 38.7802 129.306 38.2186 128.764C37.657 128.222 37.2068 127.573 36.8935 126.855C36.5803 126.136 36.4102 125.363 36.3931 124.578L36.3927 124.562V34.8912L36.3931 34.8747C36.4102 34.09 36.5803 33.3164 36.8935 32.5982C37.2067 31.88 37.657 31.2311 38.2186 30.6887C38.7802 30.1462 39.4421 29.7209 40.1665 29.4369C40.8854 29.1551 41.6519 29.0179 42.4227 29.0332H54.3075C54.3203 28.3885 54.5795 27.7734 55.0314 27.317C55.4951 26.8486 56.124 26.5854 56.78 26.5854H65.9005V26.5554C65.9005 25.2487 66.1553 23.9548 66.6504 22.7474C67.1455 21.5401 67.8712 20.4432 68.7861 19.5191C69.701 18.5951 70.7871 17.8621 71.9824 17.3621ZM54.307 32.0304H42.3904L42.3736 32.03C41.9865 32.0212 41.6013 32.0895 41.2403 32.231C40.8794 32.3725 40.5495 32.5845 40.2697 32.8548C39.9898 33.1251 39.7655 33.4484 39.6093 33.8064C39.4552 34.1598 39.3706 34.5401 39.3603 34.9259V124.527C39.3706 124.913 39.4552 125.293 39.6093 125.646C39.7654 126.004 39.9898 126.328 40.2697 126.598C40.5496 126.868 40.8794 127.08 41.2403 127.222C41.6013 127.363 41.9864 127.432 42.3736 127.423L42.3904 127.422H108.017L108.034 127.423C108.421 127.432 108.806 127.363 109.167 127.222C109.528 127.08 109.858 126.868 110.138 126.598C110.418 126.328 110.642 126.004 110.798 125.646C110.952 125.293 111.037 124.913 111.047 124.527V34.9259C111.037 34.5399 110.952 34.1596 110.798 33.8064C110.642 33.4484 110.418 33.1251 110.138 32.8548C109.858 32.5846 109.528 32.3726 109.167 32.231C108.806 32.0895 108.421 32.0212 108.034 32.03L108.017 32.0304H97.3568V36.796H106.432C106.773 36.7901 107.111 36.8506 107.429 36.974C107.754 37.1002 108.051 37.2899 108.304 37.5323C108.556 37.7747 108.759 38.0649 108.9 38.3863C109.042 38.7079 109.119 39.0543 109.128 39.4059L109.128 39.4247V122.656L109.128 122.674C109.11 123.383 108.816 124.056 108.309 124.547C107.806 125.034 107.134 125.302 106.438 125.294H43.9601C43.6172 125.298 43.2767 125.235 42.9575 125.108C42.6337 124.979 42.3381 124.787 42.0877 124.542C41.837 124.297 41.637 124.005 41.4985 123.683C41.3598 123.361 41.2855 123.013 41.2796 122.662L41.2794 122.649V39.431L41.2796 39.4184C41.2855 39.0666 41.3601 38.719 41.4999 38.3956C41.6395 38.0728 41.841 37.781 42.0929 37.5372C42.3447 37.2934 42.6419 37.1025 42.9673 36.9753C43.2854 36.851 43.6244 36.7901 43.9654 36.796H54.307V32.0304ZM54.307 39.7932H44.247V122.297H106.161V39.7932H97.3568V39.8831C97.3568 40.5454 97.0965 41.1807 96.6326 41.6493C96.1687 42.1177 95.5396 42.3808 94.8838 42.3808H56.78C56.124 42.3808 55.4951 42.1176 55.0314 41.6493C54.5679 41.1811 54.307 40.5459 54.307 39.8831V39.7932ZM75.7528 19.6019C74.8487 19.6019 73.9534 19.7817 73.1181 20.1312C72.2828 20.4806 71.5238 20.9928 70.8845 21.6385C70.2452 22.2842 69.7381 23.0507 69.3921 23.8944C69.0461 24.738 68.8681 25.6422 68.8681 26.5554V29.5826H57.2746V39.3836H94.3892V29.5826H82.8058V26.5554C82.8058 25.6423 82.6277 24.7381 82.2817 23.8944C81.9357 23.0507 81.4286 22.2842 80.7893 21.6385C80.1499 20.9928 79.391 20.4806 78.5557 20.1312C77.7204 19.7817 76.8251 19.6019 75.9209 19.6019H75.7528ZM76.3354 23.0299C76.095 22.9294 75.8305 22.903 75.5752 22.9543C75.3201 23.0056 75.0857 23.1321 74.9017 23.318C74.7176 23.5038 74.5923 23.7406 74.5416 23.9983C74.4908 24.2559 74.5169 24.5231 74.6165 24.7661C74.7161 25.009 74.8847 25.2165 75.101 25.3624C75.3173 25.5084 75.5717 25.5863 75.8319 25.5863C76.1808 25.5863 76.5155 25.4463 76.7622 25.1971C77.009 24.9479 77.1476 24.6098 77.1476 24.2575C77.1476 23.9949 77.0705 23.738 76.9258 23.5193C76.7812 23.3008 76.5757 23.1305 76.3354 23.0299ZM74.9963 20.0147C75.8272 19.8477 76.6884 19.9334 77.4711 20.2608C78.2538 20.5883 78.9227 21.1428 79.3933 21.8542C79.8638 22.5654 80.1152 23.4017 80.1152 24.2575C80.1152 25.405 79.6638 26.5053 78.8606 27.3165C78.0574 28.1278 76.9679 28.5836 75.8319 28.5836C74.9848 28.5836 74.1567 28.3299 73.4523 27.8545C72.7478 27.3791 72.199 26.7034 71.8748 25.9131C71.5507 25.1227 71.4657 24.2529 71.631 23.4136C71.7963 22.5744 72.2043 21.8036 72.8033 21.1986C73.4022 20.5936 74.1654 20.1816 74.9963 20.0147ZM49.925 50.903H66.1774V52.8442L67.9692 51.3925C68.6084 50.8746 69.5423 50.9781 70.0551 51.6237C70.5679 52.2693 70.4654 53.2125 69.8262 53.7304L66.1774 56.6867V67.5376H49.925V50.903ZM63.2098 55.2486V53.9002H52.8925V64.5404H63.2098V59.091L57.7772 63.4925L53.6034 57.8548C53.1127 57.192 53.2469 56.2528 53.9032 55.7572C54.5595 55.2616 55.4894 55.3971 55.9801 56.06L58.3152 59.2142L63.2098 55.2486ZM74.635 53.9102C74.635 53.0825 75.2993 52.4116 76.1188 52.4116H100.592C101.411 52.4116 102.075 53.0825 102.075 53.9102C102.075 54.7379 101.411 55.4088 100.592 55.4088H76.1188C75.2993 55.4088 74.635 54.7379 74.635 53.9102ZM74.635 59.2253C74.635 58.3976 75.2993 57.7267 76.1188 57.7267H100.592C101.411 57.7267 102.075 58.3976 102.075 59.2253C102.075 60.053 101.411 60.7239 100.592 60.7239H76.1188C75.2993 60.7239 74.635 60.053 74.635 59.2253ZM148.498 65.9591C148.471 65.9591 148.449 65.9815 148.449 66.009C148.449 66.0366 148.471 66.059 148.498 66.059C148.526 66.059 148.548 66.0366 148.548 66.009C148.548 65.9814 148.526 65.9591 148.498 65.9591ZM145.481 66.009C145.481 64.3261 146.832 62.9619 148.498 62.9619C150.165 62.9619 151.515 64.3261 151.515 66.009C151.515 67.6919 150.165 69.0562 148.498 69.0562C146.832 69.0562 145.481 67.692 145.481 66.009ZM74.635 64.5304C74.635 63.7027 75.2993 63.0318 76.1188 63.0318H100.592C101.411 63.0318 102.075 63.7027 102.075 64.5304C102.075 65.3581 101.411 66.029 100.592 66.029H76.1188C75.2993 66.029 74.635 65.3581 74.635 64.5304ZM49.925 74.1316H66.1774V76.0728L67.9692 74.621C68.6085 74.1031 69.5423 74.2067 70.0551 74.8523C70.5679 75.4979 70.4654 76.4411 69.8261 76.959L66.1774 79.9152V90.7662H49.925V74.1316ZM63.2098 78.4772V77.1288H52.8925V87.769H63.2098V82.3196L57.7772 86.7211L53.6034 81.0834C53.1127 80.4205 53.2469 79.4814 53.9032 78.9858C54.5595 78.4901 55.4894 78.6257 55.9801 79.2885L58.3152 82.4427L63.2098 78.4772ZM74.635 77.1388C74.635 76.3111 75.2993 75.6402 76.1188 75.6402H100.592C101.411 75.6402 102.075 76.3111 102.075 77.1388C102.075 77.9664 101.411 78.6374 100.592 78.6374H76.1188C75.2993 78.6374 74.635 77.9664 74.635 77.1388ZM148.983 80.096C148.956 80.096 148.933 80.1184 148.933 80.146C148.933 80.1736 148.956 80.196 148.983 80.196C149.01 80.196 149.032 80.1736 149.032 80.146C149.032 80.1184 149.01 80.096 148.983 80.096ZM145.966 80.146C145.966 78.4631 147.317 77.0988 148.983 77.0988C150.649 77.0988 152 78.4631 152 80.146C152 81.8289 150.649 83.1932 148.983 83.1932C147.317 83.1932 145.966 81.8289 145.966 80.146ZM74.635 82.4539C74.635 81.6262 75.2993 80.9553 76.1188 80.9553H100.592C101.411 80.9553 102.075 81.6262 102.075 82.4539C102.075 83.2815 101.411 83.9525 100.592 83.9525H76.1188C75.2993 83.9525 74.635 83.2815 74.635 82.4539ZM74.635 87.759C74.635 86.9313 75.2993 86.2604 76.1188 86.2604H100.592C101.411 86.2604 102.075 86.9313 102.075 87.759C102.075 88.5866 101.411 89.2576 100.592 89.2576H76.1188C75.2993 89.2576 74.635 88.5866 74.635 87.759ZM146.856 94.3629C146.829 94.3629 146.807 94.3853 146.807 94.4128C146.807 94.4404 146.829 94.4628 146.856 94.4628C146.884 94.4628 146.906 94.4404 146.906 94.4128C146.906 94.3853 146.884 94.3629 146.856 94.3629ZM143.839 94.4128C143.839 92.7299 145.19 91.3656 146.856 91.3656C148.522 91.3656 149.873 92.7299 149.873 94.4128C149.873 96.0958 148.522 97.46 146.856 97.46C145.19 97.46 143.839 96.0958 143.839 94.4128ZM49.925 97.3601H66.1774V99.3014L67.9692 97.8496C68.6085 97.3317 69.5423 97.4352 70.0551 98.0809C70.5679 98.7265 70.4654 99.6697 69.8261 100.188L66.1774 103.144V113.995H49.925V97.3601ZM63.2098 101.706V100.357H52.8925V110.998H63.2098V105.548L57.7772 109.95L53.6034 104.312C53.1127 103.649 53.2469 102.71 53.9032 102.214C54.5595 101.719 55.4894 101.854 55.9801 102.517L58.3152 105.671L63.2098 101.706ZM74.635 100.367C74.635 99.5397 75.2993 98.8687 76.1188 98.8687H100.592C101.411 98.8687 102.075 99.5397 102.075 100.367C102.075 101.195 101.411 101.866 100.592 101.866H76.1188C75.2993 101.866 74.635 101.195 74.635 100.367ZM74.635 105.672C74.635 104.845 75.2993 104.174 76.1188 104.174H100.592C101.411 104.174 102.075 104.845 102.075 105.672C102.075 106.5 101.411 107.171 100.592 107.171H76.1188C75.2993 107.171 74.635 106.5 74.635 105.672ZM74.635 110.988C74.635 110.16 75.2993 109.489 76.1188 109.489H100.592C101.411 109.489 102.075 110.16 102.075 110.988C102.075 111.815 101.411 112.486 100.592 112.486H76.1188C75.2993 112.486 74.635 111.815 74.635 110.988Z" fill="#1DB099"/>
</svg>
