<svg width="50" height="52" viewBox="0 0 50 52" fill="none" xmlns="http://www.w3.org/2000/svg">
<path fill-rule="evenodd" clip-rule="evenodd" d="M17.6788 6.54627C12.907 8.21947 8.86154 11.476 6.22424 15.767C3.58694 20.0581 2.51901 25.1213 3.20043 30.1034C3.88184 35.0854 6.27094 39.6818 9.9651 43.1179C13.6593 46.554 18.4326 48.6197 23.4808 48.967C28.5289 49.3142 33.5432 47.9217 37.6786 45.0241C41.8141 42.1265 44.8178 37.901 46.1835 33.0597C47.5493 28.2184 47.1937 23.0573 45.1766 18.4462C44.8464 17.6913 45.1946 16.8133 45.9544 16.4852C46.7141 16.1571 47.5977 16.5031 47.928 17.258C50.2201 22.4979 50.6242 28.3628 49.0722 33.8643C47.5202 39.3657 44.1069 44.1674 39.4075 47.4601C34.7082 50.7528 29.0101 52.3352 23.2736 51.9407C17.5371 51.5461 12.1128 49.1987 7.91488 45.2941C3.71697 41.3894 1.00209 36.1662 0.227752 30.5048C-0.546584 24.8433 0.666971 19.0896 3.6639 14.2135C6.66083 9.3373 11.2579 5.63671 16.6804 3.73534C22.1029 1.83397 28.0194 1.84806 33.4326 3.77525C34.2125 4.0529 34.6182 4.90615 34.3388 5.68105C34.0593 6.45594 33.2006 6.85904 32.4207 6.58139C27.657 4.88547 22.4506 4.87306 17.6788 6.54627Z" fill="url(#paint0_linear_25_25)"/>
<path fill-rule="evenodd" clip-rule="evenodd" d="M47.257 0.253418C47.9446 0.712444 48.1276 1.63845 47.6656 2.32171L26.1924 34.0802C25.1434 35.6317 22.8106 35.5196 21.9172 33.8748L16.8242 24.4984C16.4308 23.774 16.7028 22.8698 17.4319 22.4789C18.1609 22.088 19.0708 22.3583 19.4643 23.0826L24.164 31.735L45.1754 0.659427C45.6374 -0.023832 46.5693 -0.205608 47.257 0.253418Z" fill="url(#paint1_linear_25_25)"/>
<defs>
<linearGradient id="paint0_linear_25_25" x1="25" y1="1.56003" x2="25" y2="50.44" gradientUnits="userSpaceOnUse">
<stop stop-color="#5B8DF4"/>
<stop offset="1" stop-color="#15B39B"/>
<stop offset="1" stop-color="#15B39B"/>
</linearGradient>
<linearGradient id="paint1_linear_25_25" x1="36.0372" y1="-1.27538" x2="26.3141" y2="35.2251" gradientUnits="userSpaceOnUse">
<stop stop-color="#15B39B"/>
<stop offset="1" stop-color="#5B8DF4"/>
</linearGradient>
</defs>
</svg>
