<svg width="214" height="20" viewBox="0 0 214 20" fill="none" xmlns="http://www.w3.org/2000/svg">
<g opacity="0.5">
<path d="M19 9.99608C16.4804 9.99608 14.0641 11.0501 12.2825 12.9262C10.5009 14.8023 9.5 17.3468 9.5 20C9.5 17.3468 8.49911 14.8023 6.71751 12.9262C4.93592 11.0501 2.51956 9.99608 0 9.99608C2.51812 9.99557 4.93307 8.9425 6.71435 7.0682C8.49562 5.19391 9.49754 2.65169 9.5 0C9.50246 2.65169 10.5044 5.19391 12.2857 7.0682C14.0669 8.9425 16.4819 9.99557 19 9.99608Z" fill="#15B39B"/>
<path d="M58 9.99608C55.4804 9.99608 53.0641 11.0501 51.2825 12.9262C49.5009 14.8023 48.5 17.3468 48.5 20C48.5 17.3468 47.4991 14.8023 45.7175 12.9262C43.9359 11.0501 41.5196 9.99608 39 9.99608C41.5181 9.99557 43.9331 8.9425 45.7143 7.0682C47.4956 5.19391 48.4975 2.65169 48.5 0C48.5025 2.65169 49.5044 5.19391 51.2857 7.0682C53.0669 8.9425 55.4819 9.99557 58 9.99608Z" fill="#15B39B"/>
<path d="M97 9.99608C94.4804 9.99608 92.0641 11.0501 90.2825 12.9262C88.5009 14.8023 87.5 17.3468 87.5 20C87.5 17.3468 86.4991 14.8023 84.7175 12.9262C82.9359 11.0501 80.5196 9.99608 78 9.99608C80.5181 9.99557 82.9331 8.9425 84.7143 7.0682C86.4956 5.19391 87.4975 2.65169 87.5 0C87.5025 2.65169 88.5044 5.19391 90.2857 7.0682C92.0669 8.9425 94.4819 9.99557 97 9.99608Z" fill="#15B39B"/>
<path d="M136 9.99608C133.48 9.99608 131.064 11.0501 129.282 12.9262C127.501 14.8023 126.5 17.3468 126.5 20C126.5 17.3468 125.499 14.8023 123.718 12.9262C121.936 11.0501 119.52 9.99608 117 9.99608C119.518 9.99557 121.933 8.9425 123.714 7.0682C125.496 5.19391 126.498 2.65169 126.5 0C126.502 2.65169 127.504 5.19391 129.286 7.0682C131.067 8.9425 133.482 9.99557 136 9.99608Z" fill="#15B39B"/>
<path d="M175 9.99608C172.48 9.99608 170.064 11.0501 168.282 12.9262C166.501 14.8023 165.5 17.3468 165.5 20C165.5 17.3468 164.499 14.8023 162.718 12.9262C160.936 11.0501 158.52 9.99608 156 9.99608C158.518 9.99557 160.933 8.9425 162.714 7.0682C164.496 5.19391 165.498 2.65169 165.5 0C165.502 2.65169 166.504 5.19391 168.286 7.0682C170.067 8.9425 172.482 9.99557 175 9.99608Z" fill="#15B39B"/>
<path d="M214 9.99608C211.48 9.99608 209.064 11.0501 207.282 12.9262C205.501 14.8023 204.5 17.3468 204.5 20C204.5 17.3468 203.499 14.8023 201.718 12.9262C199.936 11.0501 197.52 9.99608 195 9.99608C197.518 9.99557 199.933 8.9425 201.714 7.0682C203.496 5.19391 204.498 2.65169 204.5 0C204.502 2.65169 205.504 5.19391 207.286 7.0682C209.067 8.9425 211.482 9.99557 214 9.99608Z" fill="#15B39B"/>
</g>
</svg>
