<svg width="93" height="93" viewBox="0 0 93 93" fill="none" xmlns="http://www.w3.org/2000/svg">
<path fill-rule="evenodd" clip-rule="evenodd" d="M49.5756 3.10414C39.5941 2.39672 29.6739 5.15182 21.4867 10.9051C13.2995 16.6585 7.34589 25.0583 4.62923 34.689C1.91257 44.3197 2.59893 54.5925 6.57264 63.7762C10.5464 72.9599 17.5645 80.493 26.4443 85.1061C35.3241 89.7191 45.5227 91.13 55.3214 89.101C65.1201 87.072 73.9197 81.7271 80.2375 73.9672C86.5552 66.2072 90.0048 56.5065 90.0048 46.5C90.0048 45.6729 90.6753 45.0024 91.5024 45.0024C92.3295 45.0024 93 45.6729 93 46.5C93 57.1955 89.313 67.564 82.5603 75.8582C75.8076 84.1525 66.402 89.8653 55.9287 92.034C45.4554 94.2027 34.5547 92.6947 25.0635 87.764C15.5723 82.8334 8.071 74.7816 3.8237 64.9657C-0.423604 55.1497 -1.15722 44.1696 1.74648 33.8758C4.65018 23.582 11.0137 14.6039 19.7645 8.45448C28.5154 2.30505 39.1187 -0.639733 49.7874 0.116398C60.4561 0.872529 70.5381 5.28335 78.3341 12.6055C78.937 13.1718 78.9667 14.1195 78.4005 14.7224C77.8342 15.3253 76.8865 15.355 76.2836 14.7888C68.9897 7.93827 59.5571 3.81157 49.5756 3.10414Z" fill="url(#paint0_linear_28_174)"/>
<ellipse cx="87.9569" cy="28.1556" rx="1.49762" ry="1.49762" transform="rotate(48.878 87.9569 28.1556)" fill="url(#paint1_linear_28_174)"/>
<ellipse cx="83.5516" cy="20.0733" rx="1.49762" ry="1.49762" transform="rotate(48.878 83.5516 20.0733)" fill="url(#paint2_linear_28_174)"/>
<ellipse cx="90.8581" cy="37.5511" rx="1.49762" ry="1.49762" transform="rotate(48.878 90.8581 37.5511)" fill="url(#paint3_linear_28_174)"/>
<path d="M49.6772 43.593C49.4051 43.5815 49.1336 43.6286 48.8812 43.7312C48.6288 43.8338 48.4014 43.9895 48.2142 44.1878C47.894 44.5611 47.7223 45.0394 47.7318 45.5314C47.7406 45.9257 47.8652 46.3086 48.0899 46.6324C48.3146 46.9562 48.6295 47.2065 48.9953 47.3521C49.3611 47.4977 49.7617 47.5321 50.1469 47.451C50.5321 47.37 50.885 47.177 51.1614 46.8963C51.4831 46.5257 51.6568 46.049 51.6491 45.558C51.6604 45.296 51.6171 45.0345 51.5219 44.7902C51.4267 44.546 51.2817 44.3243 51.0961 44.1394C50.9105 43.9544 50.6885 43.8103 50.4442 43.7162C50.1998 43.6222 49.9386 43.5802 49.6772 43.593Z" fill="#15B39B"/>
<path d="M41.9116 38.8505C42.1846 38.8621 42.4568 38.8151 42.7101 38.7125C42.9633 38.6099 43.1917 38.4541 43.3799 38.2557C43.7008 37.8846 43.8743 37.4083 43.8676 36.9174C43.8783 36.6554 43.8343 36.394 43.7384 36.15C43.6425 35.906 43.4969 35.6847 43.3108 35.5003C43.1247 35.3159 42.9023 35.1724 42.6577 35.0789C42.4132 34.9855 42.1518 34.9443 41.8904 34.9578C41.6286 34.9382 41.3656 34.9741 41.1186 35.0633C40.8716 35.1525 40.6462 35.2929 40.4571 35.4754C40.268 35.6579 40.1194 35.8782 40.0211 36.1222C39.9229 36.3661 39.8771 36.628 39.8867 36.8909C39.8796 37.1561 39.9277 37.4199 40.0278 37.6654C40.128 37.911 40.2781 38.133 40.4685 38.3174C40.659 38.5017 40.8856 38.6443 41.1341 38.7361C41.3825 38.8279 41.6473 38.8668 41.9116 38.8505Z" fill="#15B39B"/>
<path d="M45.7334 25.7437C42.6829 25.7479 39.7021 26.6579 37.1676 28.3587C34.6331 30.0595 32.6587 32.4748 31.4937 35.2994C30.3288 38.124 30.0256 41.2311 30.6225 44.2283C31.2194 47.2254 32.6897 49.9781 34.8474 52.1384C37.0052 54.2988 39.7537 55.7699 42.7456 56.3659C45.7375 56.9619 48.8387 56.656 51.6572 55.4869C54.4756 54.3178 56.885 52.338 58.5809 49.7975C60.2767 47.2571 61.183 44.2701 61.1851 41.2138C61.1844 39.1816 60.7841 37.1693 60.0072 35.292C59.2304 33.4147 58.092 31.7091 56.6572 30.2726C55.2224 28.8361 53.5192 27.6967 51.6449 26.9197C49.7706 26.1426 47.7619 25.743 45.7334 25.7437ZM39.0598 34.4055C39.421 34.0268 39.858 33.7288 40.3422 33.5311C40.8263 33.3334 41.3467 33.2405 41.8692 33.2584C42.3611 33.2336 42.8527 33.3103 43.3138 33.4838C43.7748 33.6573 44.1953 33.9239 44.5492 34.267C44.9031 34.6101 45.1828 35.0224 45.371 35.4784C45.5593 35.9343 45.6519 36.4241 45.6433 36.9175C45.6523 37.8427 45.3136 38.7375 44.6945 39.4241C44.3315 39.8049 43.8919 40.104 43.4049 40.3018C42.9178 40.4995 42.3944 40.5914 41.8692 40.5712C41.379 40.5954 40.889 40.5182 40.4298 40.3445C39.9706 40.1708 39.552 39.9044 39.2 39.5617C38.848 39.219 38.5701 38.8074 38.3837 38.3525C38.1973 37.8976 38.1062 37.4091 38.1163 36.9175C38.1103 35.9882 38.4549 35.091 39.081 34.4055H39.0598ZM41.3762 47.4858C41.1926 47.6665 40.9495 47.7741 40.6924 47.7885H39.1022C38.8796 47.7885 38.816 47.6557 38.9697 47.4858L50.1914 34.979C50.3769 34.8002 50.6185 34.6914 50.8751 34.671L52.4654 34.6392C52.6933 34.6392 52.7516 34.7719 52.6032 34.9366L41.3762 47.4858ZM52.4283 48.0168C52.0711 48.3891 51.6395 48.6818 51.1619 48.8758C50.6842 49.0698 50.1711 49.1607 49.656 49.1427C49.1747 49.1653 48.694 49.0887 48.2435 48.9176C47.793 48.7465 47.3823 48.4846 47.0369 48.1481C46.6916 47.8115 46.4189 47.4075 46.2357 46.9611C46.0525 46.5146 45.9627 46.0353 45.972 45.5527C45.9611 45.0699 46.0498 44.59 46.2325 44.1431C46.4152 43.6962 46.688 43.2919 47.0338 42.9554C47.3795 42.619 47.7909 42.3576 48.2421 42.1877C48.6933 42.0178 49.1746 41.943 49.656 41.9679C50.1388 41.9424 50.6216 42.0166 51.0745 42.1859C51.5275 42.3553 51.9408 42.6162 52.2888 42.9524C52.6368 43.2886 52.9121 43.693 53.0975 44.1403C53.2829 44.5876 53.3744 45.0684 53.3665 45.5527C53.3808 46.4603 53.0534 47.3401 52.4495 48.0168H52.4283Z" fill="#15B39B"/>
<path d="M65.696 47.6929C66.4063 45.4995 69.7193 43.6302 69.7193 41.1979C69.7193 38.7656 66.4063 36.9015 65.696 34.7082C64.9857 32.5149 66.5176 28.9779 65.1659 27.0873C63.8142 25.1967 60.003 25.6003 58.1 24.2089C56.1971 22.8175 55.4497 19.1 53.1863 18.3671C50.9229 17.6342 48.2036 20.2046 45.7653 20.2046C43.3269 20.2046 40.5493 17.6555 38.3442 18.3671C36.1391 19.0788 35.3175 22.8387 33.4304 24.2089C31.5434 25.5791 27.7534 25.1808 26.3646 27.0873C24.9758 28.9938 26.5448 32.4405 25.8345 34.7082C25.1242 36.9759 21.8112 38.7709 21.8112 41.1979C21.8112 43.6249 25.1242 45.4995 25.8345 47.6929C26.5448 49.8862 25.0129 53.4231 26.3646 55.3137C27.7163 57.2043 31.5275 56.8007 33.4304 58.1921C35.3334 59.5835 36.0808 63.301 38.3442 64.0339C40.6076 64.7668 43.3269 62.1964 45.7653 62.1964C48.2036 62.1964 50.9865 64.7456 53.1863 64.0339C55.3861 63.3223 56.213 59.5623 58.1 58.1921C59.9871 56.822 63.7771 57.2203 65.1659 55.3137C66.5547 53.4072 64.9592 49.9605 65.696 47.6929ZM45.7334 58.9728C42.2247 58.9686 38.796 57.9222 35.8809 55.9658C32.9658 54.0094 30.6951 51.2309 29.356 47.9817C28.0169 44.7324 27.6695 41.1583 28.3578 37.7113C29.046 34.2642 30.739 31.0991 33.2226 28.616C35.7062 26.1328 38.869 24.4433 42.311 23.761C45.753 23.0787 49.3196 23.4342 52.56 24.7826C55.8003 26.131 58.5688 28.4117 60.5154 31.3364C62.462 34.2611 63.4993 37.6985 63.4962 41.2138C63.4878 45.9276 61.6124 50.4454 58.282 53.7751C54.9516 57.1048 50.4384 58.9742 45.7334 58.9728Z" fill="#15B39B"/>
<path d="M24.1645 76.8088C24.0406 76.675 23.9445 76.5177 23.8819 76.3462C23.8193 76.1747 23.7915 75.9924 23.8001 75.8099C23.8552 75.3186 24.0214 74.8464 24.286 74.4292C24.4786 74.0355 24.755 73.6889 25.0958 73.414C25.2466 73.317 25.4154 73.2512 25.592 73.2205C25.7686 73.1898 25.9495 73.1949 26.1242 73.2354C26.6541 73.3607 27.1601 73.5719 27.6223 73.8607L29.5333 74.949L30.1083 73.9257C30.2327 73.742 30.2925 73.5219 30.2783 73.3003C30.2433 73.0903 30.1341 72.9001 29.9706 72.7643C29.6928 72.5306 29.3916 72.3265 29.0718 72.1552C28.3375 71.7434 27.5775 71.3799 26.7963 71.0669L27.2903 70.1979C28.208 70.6094 29.0178 71.0155 29.7196 71.4161C30.2795 71.7102 30.797 72.079 31.2581 72.5125C31.3907 72.6382 31.4947 72.791 31.5632 72.9606C31.6317 73.1301 31.663 73.3125 31.6549 73.4953C31.5854 73.9881 31.4085 74.4595 31.1367 74.8759L28.5859 79.3996L27.436 78.7499L27.7842 78.1408C27.4036 78.5794 26.6262 78.4575 25.444 77.7916C24.9706 77.5305 24.5392 77.1992 24.1645 76.8088ZM26.108 77.1093C26.4725 77.3238 26.8578 77.5007 27.2579 77.6373C27.6951 77.7834 27.9948 77.7103 28.1648 77.4261L29.1527 75.68L27.2822 74.6404C27.0147 74.469 26.7225 74.3402 26.4157 74.2587C26.3259 74.2377 26.2323 74.2393 26.1433 74.2634C26.0543 74.2875 25.9726 74.3333 25.9055 74.3968C25.7034 74.6132 25.5317 74.8564 25.3954 75.1196C25.2457 75.3716 25.1364 75.6457 25.0715 75.9317C25.0539 76.0286 25.0556 76.1279 25.0765 76.2241C25.0973 76.3202 25.1369 76.4114 25.1929 76.4921C25.3701 76.7091 25.5908 76.8861 25.8408 77.0119L26.108 77.1093Z" fill="#15B39B"/>
<path d="M34.1897 73.7875L35.4934 74.1692L34.6189 77.2148C34.7418 77.2595 34.8765 77.2595 34.9995 77.2148C35.1489 77.1651 35.2928 77.0998 35.4286 77.0199L38.6677 75.0708L40.2873 75.5336L36.125 77.9701C36.3078 78.1194 36.4545 78.3082 36.5542 78.5224C36.7243 78.8311 36.9672 79.3346 37.283 79.9681L38.6191 82.7294L36.9996 82.2583L35.7121 79.5132C35.5596 79.1785 35.3694 78.8624 35.1452 78.5712C35.0428 78.4469 34.929 78.3327 34.8051 78.23C34.7354 78.1833 34.6589 78.1476 34.5784 78.1244L34.4245 78.0838L33.5095 81.2431L32.141 80.8533L34.1897 73.7875Z" fill="#15B39B"/>
<path d="M47.389 83.2167L41.178 83.0299L41.4048 75.7205H42.7652L42.5708 82.0634L46.1905 82.1772L46.3849 75.8261L47.7453 75.8748L47.5267 82.2178H48.5551L48.4741 85.1009H47.308L47.389 83.2167Z" fill="#15B39B"/>
<path d="M56.499 74.088L58.2319 81.2269L56.9119 81.5518L55.6244 76.2809L53.1951 82.4614L51.8751 82.7863L50.1341 75.6392L51.4541 75.3144L52.7821 80.764L55.2114 74.3885L56.499 74.088Z" fill="#15B39B"/>
<path d="M64.1918 70.1247L67.771 76.622L66.5725 77.2798L63.9651 72.5368L63.2363 79.1316L62.0378 79.7894L58.4991 73.3489L59.6976 72.6911L62.3941 77.564L63.1067 70.7744L64.1918 70.1247Z" fill="#15B39B"/>
<defs>
<linearGradient id="paint0_linear_28_174" x1="46.5" y1="1.49767" x2="46.5" y2="91.5023" gradientUnits="userSpaceOnUse">
<stop stop-color="#5B8DF4"/>
<stop offset="1" stop-color="#15B39B"/>
<stop offset="1" stop-color="#15B39B"/>
</linearGradient>
<linearGradient id="paint1_linear_28_174" x1="87.9569" y1="26.6579" x2="87.9569" y2="29.6532" gradientUnits="userSpaceOnUse">
<stop stop-color="#5B8DF4"/>
<stop offset="1" stop-color="#15B39B"/>
<stop offset="1" stop-color="#15B39B"/>
</linearGradient>
<linearGradient id="paint2_linear_28_174" x1="83.5516" y1="18.5757" x2="83.5516" y2="21.5709" gradientUnits="userSpaceOnUse">
<stop stop-color="#5B8DF4"/>
<stop offset="1" stop-color="#15B39B"/>
<stop offset="1" stop-color="#15B39B"/>
</linearGradient>
<linearGradient id="paint3_linear_28_174" x1="90.8581" y1="36.0535" x2="90.8581" y2="39.0487" gradientUnits="userSpaceOnUse">
<stop stop-color="#5B8DF4"/>
<stop offset="1" stop-color="#15B39B"/>
<stop offset="1" stop-color="#15B39B"/>
</linearGradient>
</defs>
</svg>
