<svg width="55" height="55" viewBox="0 0 55 55" fill="none" xmlns="http://www.w3.org/2000/svg">
<rect width="55" height="55" rx="27.5" fill="url(#paint0_linear_42_178)"/>
<path fill-rule="evenodd" clip-rule="evenodd" d="M12.4484 27.2099C20.4653 23.7171 25.8111 21.4144 28.4858 20.3019C36.1229 17.1254 37.7098 16.5736 38.7441 16.5554C38.9716 16.5514 39.4803 16.6077 39.8098 16.8751C40.088 17.1008 40.1645 17.4058 40.2011 17.6198C40.2378 17.8339 40.2834 18.3214 40.2471 18.7024C39.8333 23.0508 38.0425 33.6032 37.1315 38.4735C36.746 40.5343 35.987 41.2253 35.2521 41.2929C33.6552 41.4398 32.4425 40.2375 30.8957 39.2236C28.4754 37.637 27.108 36.6494 24.7586 35.1012C22.0435 33.3119 23.8036 32.3286 25.351 30.7214C25.7559 30.3008 32.7922 23.9008 32.9284 23.3202C32.9454 23.2476 32.9613 22.9769 32.8005 22.834C32.6397 22.6911 32.4023 22.7399 32.2311 22.7788C31.9883 22.8339 28.1218 25.3896 20.6314 30.4458C19.5339 31.1994 18.5398 31.5666 17.6491 31.5473C16.6673 31.5261 14.7785 30.9922 13.3744 30.5357C11.6522 29.9759 10.2834 29.6799 10.4026 28.7292C10.4647 28.234 11.1466 27.7276 12.4484 27.2099Z" fill="white"/>
<defs>
<linearGradient id="paint0_linear_42_178" x1="27.5" y1="0" x2="27.5" y2="54.5921" gradientUnits="userSpaceOnUse">
<stop stop-color="#2AABEE"/>
<stop offset="1" stop-color="#229ED9"/>
</linearGradient>
</defs>
</svg>
