<svg width="85" height="6" viewBox="0 0 85 6" fill="none" xmlns="http://www.w3.org/2000/svg">
<path fill-rule="evenodd" clip-rule="evenodd" d="M0 4.5C0 5.05228 0.447715 5.5 1 5.5C2.16746 5.5 3.0816 5.28701 3.86158 4.94864C4.61023 4.62387 5.20369 4.1947 5.70796 3.83002C5.71705 3.82345 5.72611 3.8169 5.73514 3.81037C6.26233 3.4292 6.69833 3.11802 7.23283 2.88614C7.74948 2.66201 8.39129 2.5 9.29844 2.5C10.2056 2.5 10.8474 2.66201 11.3641 2.88614C11.8985 3.11801 12.3345 3.42919 12.8617 3.81037L12.8889 3.83002C13.3932 4.1947 13.9866 4.62387 14.7353 4.94864C15.5153 5.28701 16.4294 5.5 17.5969 5.5C18.7643 5.5 19.6785 5.28701 20.4584 4.94864C21.2071 4.62387 21.8005 4.19471 22.3048 3.83003L22.332 3.81037C22.8592 3.4292 23.2952 3.11802 23.8297 2.88614C24.3463 2.66201 24.9882 2.5 25.8953 2.5C26.8025 2.5 27.4443 2.66201 27.9609 2.88614C28.4954 3.11801 28.9314 3.42919 29.4586 3.81037L29.4858 3.83002C29.99 4.1947 30.5835 4.62387 31.3322 4.94864C32.1121 5.28701 33.0263 5.5 34.1937 5.5C35.3612 5.5 36.2753 5.28701 37.0553 4.94864C37.8039 4.62387 38.3974 4.1947 38.9017 3.83003L38.9289 3.81037C39.4561 3.42919 39.892 3.11801 40.4265 2.88614C40.9432 2.66201 41.585 2.5 42.4921 2.5C43.3993 2.5 44.0411 2.66201 44.5578 2.88614C45.0923 3.11802 45.5283 3.4292 46.0555 3.81037L46.0826 3.83003C46.5869 4.1947 47.1804 4.62387 47.929 4.94864C48.709 5.28701 49.6231 5.5 50.7906 5.5C51.9581 5.5 52.8722 5.28701 53.6522 4.94864C54.4008 4.62387 54.9943 4.1947 55.4985 3.83003L55.5257 3.81037C56.0529 3.42919 56.4889 3.11801 57.0234 2.88614C57.5401 2.66201 58.1819 2.5 59.089 2.5C59.9962 2.5 60.638 2.66201 61.1546 2.88614C61.6891 3.11802 62.1251 3.4292 62.6523 3.81037L62.6795 3.83003C63.1838 4.1947 63.7772 4.62387 64.5259 4.94864C65.3059 5.28701 66.22 5.5 67.3875 5.5C68.5549 5.5 69.4694 5.28701 70.2499 4.94881C70.9991 4.62416 71.5934 4.19517 72.0987 3.83048L72.1258 3.81089C72.654 3.42973 73.0911 3.11833 73.6265 2.88631C74.1441 2.66201 74.7866 2.5 75.6937 2.5C76.6009 2.5 77.2427 2.66201 77.7595 2.88617C78.2943 3.1181 78.7305 3.42934 79.2584 3.81063L79.2842 3.82931C79.7895 4.19434 80.384 4.62389 81.1345 4.94889C81.9154 5.28712 82.8309 5.5 84 5.5C84.5523 5.5 85 5.05228 85 4.5C85 3.94772 84.5523 3.5 84 3.5C83.0906 3.5 82.4471 3.33788 81.9293 3.11361C81.3937 2.88167 80.957 2.57039 80.4295 2.18937L80.4011 2.16885C79.8968 1.80448 79.3034 1.37579 78.5554 1.05133C77.7753 0.712992 76.8612 0.5 75.6937 0.5C74.5263 0.5 73.6118 0.712987 72.8313 1.05119C72.0821 1.37584 71.4878 1.80483 70.9825 2.16952L70.9554 2.18911C70.4272 2.57027 69.9901 2.88167 69.4547 3.11369C68.9371 3.33799 68.2946 3.5 67.3875 3.5C66.4803 3.5 65.8385 3.33799 65.3218 3.11386C64.7874 2.88198 64.3513 2.5708 63.8242 2.18963L63.797 2.16997C63.2927 1.8053 62.6992 1.37613 61.9506 1.05136C61.1706 0.712987 60.2565 0.5 59.089 0.5C57.9216 0.5 57.0074 0.712987 56.2274 1.05136C55.4788 1.37613 54.8853 1.8053 54.3811 2.16997L54.3539 2.18963C53.8267 2.57081 53.3907 2.88199 52.8562 3.11386C52.3396 3.33799 51.6977 3.5 50.7906 3.5C49.8834 3.5 49.2416 3.33799 48.725 3.11386C48.1905 2.88198 47.7545 2.5708 47.2273 2.18963L47.2001 2.16997C46.6958 1.8053 46.1024 1.37613 45.3537 1.05136C44.5737 0.712987 43.6596 0.5 42.4921 0.5C41.3247 0.5 40.4106 0.712987 39.6306 1.05136C38.8819 1.37613 38.2885 1.8053 37.7842 2.16997L37.757 2.18963C37.2298 2.57081 36.7938 2.88199 36.2593 3.11386C35.7427 3.33799 35.1009 3.5 34.1937 3.5C33.2866 3.5 32.6448 3.33799 32.1281 3.11386C31.5936 2.88199 31.1576 2.57081 30.6304 2.18963L30.6033 2.16998C30.099 1.8053 29.5055 1.37613 28.7569 1.05136C27.9769 0.712987 27.0628 0.5 25.8953 0.5C24.7279 0.5 23.8137 0.712987 23.0337 1.05136C22.2851 1.37613 21.6916 1.80529 21.1874 2.16997L21.1602 2.18963C20.633 2.5708 20.197 2.88198 19.6625 3.11386C19.1458 3.33799 18.504 3.5 17.5969 3.5C16.6897 3.5 16.0479 3.33799 15.5313 3.11386C14.9968 2.88199 14.5608 2.57081 14.0336 2.18963L14.0064 2.16998C13.5021 1.8053 12.9087 1.37613 12.16 1.05136C11.38 0.712987 10.4659 0.5 9.29844 0.5C8.13099 0.5 7.21685 0.712987 6.43687 1.05136C5.68822 1.37613 5.09476 1.8053 4.59048 2.16998C4.58139 2.17655 4.57233 2.1831 4.5633 2.18963C4.03611 2.5708 3.60011 2.88198 3.06562 3.11386C2.54897 3.33799 1.90715 3.5 1 3.5C0.447715 3.5 0 3.94772 0 4.5Z" fill="#98A1AE"/>
</svg>
