<svg width="55" height="55" viewBox="0 0 55 55" fill="none" xmlns="http://www.w3.org/2000/svg">
<rect width="55" height="55" rx="27.5" fill="url(#paint0_linear_42_171)"/>
<path d="M10.8189 43.4991L13.1769 34.9366C11.7191 32.4233 10.9543 29.5771 10.9623 26.6674C10.9623 17.5499 18.4186 10.137 27.5717 10.137C32.0168 10.137 36.191 11.8574 39.3217 14.9811C42.4604 18.1049 44.189 22.2593 44.181 26.6753C44.181 35.7928 36.7247 43.2058 27.5637 43.2058H27.5557C24.7756 43.2058 22.0432 42.5081 19.6135 41.192L10.8189 43.4991ZM20.0357 38.203L20.5376 38.5043C22.6566 39.757 25.0862 40.415 27.5637 40.423H27.5717C35.1793 40.423 41.377 34.2627 41.377 26.6833C41.377 23.0125 39.9431 19.5637 37.3381 16.9632C34.7332 14.3627 31.26 12.9356 27.5717 12.9356C19.964 12.9277 13.7664 19.088 13.7664 26.6674C13.7664 29.26 14.4913 31.7891 15.8774 33.9773L16.204 34.5005L14.8099 39.5667L20.0357 38.203Z" fill="white"/>
<path d="M11.4005 42.9205L13.6788 34.6513C12.2688 32.2331 11.5279 29.482 11.5279 26.6754C11.5359 17.875 18.7293 10.7158 27.5717 10.7158C31.8654 10.7158 35.8883 12.3808 38.9154 15.3935C41.9426 18.4062 43.6075 22.4179 43.6075 26.6834C43.6075 35.4837 36.4061 42.643 27.5717 42.643H27.5637C24.8791 42.643 22.2423 41.9691 19.9003 40.7005L11.4005 42.9205Z" fill="url(#paint1_linear_42_171)"/>
<path d="M10.8189 43.4991L13.1769 34.9366C11.7191 32.4233 10.9543 29.5771 10.9623 26.6674C10.9623 17.5499 18.4186 10.137 27.5717 10.137C32.0168 10.137 36.191 11.8574 39.3217 14.9811C42.4604 18.1049 44.189 22.2593 44.181 26.6753C44.181 35.7928 36.7247 43.2058 27.5637 43.2058H27.5557C24.7756 43.2058 22.0432 42.5081 19.6135 41.192L10.8189 43.4991ZM20.0357 38.203L20.5376 38.5043C22.6566 39.757 25.0862 40.415 27.5637 40.423H27.5717C35.1793 40.423 41.377 34.2627 41.377 26.6833C41.377 23.0125 39.9431 19.5637 37.3381 16.9632C34.7332 14.3627 31.26 12.9356 27.5717 12.9356C19.964 12.9277 13.7664 19.088 13.7664 26.6674C13.7664 29.26 14.4913 31.7891 15.8774 33.9773L16.204 34.5005L14.8099 39.5667L20.0357 38.203Z" fill="url(#paint2_linear_42_171)"/>
<path fill-rule="evenodd" clip-rule="evenodd" d="M23.4212 19.7539C23.1105 19.0642 22.7839 19.0483 22.4891 19.0404C22.2502 19.0325 21.9713 19.0325 21.6925 19.0325C21.4137 19.0325 20.9676 19.1355 20.5852 19.5478C20.2029 19.9601 19.1354 20.959 19.1354 22.9966C19.1354 25.0262 20.6251 26.9925 20.8322 27.2699C21.0393 27.5474 23.708 31.8525 27.922 33.5095C31.4271 34.889 32.1441 34.6115 32.9009 34.5402C33.6577 34.4688 35.3544 33.5412 35.7049 32.574C36.0475 31.6067 36.0475 30.7822 35.9439 30.6077C35.8404 30.4333 35.5616 30.3303 35.1473 30.1241C34.7331 29.918 32.6937 28.919 32.3114 28.7763C31.929 28.6415 31.6502 28.5702 31.3793 28.9824C31.1005 29.3947 30.3039 30.3223 30.0649 30.5998C29.8259 30.8773 29.579 30.909 29.1648 30.7029C28.7505 30.4967 27.4122 30.0607 25.827 28.6495C24.5922 27.5554 23.7558 26.1996 23.5168 25.7874C23.2778 25.3751 23.4929 25.1531 23.7 24.947C23.8832 24.7646 24.1142 24.4633 24.3214 24.2255C24.5285 23.9876 24.6002 23.8132 24.7356 23.5357C24.871 23.2582 24.8073 23.0204 24.7037 22.8143C24.6002 22.616 23.7876 20.5706 23.4212 19.7539Z" fill="white"/>
<defs>
<linearGradient id="paint0_linear_42_171" x1="27.4986" y1="54.9973" x2="27.4986" y2="-0.00192431" gradientUnits="userSpaceOnUse">
<stop stop-color="#20B038"/>
<stop offset="1" stop-color="#60D66A"/>
</linearGradient>
<linearGradient id="paint1_linear_42_171" x1="27.5031" y1="42.9189" x2="27.5031" y2="10.7147" gradientUnits="userSpaceOnUse">
<stop stop-color="#20B038"/>
<stop offset="1" stop-color="#60D66A"/>
</linearGradient>
<linearGradient id="paint2_linear_42_171" x1="27.5032" y1="43.496" x2="27.5032" y2="10.137" gradientUnits="userSpaceOnUse">
<stop stop-color="#F9F9F9"/>
<stop offset="1" stop-color="white"/>
</linearGradient>
</defs>
</svg>
