<svg width="147" height="57" viewBox="0 0 147 57" fill="none" xmlns="http://www.w3.org/2000/svg">
<g clip-path="url(#clip0_212_363)">
<path d="M14.6904 31.0635L6.28854 50.033H0.15918L9.38746 29.7477C5.04882 27.5323 2.15641 23.5169 2.15641 16.109C2.15641 5.72419 8.69883 0.531738 16.4809 0.531738H24.4006V50.033H19.0979V31.0635H14.6904ZM19.0979 5.03187H16.2742C12.0045 5.03187 7.87235 7.87034 7.87235 16.109C7.87235 24.0706 11.6602 26.6322 16.2742 26.6322H19.0979V5.03187Z" fill="#FF0000"/>
<path d="M49.9507 15.1398V50.0331H44.6478V34.3866H36.6592V50.0331H31.2876V15.1398H36.6592V29.9555H44.6478V15.1398H49.9507ZM77.5668 56.8872H72.746V50.0331H57.8704V56.8872H53.0496V45.6022H55.1847C58.3526 38.1944 58.6969 27.3939 58.6969 18.1168V15.1398H74.8121V45.6022H77.5668V56.8872ZM69.5092 19.5016H63.5177V20.1246C63.5177 27.4632 63.1733 38.1944 60.2809 45.6022H69.5092V19.5016ZM92.3734 50.5176C85.2112 50.5176 80.8037 44.7714 80.8037 34.0406C80.8037 22.8247 83.9028 14.6553 91.2717 14.6553C97.0566 14.6553 100.844 19.0169 100.844 30.8558V33.8328H86.3818C86.3818 41.7251 88.5856 45.8793 92.8553 45.8793C95.8856 45.8793 98.296 44.4947 99.6733 43.5254L100.913 47.6791C98.4667 49.5667 95.457 50.567 92.3734 50.5176ZM86.4507 29.4017H95.3347C95.3347 23.4477 94.3705 19.0862 91.2717 19.0862C87.9658 19.0862 86.7953 23.1709 86.4507 29.4017ZM111.725 32.656V50.0331H106.354V15.1398H111.725V31.271L120.058 15.1398H125.499L116.89 31.5481L126.738 50.0331H120.885L111.725 32.656ZM127.427 32.5868C127.427 21.6477 131.628 14.6553 139.755 14.6553C142.853 14.6553 144.644 15.4861 146.159 16.4553L145.402 21.5785C143.955 20.3322 141.89 19.1554 139.686 19.1554C135.829 19.1554 133.074 23.517 133.074 32.3097C133.074 41.0329 135.14 46.0174 139.479 46.0174C141.626 46.0464 143.709 45.2828 145.333 43.8713L146.572 47.887C144.579 49.6509 141.996 50.5907 139.341 50.5176C131.903 50.5176 127.427 44.4947 127.427 32.5868Z" fill="#F6F9FF"/>
</g>
<defs>
<clipPath id="clip0_212_363">
<rect width="147" height="57" fill="white"/>
</clipPath>
</defs>
</svg>
