<svg width="167" height="55" viewBox="0 0 167 55" fill="none" xmlns="http://www.w3.org/2000/svg">
<g clip-path="url(#clip0_212_438)">
<path d="M159.319 20.3888H166.981C166.012 12.9405 160.565 9.02539 152.995 9.02539C145.333 9.02539 140.21 13.0838 140.21 20.0546C140.21 27.9803 146.81 29.7467 150.318 30.4632C154.842 31.3703 159.273 31.4658 159.273 35.4762C159.273 38.1978 157.057 39.5346 153.918 39.5346C150.041 39.5346 147.457 37.5293 146.81 33.9009H139.24C139.702 41.731 145.195 45.9326 153.272 45.9326C160.75 45.9326 166.889 42.3995 166.889 34.7602C166.889 26.5479 159.827 25.0679 154.888 24.3039C151.518 23.7788 147.826 23.3012 147.826 19.6248C147.826 17.0466 149.718 15.4711 152.903 15.4711C156.596 15.4711 158.811 17.6197 159.319 20.3888Z" fill="#F6F9FF"/>
<path d="M135.04 10.2192H127.793V44.8345H135.04V10.2192Z" fill="#F6F9FF"/>
<path d="M105.914 32.7552H115.377C113.899 36.4796 110.576 38.2458 106.745 38.2458C100.006 38.2458 96.8671 32.8507 96.8671 27.5032C96.8671 22.1079 99.8211 16.6173 106.699 16.6173C110.899 16.6173 114.038 18.6226 115.238 22.2035L123.039 22.2035C121.7 14.1347 114.869 9.50342 106.791 9.50342C96.821 9.50342 89.3433 16.5218 89.3433 27.5988C89.3433 38.8189 97.467 45.4555 106.745 45.4555C115.884 45.4555 123.039 39.2964 123.039 29.6519V26.8348H105.914V32.7552Z" fill="#F6F9FF"/>
<path d="M71.4016 10C63.0931 10 56.9541 15.3951 57.0003 24.3712H64.4779C64.3855 20.4561 66.7857 16.8753 71.0323 16.8753C74.725 16.8753 76.8944 19.549 76.8944 22.6046C76.8944 25.6603 74.725 27.3792 70.7092 29.2414C65.2163 31.7718 61.293 33.3951 57.2772 34.8275V45.3314H85.249V38.265H66.0461C66.0461 38.265 66.11 38.2444 66.1415 38.2346C69.4076 37.2109 71.8614 36.0987 74.7712 34.7797C81.0024 31.9151 84.5566 28.334 84.5566 22.2228C84.5567 14.7266 79.2024 10 71.4016 10Z" fill="#F6F9FF"/>
<path d="M38.708 32.6596C29.2917 32.7074 27.7685 38.58 27.2609 43.5455L27.0302 45.7417H25.1375L24.9068 43.5455C24.3991 38.58 22.8298 32.7074 13.7365 32.6596C12.2133 29.4128 11.5671 26.7868 11.5671 23.8266C11.5671 16.4262 17.4292 9.50297 26.1068 9.50297C34.7845 9.50297 40.5543 16.3782 40.5543 23.8746C40.5543 26.7868 40.2774 29.4128 38.708 32.6596ZM26.0147 0.526855C11.7057 0.526855 -0.0185547 12.6543 -0.0185547 27.5028C-0.0185547 42.3995 11.7057 54.5267 26.0147 54.5267C40.4619 54.5267 52.14 42.3995 52.14 27.5028C52.14 12.6543 40.4619 0.526855 26.0147 0.526855Z" fill="#29B24A"/>
</g>
<defs>
<clipPath id="clip0_212_438">
<rect width="167" height="54" fill="white" transform="translate(0 0.5)"/>
</clipPath>
</defs>
</svg>
