<svg width="152" height="152" viewBox="0 0 152 152" fill="none" xmlns="http://www.w3.org/2000/svg">
<path fill-rule="evenodd" clip-rule="evenodd" d="M120.014 17.7575C106.499 7.54449 89.8535 2.34927 72.9289 3.06191C56.0043 3.77455 39.8542 10.3507 27.246 21.6636C14.6378 32.9766 6.35616 48.322 3.82012 65.0707C1.28408 81.8194 4.65158 98.9287 13.3455 113.467C22.0394 128.006 35.5185 139.068 51.4734 144.759C67.4283 150.451 84.8659 150.416 100.798 144.662C101.577 144.381 102.436 144.784 102.717 145.562C102.998 146.341 102.595 147.2 101.816 147.481C85.2299 153.471 67.0764 153.507 50.4664 147.582C33.8564 141.658 19.8239 130.141 10.7731 115.005C1.72227 99.8701 -1.78349 82.0583 0.856669 64.622C3.49683 47.1857 12.1185 31.2102 25.2443 19.4328C38.3702 7.65537 55.1833 0.809224 72.8028 0.067324C90.4222 -0.674576 107.751 4.73395 121.821 15.3662C135.89 25.9985 145.824 41.1927 149.921 58.3453C154.018 75.498 152.022 93.5414 144.275 109.384C143.912 110.128 143.014 110.436 142.271 110.072C141.527 109.709 141.219 108.811 141.583 108.067C149.023 92.8497 150.941 75.5178 147.006 59.0416C143.071 42.5654 133.528 27.9704 120.014 17.7575ZM100.496 26.3822C100.684 26.3771 100.87 26.407 101.046 26.4706C101.768 26.7307 102.379 27.2295 102.778 27.8844C103.159 28.5077 103.325 29.2367 103.255 29.9612V47.8332C103.387 53.0894 102.6 58.3283 100.93 63.314L100.926 63.3266C97.5967 72.9804 90.8335 81.0725 81.9241 86.062C80.9483 86.6204 79.9383 87.1526 78.9567 87.6697C78.5472 87.8855 78.1426 88.0986 77.7476 88.31C77.2795 88.6023 76.746 88.7744 76.1948 88.8108C75.623 88.8485 75.0512 88.7387 74.5341 88.4921C69.7049 86.2671 65.2595 83.29 61.3634 79.6717C61.3556 79.6645 61.348 79.6572 61.3404 79.6499C55.2705 73.7689 51.1353 66.1792 49.4849 57.8904C48.9847 55.4605 48.727 52.987 48.7158 50.5062L48.7158 50.4994V29.8719C48.6563 29.1752 48.82 28.4768 49.1843 27.8781C49.5658 27.251 50.1458 26.7692 50.8321 26.509C51.0018 26.4446 51.1818 26.4116 51.3633 26.4116H52.4523C52.7121 26.4116 52.9675 26.4792 53.1933 26.6077L55.4412 27.8865C55.4476 27.8901 55.454 27.8938 55.4604 27.8976C55.4634 27.8993 55.4664 27.9011 55.4694 27.9029C58.7797 29.8824 62.6915 30.6057 66.4908 29.9408L66.5043 29.9385C68.9985 29.5255 71.1819 28.3868 73.6116 27.1197C73.9542 26.941 74.3017 26.7598 74.6556 26.5777C74.8677 26.4686 75.1027 26.4116 75.3412 26.4116H76.57C76.8027 26.4116 77.0322 26.4658 77.2402 26.5699C77.6953 26.7974 78.1368 27.0229 78.5717 27.245C79.5419 27.7406 80.4788 28.2191 81.457 28.6643L81.4782 28.6742C83.4411 29.6049 85.5751 30.1202 87.7465 30.1877C89.91 30.2549 92.0641 29.8762 94.0748 29.0752C95.6616 28.3799 97.1942 27.5668 98.6596 26.6427C98.8869 26.4993 99.1487 26.4197 99.4173 26.4122L100.496 26.3822ZM99.9066 29.397C98.4142 30.3154 96.8596 31.1286 95.2539 31.8309C95.2393 31.8373 95.2247 31.8434 95.21 31.8493C92.8098 32.8096 90.2372 33.2638 87.6533 33.1835C85.0734 33.1032 82.5378 32.4918 80.2048 31.3875C79.1666 30.9145 78.1348 30.3877 77.1397 29.8795C76.8275 29.72 76.5188 29.5624 76.2147 29.4089H75.7058C75.4813 29.5255 75.2547 29.6442 75.0258 29.7641C72.6376 31.0151 70.0008 32.3961 67.0007 32.8944C62.5006 33.6803 57.8679 32.8248 53.9454 30.4838L52.0559 29.4089H51.7634C51.7567 29.4176 51.7505 29.4266 51.7448 29.436C51.71 29.4931 51.6954 29.56 51.7031 29.6263C51.7097 29.6834 51.713 29.7409 51.713 29.7985V50.4959C51.7236 52.7787 51.9609 55.0547 52.4215 57.2905L52.4235 57.3004C53.9534 64.9888 57.787 72.0293 63.4145 77.4862C67.0782 80.8863 71.2579 83.6838 75.7981 85.7745L75.8227 85.786C75.8771 85.8123 75.9373 85.824 75.9976 85.82C76.0581 85.816 76.1164 85.7965 76.1668 85.7634C76.2041 85.7388 76.2426 85.7159 76.282 85.6948C76.7329 85.4533 77.1764 85.2197 77.6145 84.9889C78.5752 84.4828 79.5103 83.9902 80.4412 83.4573L80.4538 83.4502C88.7222 78.8215 94.9994 71.3134 98.0899 62.3558C99.6496 57.6969 100.383 52.8014 100.259 47.89C100.258 47.8773 100.258 47.8646 100.258 47.8519V29.8785C100.258 29.8139 100.262 29.7494 100.271 29.6854C100.282 29.6017 100.263 29.517 100.22 29.4452C100.208 29.4253 100.194 29.4066 100.178 29.3895L99.9066 29.397ZM74.7314 37.4591C75.1155 37.2594 75.5423 37.155 75.9756 37.155C76.4087 37.155 76.8351 37.2593 77.2189 37.4586C81.1936 39.3157 85.5689 40.1521 89.9487 39.8919L89.9646 39.891C90.3401 39.8727 90.5754 39.8565 91.0285 39.7868C91.4745 39.7182 92.2807 39.7045 92.888 40.3636C93.4033 40.9228 93.4245 41.6233 93.4245 41.9173V47.4385C93.5679 50.6594 93.2836 53.8851 92.5789 57.0312L92.576 57.0444C90.8132 64.5956 86.3356 71.235 79.9955 75.6991C79.246 76.2366 78.4646 76.7314 77.7274 77.1983C77.5936 77.283 77.4613 77.3668 77.3309 77.4497C76.921 77.723 76.4391 77.8691 75.9456 77.8691C75.4675 77.8691 75 77.732 74.5983 77.4747C71.0644 75.4623 67.9456 72.796 65.4081 69.6177C61.5913 64.8387 59.2419 59.0557 58.6443 52.9689C58.3946 50.6 58.4269 48.1664 58.4573 45.87C58.4671 45.1322 58.4767 44.4085 58.4767 43.7057C58.4767 43.4554 58.4793 43.2121 58.4817 42.9827C58.486 42.5754 58.4898 42.2118 58.478 41.9298C58.4629 41.5656 58.4929 40.8422 59.0648 40.2841C59.6535 39.7095 60.3885 39.7146 60.8011 39.7708C61.7899 39.8784 62.7845 39.9214 63.7789 39.8996C63.7891 39.8994 63.7992 39.8992 63.8094 39.8992C67.5847 39.8932 71.3128 39.0603 74.7314 37.4591ZM75.9756 40.186C72.1725 41.9625 68.0273 42.8876 63.8293 42.8964C63.0458 42.9132 62.2621 42.8943 61.4807 42.8399C61.4799 42.9388 61.4789 43.0373 61.478 43.1336C61.4759 43.3404 61.474 43.5372 61.474 43.7057C61.474 44.4966 61.4638 45.2763 61.4537 46.0475C61.4242 48.3013 61.3956 50.4824 61.6256 52.6599L61.6268 52.6711C62.1669 58.183 64.294 63.42 67.7502 67.7475C70.0153 70.5845 72.7915 72.9718 75.9346 74.7859C76.0039 74.7419 76.0729 74.6982 76.1415 74.6547C76.881 74.1863 77.5794 73.7438 78.2538 73.2598L78.265 73.2518C84.0044 69.2124 88.0584 63.204 89.6555 56.37C90.3036 53.474 90.5636 50.5048 90.4288 47.5403C90.4277 47.5176 90.4272 47.4949 90.4272 47.4722V42.8672C90.3268 42.8737 90.2254 42.8791 90.1184 42.8843C85.253 43.1721 80.3927 42.2447 75.9756 40.186ZM61.4727 41.7841C61.4727 41.7841 61.4734 41.7919 61.4727 41.8055C61.4721 41.7909 61.4727 41.7841 61.4727 41.7841ZM87.2633 48.1639C87.9242 48.6622 88.056 49.6019 87.5577 50.2627L82.8419 56.517L77.8445 63.1136L77.8437 63.1146C77.4093 63.6871 76.647 64.5465 75.4935 64.5465C74.3487 64.5465 73.5809 63.6973 73.1386 63.128L73.1264 63.112C72.6248 62.448 72.1204 61.7821 71.6151 61.1149C70.7261 59.9411 69.8339 58.7632 68.9478 57.5839C68.4507 56.9222 68.584 55.9828 69.2457 55.4856C69.9074 54.9885 70.8469 55.1218 71.3441 55.7835C72.2266 56.9582 73.1112 58.1261 73.9968 59.2952C74.493 59.9504 74.9895 60.6059 75.4861 61.2632L80.4508 54.7098L85.1645 48.4583C85.6628 47.7974 86.6025 47.6656 87.2633 48.1639ZM33.3947 60.0933C34.6003 59.7994 35.8731 59.9894 36.9403 60.6226C37.9972 61.2497 38.7691 62.262 39.0946 63.446C39.4176 64.4747 39.6948 65.5369 39.9607 66.5556C40.0787 67.0077 40.1944 67.4513 40.311 67.8796L40.3131 67.8876C41.2979 71.5874 42.2961 75.2839 43.3075 78.977C43.5262 79.7753 43.0563 80.5996 42.258 80.8182C41.4597 81.0369 40.6354 80.567 40.4168 79.7687C39.4038 76.0701 38.4042 72.3682 37.4179 68.663C37.2839 68.1703 37.1593 67.6925 37.037 67.2237C36.7787 66.2331 36.5308 65.2828 36.2267 64.3175C36.22 64.2962 36.2138 64.2748 36.2081 64.2533C36.0903 63.8116 35.8041 63.4336 35.4109 63.2003C35.0243 62.9709 34.5644 62.8993 34.1269 63C33.9209 63.06 33.7287 63.1604 33.5618 63.2954C33.389 63.4351 33.2468 63.609 33.1441 63.8061C33.0415 64.003 32.9805 64.2192 32.965 64.4411C32.9495 64.6628 32.9798 64.8853 33.0541 65.0948C33.0693 65.1376 33.0825 65.1812 33.0938 65.2253C33.6039 67.2259 34.0866 69.1069 34.6565 71.0229C34.6605 71.0362 34.6642 71.0495 34.6678 71.0629L39.943 90.7847L39.9469 90.7997C40.1355 91.5351 40.5506 92.1925 41.1336 92.6787L41.1433 92.6869C41.9734 93.3913 42.7738 94.0911 43.5646 94.7826C44.9079 95.9571 46.2237 97.1076 47.6113 98.2162C49.021 99.2626 50.1486 100.643 50.8924 102.234C51.5328 103.604 51.8714 105.092 51.8887 106.598H64.7775C64.7634 105.238 64.7743 103.913 64.785 102.604C64.8052 100.124 64.825 97.7002 64.674 95.203C64.5378 93.146 63.7307 91.1908 62.3768 89.6369C61.2264 88.4409 59.88 87.4501 58.3957 86.7076C58.3669 86.6931 58.3385 86.6778 58.3106 86.6615C55.3308 84.9216 52.3543 83.1717 49.3812 81.4118C49.3489 81.3927 49.3174 81.3724 49.2866 81.3509C49.0026 81.1526 48.6681 81.0391 48.322 81.0235C47.9859 81.0084 47.6523 81.0864 47.3579 81.2485C47.1284 81.3977 46.9396 81.6017 46.8085 81.8424C46.6729 82.0915 46.6039 82.3714 46.6081 82.6551C46.6123 82.9389 46.6896 83.2166 46.8325 83.4615C46.9755 83.7066 47.1793 83.9105 47.4242 84.0537L47.4387 84.0623C49.4187 85.2503 51.4025 86.3812 53.4768 87.548C53.4922 87.5566 53.5075 87.5656 53.5225 87.5748C53.9559 87.8391 54.4107 88.0965 54.8949 88.3706C54.9403 88.3963 54.9859 88.4221 55.0317 88.448C55.5531 88.7433 56.1043 89.0576 56.6412 89.3939C57.2976 89.7879 57.7873 90.4085 58.018 91.1389C58.2509 91.8766 58.2032 92.6747 57.8834 93.3797C57.5414 94.1334 56.6532 94.4672 55.8995 94.1253C55.1458 93.7833 54.812 92.8951 55.1539 92.1414C55.1681 92.1101 55.1703 92.0746 55.1599 92.0415C55.1494 92.0084 55.1272 91.9806 55.0976 91.9631C55.0859 91.9562 55.0743 91.9491 55.0627 91.9419C54.5852 91.6422 54.0826 91.355 53.5547 91.0561C53.5076 91.0294 53.4602 91.0026 53.4127 90.9757C52.9443 90.7106 52.4551 90.4338 51.9847 90.1475C49.9131 88.9821 47.9098 87.8402 45.903 86.6362C45.2165 86.2329 44.6452 85.6599 44.2439 84.9722C43.8409 84.2816 43.6231 83.4988 43.6112 82.6996C43.5993 81.9003 43.7939 81.1114 44.1762 80.4093C44.5584 79.7072 45.1154 79.1155 45.7932 78.6917C45.8098 78.6813 45.8266 78.6712 45.8436 78.6615C46.6371 78.2075 47.5433 77.9883 48.4566 78.0293C49.3495 78.0694 50.2133 78.3567 50.9519 78.8586C53.8917 80.5986 56.8347 82.3288 59.781 84.0493C61.565 84.9481 63.1829 86.1448 64.5647 87.5879C64.5797 87.6036 64.5944 87.6197 64.6088 87.636C66.4113 89.6907 67.4855 92.2826 67.665 95.0099L67.6656 95.0178C67.8207 97.5815 67.8012 100.229 67.782 102.814C67.7703 104.401 67.7588 105.963 67.7879 107.468L67.7882 107.497C67.7882 107.926 67.6964 108.667 67.0316 109.177C66.4861 109.595 65.8513 109.595 65.6285 109.595H51.1941C50.7772 109.6 50.0036 109.553 49.4298 108.926C48.8903 108.336 48.8757 107.593 48.8757 107.267C48.8757 107.237 48.8766 107.207 48.8784 107.177C48.9547 105.913 48.7136 104.65 48.1773 103.503C47.6411 102.357 46.8265 101.362 45.8078 100.61C45.7986 100.603 45.7895 100.597 45.7805 100.59C45.7746 100.585 45.7686 100.58 45.7628 100.576C44.3247 99.4278 42.9015 98.1841 41.5095 96.9678C40.7318 96.2882 39.9638 95.6171 39.2085 94.976C38.1472 94.0889 37.3909 92.8915 37.0457 91.5522C37.045 91.5495 37.0443 91.5469 37.0436 91.5442L31.7777 71.8573C31.1971 69.9036 30.7066 67.9935 30.2047 66.0256C30.0107 65.4489 29.9326 64.8394 29.975 64.2321C30.0192 63.6 30.193 62.9835 30.486 62.4212C30.7788 61.8591 31.1843 61.3633 31.6772 60.9648C32.17 60.5662 32.7397 60.2735 33.3507 60.1047C33.3653 60.1007 33.38 60.0969 33.3947 60.0933ZM64.7908 107.504L64.7907 107.507L64.7908 107.505L64.7908 107.504ZM117.064 60.0027C117.816 59.9635 118.566 60.1086 119.249 60.4256C119.932 60.7427 120.526 61.2219 120.982 61.8213C121.437 62.4208 121.738 63.1225 121.86 63.8655C121.979 64.5903 121.923 65.3327 121.697 66.0311C120.591 70.2267 119.455 74.4609 118.34 78.6126C118.051 79.6892 117.761 80.7635 117.471 81.8365C116.638 84.9224 115.808 87.998 115.009 91.0874C114.598 92.7716 113.646 94.2747 112.3 95.3667C111.014 96.4414 109.773 97.514 108.52 98.5967C107.576 99.4126 106.625 100.234 105.644 101.067C105.637 101.072 105.631 101.078 105.624 101.083C105.619 101.087 105.613 101.092 105.608 101.096C104.761 101.771 104.086 102.638 103.64 103.625C103.194 104.612 102.99 105.691 103.044 106.773C103.044 106.784 103.045 106.795 103.045 106.806C103.047 106.887 103.051 106.975 103.054 107.065C103.062 107.288 103.07 107.522 103.066 107.692L103.066 107.706C103.062 107.902 103.047 108.568 102.533 109.086C102.026 109.598 101.368 109.626 101.176 109.634L101.16 109.634C101.004 109.641 100.781 109.639 100.569 109.637C100.47 109.636 100.374 109.635 100.288 109.635L86.5569 109.635C86.3667 109.635 86.1089 109.635 85.8859 109.609C85.6454 109.58 85.1161 109.49 84.6905 109.032C84.2858 108.597 84.2178 108.085 84.1955 107.869C84.1728 107.649 84.1729 107.39 84.173 107.181L84.173 96.0477C84.1158 93.8413 84.6562 91.6602 85.7374 89.7356C86.8179 87.8123 88.3981 86.2169 90.3107 85.1181C93.0847 83.408 95.9044 81.7717 98.7045 80.1469C99.5452 79.6591 100.384 79.1723 101.219 78.6849C101.744 78.3668 102.326 78.1546 102.933 78.0603C103.544 77.9653 104.169 77.9921 104.771 78.1394C105.372 78.2867 105.938 78.5516 106.437 78.9186C106.936 79.2858 107.357 79.7479 107.676 80.2783C107.685 80.2929 107.694 80.3076 107.702 80.3225C107.709 80.3342 107.715 80.346 107.721 80.3579C108.301 81.4693 108.422 82.764 108.058 83.9636C107.695 85.1565 106.881 86.1606 105.79 86.7625L97.0834 91.8092C97.0244 91.8433 96.9631 91.8735 96.9001 91.8993C96.8499 91.9199 96.8091 91.9582 96.7855 92.0071C96.7619 92.056 96.7572 92.1118 96.7723 92.1638C97.0025 92.9588 96.5446 93.7899 95.7496 94.0201C94.9546 94.2504 94.1235 93.7925 93.8933 92.9975C93.6725 92.2351 93.7414 91.418 94.0867 90.7033C94.4148 90.0242 94.9704 89.4831 95.6552 89.1727L104.302 84.1607C104.313 84.1543 104.324 84.148 104.336 84.1419C104.747 83.9174 105.054 83.5405 105.19 83.0922C105.321 82.6586 105.284 82.1918 105.085 81.7858C104.972 81.6099 104.829 81.4562 104.66 81.3325C104.48 81.1997 104.275 81.1039 104.058 81.0506C103.84 80.9974 103.614 80.9876 103.393 81.022C103.171 81.0564 102.959 81.1343 102.768 81.2511C102.759 81.2563 102.751 81.2615 102.742 81.2666C101.888 81.7648 101.036 82.2593 100.186 82.7527C97.3857 84.3775 94.6064 85.9904 91.8633 87.6819C91.8492 87.6906 91.8349 87.6991 91.8206 87.7073C90.3688 88.5374 89.1695 89.7458 88.3505 91.2036C87.5315 92.6615 87.1234 94.3144 87.1697 95.986C87.1701 95.9998 87.1703 96.0137 87.1703 96.0275V106.638H100.04C100.01 105.176 100.306 103.725 100.909 102.391C101.547 100.978 102.511 99.7357 103.722 98.7667C104.644 97.9839 105.579 97.1766 106.519 96.3645C107.803 95.2546 109.098 94.1359 110.387 93.0592L110.406 93.0437C111.249 92.3623 111.844 91.4223 112.1 90.3691L112.105 90.3475C112.908 87.2383 113.746 84.1372 114.581 81.0441C114.87 79.9735 115.158 78.9039 115.446 77.8352C116.565 73.6689 117.703 69.4258 118.811 65.2234C118.819 65.1913 118.829 65.1595 118.839 65.128C118.923 64.8777 118.945 64.6108 118.902 64.3504C118.86 64.09 118.754 63.8439 118.594 63.6336C118.435 63.4232 118.226 63.2553 117.987 63.1442C117.756 63.0369 117.503 62.9858 117.248 62.9947C116.859 63.0357 116.492 63.1981 116.199 63.4594C115.899 63.7271 115.694 64.0841 115.613 64.4777C115.607 64.5078 115.6 64.5377 115.592 64.5674C114.194 69.7488 112.795 74.9402 111.397 80.1416C111.182 80.9409 110.359 81.4146 109.56 81.1997C108.761 80.9848 108.287 80.1626 108.502 79.3633C109.897 74.1745 111.292 68.9957 112.688 63.8267C112.905 62.8213 113.435 61.91 114.202 61.2242C114.983 60.5272 115.967 60.1003 117.009 60.0067C117.027 60.005 117.046 60.0037 117.064 60.0027ZM58.194 113.082C58.2512 113.075 58.3089 113.072 58.3669 113.072C59.9541 113.072 61.5364 113.075 63.1157 113.078C65.4732 113.083 67.8239 113.088 70.1737 113.082C70.5791 113.077 71.3757 113.107 71.9716 113.731C72.5471 114.334 72.5638 115.115 72.5638 115.47V123.22C72.5687 123.515 72.5732 124.245 72.0681 124.839C71.5016 125.505 70.7035 125.56 70.2859 125.56H46.308C45.9378 125.56 45.1581 125.529 44.5772 124.911C44.0212 124.32 44.0102 123.564 44.0102 123.242V115.42C44.005 115.005 44.0479 114.215 44.6873 113.635C45.2842 113.093 46.0403 113.082 46.368 113.082H58.194ZM58.5297 116.069C58.4726 116.076 58.415 116.079 58.3569 116.079H47.0074V122.563H69.5666V116.08C67.416 116.084 65.2553 116.08 63.0956 116.075C61.5719 116.072 60.0486 116.069 58.5297 116.069ZM79.8189 113.769C80.3851 113.147 81.1503 113.102 81.5355 113.102H105.573C105.958 113.102 106.724 113.145 107.293 113.763C107.83 114.347 107.841 115.081 107.841 115.39V123.283C107.847 123.72 107.788 124.514 107.118 125.08C106.525 125.58 105.792 125.58 105.505 125.58L81.7299 125.58C81.5225 125.58 81.2583 125.581 81.0321 125.555C80.8002 125.53 80.2752 125.45 79.8414 125.016C79.4075 124.583 79.3281 124.058 79.3023 123.826C79.2772 123.599 79.2774 123.335 79.2775 123.128L79.2775 115.39C79.2775 115.081 79.2892 114.351 79.8189 113.769ZM82.2748 116.099V122.583H104.844V116.099H82.2748ZM135.346 121.214C135.318 121.214 135.296 121.237 135.296 121.264C135.296 121.292 135.318 121.314 135.346 121.314C135.373 121.314 135.396 121.292 135.396 121.264C135.396 121.237 135.373 121.214 135.346 121.214ZM132.299 121.264C132.299 119.581 133.663 118.217 135.346 118.217C137.029 118.217 138.393 119.581 138.393 121.264C138.393 122.947 137.029 124.311 135.346 124.311C133.663 124.311 132.299 122.947 132.299 121.264ZM125.705 131.565C125.677 131.565 125.655 131.587 125.655 131.615C125.655 131.642 125.677 131.665 125.705 131.665C125.732 131.665 125.755 131.642 125.755 131.615C125.755 131.587 125.732 131.565 125.705 131.565ZM122.658 131.615C122.658 129.932 124.022 128.568 125.705 128.568C127.388 128.568 128.752 129.932 128.752 131.615C128.752 133.298 127.388 134.662 125.705 134.662C124.022 134.662 122.658 133.298 122.658 131.615ZM114.085 140.127C114.058 140.127 114.035 140.149 114.035 140.177C114.035 140.204 114.058 140.227 114.085 140.227C114.113 140.227 114.135 140.204 114.135 140.177C114.135 140.149 114.113 140.127 114.085 140.127ZM111.038 140.177C111.038 138.494 112.403 137.13 114.085 137.13C115.768 137.13 117.133 138.494 117.133 140.177C117.133 141.86 115.768 143.224 114.085 143.224C112.403 143.224 111.038 141.86 111.038 140.177Z" fill="#1DB099"/>
</svg>
