<svg width="152" height="152" viewBox="0 0 152 152" fill="none" xmlns="http://www.w3.org/2000/svg">
<path fill-rule="evenodd" clip-rule="evenodd" d="M120.017 17.7599C106.504 7.54737 89.8612 2.35119 72.9385 3.0615C56.0158 3.77181 39.8667 10.3444 27.2575 21.6533C14.6484 32.9623 6.36388 48.3038 3.82329 65.0498C1.2827 81.7959 4.64413 98.9042 13.3317 113.444C22.0192 127.984 35.4922 139.051 51.4427 144.748C67.3933 150.446 84.8288 150.42 100.762 144.675C101.541 144.394 102.4 144.798 102.68 145.576C102.961 146.355 102.558 147.214 101.779 147.494C85.1913 153.475 67.0399 153.503 50.4345 147.571C33.8291 141.639 19.803 130.118 10.7587 114.981C1.7145 99.8446 -1.78493 82.0338 0.859969 64.6003C3.50487 47.1667 12.1295 31.1953 25.2563 19.4221C38.3832 7.6488 55.1953 0.806368 72.8128 0.0668985C90.4303 -0.67257 107.757 4.73695 121.824 15.3688C135.891 26.0006 145.824 41.1931 149.921 58.3437C154.017 75.4943 152.022 93.5356 144.278 109.377C143.915 110.121 143.018 110.429 142.274 110.065C141.53 109.702 141.222 108.804 141.586 108.061C149.024 92.8441 150.94 75.5142 147.005 59.04C143.07 42.5658 133.529 27.9724 120.017 17.7599ZM30.5796 40.5668C30.3929 40.4891 30.1924 40.45 29.9901 40.4519L29.978 40.452L29.9659 40.4519C29.5615 40.4491 29.3233 40.5544 29.1378 40.7161C28.9216 40.9046 28.6517 41.2831 28.4214 42.0316L28.4169 42.0461L28.4122 42.0605C28.0478 43.1646 27.7177 44.218 27.3839 45.2831C27.1018 46.1831 26.8172 47.0914 26.507 48.0459C25.1074 52.4142 23.7035 56.7764 22.3 61.1372C20.4749 66.8081 18.6505 72.4768 16.8373 78.1536L16.8358 78.1584C16.4753 79.2741 16.5437 79.9108 16.7098 80.2831C16.8672 80.636 17.2472 81.0523 18.2149 81.4239C21.1745 82.5612 24.1411 83.6886 27.114 84.806C28.2096 85.2145 28.6693 85.1025 28.8748 84.9911C29.1195 84.8584 29.5216 84.4521 29.9148 83.1949L29.9181 83.1842L29.9216 83.1736C30.8121 80.4683 31.6586 77.7864 32.5076 75.0967C33.1579 73.0364 33.8097 70.9715 34.4837 68.8879C35.9136 64.3808 37.3724 59.8755 38.8302 55.3733C39.7153 52.6399 40.6 49.9077 41.4777 47.1768L41.5024 47.0998L41.5353 47.0259C41.6483 46.7719 41.7071 46.497 41.7079 46.2187C41.7086 45.9403 41.6513 45.6651 41.5395 45.4105C41.4277 45.1558 41.264 44.9272 41.0588 44.7394C40.8536 44.5516 40.6114 44.4087 40.3478 44.3199L40.3181 44.3098L30.5985 40.5746L30.5796 40.5668ZM31.71 37.7908C31.1596 37.5651 30.5699 37.4508 29.975 37.4547C28.945 37.4499 27.9737 37.7546 27.1681 38.4569C26.3939 39.1319 25.8906 40.0715 25.5613 41.1351C25.208 42.2064 24.8556 43.3291 24.5073 44.4389C24.2201 45.3541 23.9357 46.2606 23.6556 47.1222L23.6537 47.1281C22.2569 51.4876 20.8532 55.8494 19.4491 60.2121C17.6225 65.8876 15.7955 71.5645 13.9828 77.2396C13.5048 78.7206 13.387 80.191 13.9724 81.5038C14.5668 82.8368 15.7403 83.6843 17.1405 84.2219C20.1077 85.3622 23.0817 86.4924 26.0623 87.6126L26.0657 87.6139C27.4873 88.1442 28.9756 88.3461 30.3037 87.6258C31.5894 86.9285 32.3059 85.5863 32.772 84.1004C33.6599 81.4025 34.5211 78.6747 35.3784 75.9593C36.0301 73.8949 36.6796 71.8378 37.3367 69.8066L37.3393 69.7985C38.7676 65.2964 40.221 60.8078 41.6766 56.3124C42.5548 53.6003 43.4338 50.8856 44.3086 48.164C44.5685 47.5513 44.7034 46.8925 44.7051 46.2265C44.7069 45.5312 44.5636 44.8431 44.2841 44.2061C44.0047 43.5693 43.5954 42.9978 43.0823 42.5283C42.5777 42.0665 41.9838 41.7133 41.3372 41.4906L31.71 37.7908ZM120.79 40.742C120.789 40.7423 120.789 40.7426 120.788 40.7429L111.8 44.2081L111.795 44.2102C110.896 44.5527 110.515 44.9725 110.35 45.3545C110.175 45.7618 110.114 46.4255 110.459 47.494C113.47 56.7585 116.467 66.0263 119.451 75.2974C119.907 76.7023 120.332 78.0399 120.754 79.371C121.205 80.7923 121.654 82.2063 122.137 83.687L122.142 83.7008L122.146 83.7147C122.353 84.3921 122.69 84.8096 122.985 85.0111C123.25 85.1916 123.501 85.2251 123.776 85.128C127.345 83.8489 130.89 82.4688 134.448 81.0535C134.738 80.9342 134.979 80.7225 135.136 80.4515C135.293 80.1788 135.356 79.8615 135.313 79.5495L135.295 79.4204L135.3 79.2901C135.311 78.9967 135.272 78.7036 135.184 78.4238C134.734 77.0933 134.293 75.7616 133.862 74.419L123.571 42.2853C123.191 41.0918 122.786 40.6944 122.532 40.5612C122.31 40.4444 121.838 40.342 120.79 40.742ZM107.392 47.6378C107.118 46.4325 107.133 45.2459 107.599 44.1665C108.175 42.8307 109.318 41.947 110.726 41.4102C110.726 41.4099 110.727 41.4096 110.728 41.4093L119.714 37.9447L119.718 37.9431C121.126 37.4049 122.602 37.2126 123.926 37.9075C125.218 38.586 125.957 39.902 126.427 41.3761L136.716 73.5032C136.716 73.5029 136.716 73.5034 136.716 73.5032C137.143 74.8331 137.58 76.1549 138.027 77.4771L138.032 77.4893L138.036 77.5016C138.219 78.075 138.307 78.6741 138.299 79.2752C138.397 80.2033 138.199 81.14 137.732 81.9502C137.241 82.799 136.483 83.4606 135.575 83.8308L135.563 83.8358C131.991 85.2566 128.406 86.6527 124.785 87.9503L124.781 87.9516C123.538 88.3932 122.291 88.1667 121.295 87.4859C120.818 87.1605 120.41 86.7413 120.075 86.2573C119.812 86.5443 119.5 86.7665 119.191 86.944C117.523 87.9392 116.03 89.2009 114.77 90.6789C114.232 91.3087 113.287 91.3839 112.657 90.8469C112.027 90.3099 111.952 89.364 112.489 88.7342C113.964 87.0037 115.714 85.5269 117.668 84.3629L117.679 84.3559L117.691 84.3491C117.7 84.344 117.709 84.3391 117.717 84.3342C117.701 84.2774 117.681 84.2104 117.654 84.1305L117.653 84.128C116.448 80.5309 115.286 76.9119 114.128 73.3057C113.909 72.6243 113.69 71.9432 113.471 71.2629C111.281 64.4389 109.094 57.6139 106.91 50.7899C101.937 51.939 96.755 51.8534 91.8174 50.5359C90.3155 50.1683 88.8398 49.7844 87.3769 49.4038C84.1815 48.5725 81.0469 47.757 77.8321 47.1613C74.8184 46.6171 72.1968 46.476 69.6253 47.6332L69.6155 47.6376C67.2576 48.6784 65.075 50.0774 63.1448 51.7849C62.6994 52.2406 62.166 52.6013 61.5766 52.8448C60.9653 53.0974 60.3077 53.2183 59.6466 53.1996C58.8193 53.1762 58.1675 52.4866 58.1909 51.6592C58.2143 50.8319 58.9039 50.1802 59.7313 50.2036C59.9713 50.2103 60.21 50.1665 60.4319 50.0748C60.6538 49.9831 60.8539 49.8456 61.0192 49.6713L61.0632 49.6249L61.1111 49.5823C63.2832 47.652 65.7424 46.0715 68.4005 44.8976C71.8207 43.3604 75.1907 43.6383 78.3683 44.2124L78.3749 44.2136C81.6979 44.8292 85.007 45.6898 88.2562 46.5347C89.6989 46.9099 91.1299 47.2821 92.545 47.6283L92.5605 47.6321L92.5759 47.6362C97.2297 48.8805 102.124 48.9142 106.795 47.7343C106.968 47.6875 107.172 47.6484 107.392 47.6378ZM46.6772 51.5371C48.9978 52.3895 51.4402 52.8636 53.9112 52.9412L53.9294 52.9418L57.521 53.1418C57.5234 53.1416 57.5403 53.1415 57.5955 53.1417C57.6588 53.1419 57.817 53.1426 57.9992 53.176C58.1923 53.2113 58.4656 53.2918 58.7361 53.4897C59.0182 53.696 59.2113 53.967 59.3276 54.2513C59.4546 54.5617 59.4962 54.9062 59.4296 55.2519C59.3675 55.5742 59.2278 55.8117 59.129 55.9531C59.041 56.0789 58.9467 56.1811 58.914 56.2165L58.9088 56.2222C58.9013 56.2303 58.8955 56.2367 58.8911 56.2415L58.8875 56.2461C57.4251 58.1011 55.8085 59.8292 54.0549 61.4119L53.998 61.4663C52.5963 62.8063 51.5859 63.7722 51.2144 65.3029C50.9423 66.4235 51.0444 67.328 51.3533 67.9832C51.6521 68.6169 52.2003 69.1421 53.0895 69.4457L53.0967 69.4481L53.1038 69.4506C54.734 70.0256 56.4767 70.2089 58.1908 69.9858C59.9051 69.7628 61.5428 69.1396 62.9716 68.1666L62.9834 68.1585L62.9954 68.1507C64.2149 67.3539 65.3796 66.4763 66.4818 65.5239L66.4891 65.5177C68.3961 63.8909 70.6037 62.7735 73.0402 62.5162C75.493 62.2571 78.0353 62.8853 80.5605 64.5078L80.5693 64.5135L80.5781 64.5193C86.4994 68.4423 92.0967 72.8335 97.3164 77.6507C99.4783 79.6087 101.609 81.5554 103.736 83.4984C106.525 86.0461 109.308 88.5876 112.144 91.1403L112.147 91.1433C112.466 91.4322 112.811 91.7009 113.204 92.0016C113.235 92.0258 113.267 92.0502 113.299 92.0749C113.651 92.3443 114.043 92.6445 114.421 92.9719C115.147 93.5816 115.74 94.3344 116.163 95.1834C116.587 96.0365 116.83 96.9683 116.877 97.92C116.924 98.8718 116.773 99.8229 116.434 100.714C116.098 101.597 115.584 102.403 114.924 103.08C114.359 103.685 113.666 104.154 112.894 104.454C112.116 104.756 111.279 104.877 110.447 104.807L108.656 104.658C108.774 104.835 108.878 105.024 108.964 105.221C109.292 105.965 109.368 106.794 109.184 107.582C108.928 109.857 107.719 111.727 106.004 112.746C104.239 113.795 102.014 113.888 100.027 112.69C99.6946 112.49 99.3622 112.288 99.0301 112.086C99.0952 112.204 99.1531 112.326 99.2032 112.452C99.4302 113.023 99.4872 113.646 99.3687 114.247C99.1462 116.679 97.8846 118.629 96.0401 119.638C94.1616 120.665 91.8383 120.624 89.7832 119.356L89.777 119.352L89.7709 119.348C88.3203 118.433 86.8685 117.525 85.4154 116.621C85.5426 116.812 85.6532 117.02 85.7429 117.246C86.1223 118.202 86.0094 119.204 85.7852 120.161L84.3261 119.819L85.7857 120.159C85.7855 120.159 85.7854 120.16 85.7852 120.161C85.2826 122.317 83.9269 123.978 82.1549 124.786C80.3747 125.596 78.2696 125.496 76.4391 124.311C76.4435 124.314 76.4478 124.316 76.4521 124.319L77.2427 123.046L76.4249 124.302C76.4296 124.305 76.4344 124.308 76.4391 124.311C75.6562 123.824 74.8897 123.315 74.1457 122.82L74.0958 122.787C73.3588 122.296 72.644 121.82 71.9226 121.369L71.9179 121.366C71.4989 121.102 70.8173 120.609 70.6253 119.723C70.4391 118.863 70.8237 118.123 71.0949 117.674L71.113 117.645L71.1324 117.616C71.4759 117.103 71.7078 116.524 71.8128 115.916C71.9178 115.308 71.8935 114.685 71.7417 114.086C71.5899 113.488 71.3139 112.929 70.9316 112.445C70.5493 111.96 70.0694 111.562 69.523 111.275L69.5167 111.272L69.5104 111.268C69.01 111 68.4392 110.891 67.8751 110.957L67.8723 110.957C67.4591 111.005 66.6679 111.034 66.0333 110.424C65.4933 109.904 65.3912 109.198 65.3478 108.885L65.3465 108.875L65.3453 108.866C65.1544 107.348 64.717 106.336 64.1387 105.664C63.5751 105.008 62.7649 104.543 61.5613 104.318L61.5507 104.316L61.5402 104.313C61.1545 104.236 60.7554 104.258 60.3812 104.38L60.3788 104.381C60.0107 104.499 59.1632 104.728 58.3812 104.192C57.6532 103.693 57.4963 102.868 57.4369 102.462L57.4355 102.453C57.2058 100.812 56.4467 99.6533 55.5116 99.0102C54.5895 98.3761 53.3764 98.157 52.0131 98.6038L52.0083 98.6054L52.0029 98.6071C51.6777 98.7125 50.9035 98.9633 50.1274 98.6168C49.2894 98.2426 48.9829 97.4368 48.839 96.9832L48.8265 96.9436L48.8161 96.9033C48.6826 96.3837 48.4313 95.9018 48.0817 95.4948C47.7321 95.0879 47.2935 94.7669 46.7999 94.5566C46.3064 94.3464 45.771 94.2525 45.2353 94.2822C44.6996 94.312 44.178 94.4646 43.7108 94.7283L43.7079 94.7299C43.3839 94.9118 42.764 95.2304 42.0141 95.0992C41.2378 94.9633 40.7581 94.4292 40.4869 94.0761L40.4821 94.0698C38.3635 91.2804 36.2182 88.5142 34.0465 85.7713L34.0331 85.7544L34.0202 85.7372C33.0839 84.4821 33.5854 83.1528 33.7553 82.7022C33.7725 82.6566 33.7863 82.6199 33.7949 82.5933L33.7968 82.5876C34.7063 79.8019 35.6247 77.0178 36.5426 74.235C37.0671 72.6451 37.5914 71.0557 38.1138 69.4667C38.1138 69.4669 38.1139 69.4666 38.1138 69.4667C38.3114 68.8651 38.5091 68.2634 38.7068 67.6617C40.2891 62.8457 41.8718 58.0283 43.4151 53.2032L43.4289 53.1603L43.4451 53.1183C43.5258 52.9101 43.6295 52.6555 43.7637 52.4214C43.899 52.1853 44.1259 51.86 44.5078 51.6182C45.3528 51.083 46.2382 51.3698 46.6772 51.5371ZM110.676 102.075L110.697 101.821C111.075 101.852 111.456 101.797 111.809 101.66C112.163 101.522 112.481 101.306 112.739 101.028L112.754 101.011L112.769 100.995C113.147 100.611 113.441 100.152 113.633 99.6478C113.825 99.1439 113.91 98.6057 113.884 98.0671C113.857 97.5285 113.719 97.0013 113.479 96.5186C113.239 96.0358 112.901 95.608 112.488 95.2621L112.478 95.2537L112.468 95.245C112.158 94.9766 111.833 94.7272 111.464 94.445L111.38 94.3801C110.991 94.0821 110.558 93.7474 110.139 93.3681C107.304 90.817 104.499 88.2545 101.697 85.6945C99.5664 83.7487 97.4378 81.8043 95.2991 79.8675L95.2938 79.8627L95.2886 79.8579C90.1879 75.1499 84.7181 70.8582 78.9318 67.024C76.9044 65.7235 75.0386 65.319 73.355 65.4968C71.6543 65.6764 69.9968 66.4661 68.4381 67.7946C67.2393 68.8303 65.9727 69.7849 64.6467 70.6521C62.8321 71.8851 60.7532 72.6749 58.5776 72.958C56.3998 73.2414 54.186 73.0091 52.1146 72.2799C50.5193 71.7336 49.3117 70.6812 48.6423 69.2613C47.9821 67.8609 47.9044 66.2326 48.3017 64.5958C48.8859 62.1891 50.4935 60.6617 51.7626 59.4559C51.843 59.3796 51.922 59.3045 51.9993 59.2305L52.0152 59.2153L52.0315 59.2006C53.1422 58.1992 54.1938 57.135 55.1813 56.0134L53.7987 55.9364C51.1882 55.8526 48.606 55.3771 46.1386 54.5266C44.633 59.2267 43.0913 63.9189 41.5542 68.5975C41.3565 69.1994 41.1588 69.801 40.9613 70.4024C40.4367 71.998 39.9112 73.5909 39.3863 75.1822C38.47 77.9599 37.5549 80.7339 36.6471 83.5145C36.6189 83.6018 36.5894 83.6881 36.5664 83.7555C36.5415 83.8288 36.5224 83.8857 36.5059 83.9386C36.4959 83.9706 36.4882 83.9973 36.4822 84.0192C38.5501 86.6324 40.5941 89.2665 42.614 91.9216C43.3816 91.5523 44.2158 91.337 45.069 91.2896C46.0638 91.2343 47.058 91.4087 47.9747 91.7992C48.8913 92.1897 49.7058 92.7859 50.3551 93.5416C50.8811 94.1539 51.2873 94.8576 51.5545 95.6159C53.5961 95.0833 55.6014 95.4344 57.2099 96.5406C58.7554 97.6033 59.836 99.2924 60.2785 101.333C60.8889 101.239 61.5132 101.252 62.1231 101.373C63.8522 101.699 65.321 102.442 66.4112 103.709C67.383 104.84 67.9597 106.277 68.2386 107.941C69.1716 107.948 70.0929 108.181 70.9218 108.624C71.8381 109.106 72.643 109.775 73.2844 110.588C73.4464 110.793 73.5971 111.006 73.736 111.227C73.6979 110.994 73.687 110.757 73.704 110.52C73.7334 110.113 73.8449 109.715 74.032 109.352L74.042 109.332L74.0525 109.313C74.4278 108.634 75.0669 108.103 75.925 107.982C76.715 107.871 77.4467 108.143 78.0269 108.507C79.5026 109.426 80.982 110.343 82.4629 111.26C85.4301 113.099 88.4032 114.942 91.3633 116.809C92.5432 117.535 93.7144 117.493 94.6019 117.008C95.4985 116.517 96.2655 115.482 96.3897 113.906L96.3989 113.789L96.4264 113.674C96.4356 113.636 96.4327 113.596 96.4182 113.56C96.4056 113.528 96.3846 113.5 96.3575 113.48C94.5193 112.38 92.7031 111.242 90.9021 110.114L90.8938 110.109C90.339 109.761 89.7816 109.413 89.2232 109.065C87.3202 107.876 85.4034 106.679 83.5233 105.461C83.2267 105.317 82.9565 105.123 82.7252 104.887C82.4567 104.613 82.2458 104.287 82.1052 103.93C81.9645 103.572 81.8973 103.191 81.9071 102.807C81.9168 102.425 82.0027 102.049 82.1598 101.701C82.4635 101.02 83.0297 100.356 83.9484 100.154C84.7866 99.9703 85.5696 100.255 86.1639 100.591C87.0711 101.106 87.8594 101.6 88.6612 102.102L88.7225 102.14C88.7233 102.141 88.7242 102.141 88.7251 102.142C90.2451 103.084 91.7535 104.031 93.2586 104.975C96.0243 106.71 98.779 108.438 101.575 110.123C102.585 110.733 103.627 110.672 104.472 110.169C105.338 109.655 106.071 108.624 106.213 107.174L106.225 107.049L106.258 106.927C106.303 106.762 106.29 106.586 106.221 106.429C106.152 106.272 106.031 106.143 105.879 106.065L105.866 106.058L105.853 106.051C104.984 105.582 104.141 105.067 103.327 104.508C101.81 103.562 100.283 102.617 98.7526 101.669C96.481 100.263 94.2028 98.8521 91.9405 97.4292L91.9385 97.4279C91.242 96.9883 90.5546 96.4122 90.2153 95.6144C89.8211 94.6872 90.0235 93.7905 90.4685 93.0785C90.8742 92.4294 91.5648 91.7744 92.6406 91.7975C93.4512 91.8148 94.1957 92.2416 94.7614 92.6081L108.649 101.271L108.661 101.278C109.222 101.643 109.891 101.803 110.555 101.734L110.676 102.075ZM74.471 112.76C74.5376 112.954 74.5963 113.15 74.6468 113.349C74.9021 114.355 74.9429 115.403 74.7663 116.426C74.6083 117.341 74.2796 118.217 73.7982 119.009C74.4578 119.427 75.1073 119.859 75.7416 120.282L75.8063 120.325C76.5593 120.826 77.292 121.312 78.0332 121.773L78.0469 121.781L78.0605 121.79C79.0341 122.424 80.0598 122.446 80.9125 122.058C81.7775 121.664 82.5595 120.798 82.8665 119.479L82.867 119.477C83.0524 118.686 82.9895 118.433 82.9568 118.351C82.9305 118.284 82.8301 118.086 82.1995 117.697L82.1956 117.694L75.358 113.439C75.0262 113.272 74.7281 113.044 74.4786 112.769C74.476 112.766 74.4735 112.763 74.471 112.76ZM51.0834 95.7544C50.9856 95.786 50.9382 95.7968 50.9252 95.7997C50.9191 95.801 50.9206 95.8006 50.928 95.7999C50.9482 95.7978 51.0094 95.7933 51.0961 95.8058L51.2332 96.2241L50.2676 96.5303L51.2508 96.2776L51.5464 97.1797L51.2539 96.2768L51.7104 96.1595C51.7189 96.1709 51.726 96.1811 51.7315 96.1896C51.7408 96.2037 51.7451 96.212 51.7453 96.2119C51.7455 96.2118 51.7311 96.1828 51.7065 96.1093M42.2392 92.1172C42.1763 92.1524 42.1475 92.1646 42.1448 92.1659C42.1434 92.1666 42.1496 92.1641 42.1623 92.1603C42.1805 92.1548 42.2108 92.1472 42.2509 92.1413L42.4793 92.5462L41.6755 93.1634L42.482 92.5508L42.9743 93.4232L42.4838 92.5495L42.8529 92.2691C42.8712 92.2808 42.8863 92.2917 42.8981 92.3008C42.9148 92.3138 42.9233 92.322 42.9233 92.322C42.9234 92.3219 42.9054 92.304 42.8689 92.257M46.3641 53.9119C46.3662 53.9082 46.366 53.909 46.3632 53.9135C46.3635 53.9129 46.3638 53.9124 46.3641 53.9119ZM24.8971 71.019L25.0163 71.0282C26.3054 71.1276 27.5032 71.732 28.3491 72.7099C29.1761 73.666 29.6014 74.9036 29.5384 76.1641C29.557 76.7842 29.4578 77.4026 29.2457 77.9862C29.0238 78.5969 28.6828 79.1574 28.2424 79.6352C27.8021 80.1131 27.2711 80.4986 26.6806 80.7695C26.0901 81.0405 25.4516 81.1914 24.8022 81.2135L24.6836 81.2176L24.5659 81.2029C23.3101 81.0465 22.1569 80.4301 21.3291 79.4729C20.5013 78.5156 20.0577 77.2856 20.084 76.0203C20.1104 74.7551 20.6048 73.5445 21.4717 72.6226C22.3387 71.7006 23.5167 71.1328 24.7779 71.0288L24.8971 71.019ZM24.9037 74.0294C24.4273 74.0962 23.9864 74.3236 23.6552 74.6758C23.2962 75.0576 23.0915 75.5588 23.0806 76.0827C23.0697 76.6066 23.2534 77.1159 23.5961 77.5123C23.9126 77.8783 24.3439 78.1239 24.8175 78.2104C25.0294 78.19 25.2368 78.1343 25.4308 78.0453C25.6606 77.9399 25.8672 77.7899 26.0384 77.6041C26.2097 77.4182 26.3423 77.2002 26.4287 76.9626C26.515 76.7251 26.5532 76.4727 26.5412 76.2202L26.5371 76.134L26.5429 76.0479C26.5769 75.5461 26.4113 75.0512 26.0823 74.6708C25.7791 74.3203 25.3599 74.0932 24.9037 74.0294ZM127.407 71.1895L127.519 71.1965C128.767 71.2738 129.939 71.8198 130.801 72.725C131.663 73.6303 132.151 74.8279 132.168 76.0778C132.184 77.3277 131.727 78.5377 130.889 79.4651C130.051 80.3925 128.893 80.9689 127.648 81.0787L127.536 81.0886L127.424 81.0816C126.176 81.0043 125.004 80.4583 124.141 79.5531C123.279 78.6479 122.791 77.4503 122.775 76.2003C122.759 74.9503 123.216 73.7404 124.054 72.813C124.892 71.8856 126.049 71.3092 127.295 71.1994L127.407 71.1895ZM127.446 74.1982C126.997 74.264 126.583 74.4842 126.277 74.8227C125.946 75.1893 125.766 75.6674 125.772 76.1612C125.778 76.6552 125.971 77.1284 126.312 77.4861C126.627 77.8165 127.046 78.0258 127.497 78.0799C127.946 78.0141 128.359 77.7939 128.665 77.4554C128.997 77.089 129.177 76.6109 129.171 76.1169C129.164 75.623 128.971 75.1497 128.631 74.792C128.316 74.4616 127.897 74.2523 127.446 74.1982ZM40.4809 96.0809C41.165 96.5468 41.3419 97.4791 40.876 98.1631C40.6997 98.4219 40.5424 98.6932 40.4052 98.9749L40.3975 98.9908L40.3893 99.0066C40.0542 99.6551 39.8967 100.381 39.9327 101.11C39.9688 101.839 40.1972 102.545 40.5947 103.157L40.635 103.22L40.669 103.285C40.9876 103.902 41.4908 104.403 42.1082 104.719C42.7181 105.031 43.4095 105.148 44.0876 105.052C44.5822 104.962 45.3928 104.923 46.0601 105.536C46.6347 106.064 46.7627 106.798 46.8161 107.191C47.0372 108.694 47.7222 109.792 48.5836 110.44C49.4358 111.082 50.5495 111.354 51.8111 111.065L51.8183 111.063L51.8256 111.062C52.016 111.02 52.2755 110.971 52.5522 110.97C52.8425 110.97 53.2434 111.021 53.6373 111.267C54.4226 111.757 54.5719 112.622 54.6281 113.01L54.6295 113.02C54.8509 114.627 55.585 115.784 56.5019 116.445C57.4066 117.098 58.5931 117.348 59.9287 116.969C60.3593 116.846 61.1418 116.689 61.8812 117.164C62.5414 117.588 62.7825 118.291 62.895 118.644L62.8977 118.653C63.4337 120.369 64.4067 121.292 65.3645 121.624C66.3036 121.949 67.5265 121.81 68.8223 120.79C69.4725 120.277 70.4147 120.389 70.9268 121.04C71.439 121.69 71.3271 122.632 70.6769 123.144C68.7257 124.681 66.4517 125.172 64.3836 124.456C62.4618 123.79 60.9839 122.175 60.1866 119.989C58.2021 120.399 56.282 119.983 54.7483 118.876C53.2498 117.795 52.2058 116.12 51.7797 114.113C49.9375 114.358 48.1848 113.891 46.7813 112.835C45.3221 111.737 44.3185 110.063 43.9276 108.075C42.8277 108.128 41.729 107.892 40.7423 107.387C39.5905 106.797 38.6481 105.869 38.0411 104.728C37.3802 103.686 37.0002 102.491 36.9392 101.258C36.8773 100.006 37.1461 98.7609 37.7183 97.6467C37.9169 97.2408 38.1443 96.8496 38.3987 96.476C38.8646 95.7919 39.7969 95.615 40.4809 96.0809ZM135.309 121.198C135.282 121.198 135.259 121.22 135.259 121.248C135.259 121.275 135.282 121.297 135.309 121.297C135.337 121.297 135.359 121.275 135.359 121.248C135.359 121.22 135.337 121.198 135.309 121.198ZM132.262 121.248C132.262 119.565 133.626 118.2 135.309 118.2C136.992 118.2 138.356 119.565 138.356 121.248C138.356 122.93 136.992 124.295 135.309 124.295C133.626 124.295 132.262 122.93 132.262 121.248ZM125.668 131.548C125.64 131.548 125.618 131.57 125.618 131.598C125.618 131.626 125.64 131.648 125.668 131.648C125.696 131.648 125.718 131.626 125.718 131.598C125.718 131.57 125.696 131.548 125.668 131.548ZM122.621 131.598C122.621 129.915 123.985 128.551 125.668 128.551C127.351 128.551 128.715 129.915 128.715 131.598C128.715 133.281 127.351 134.645 125.668 134.645C123.985 134.645 122.621 133.281 122.621 131.598ZM114.049 140.11C114.021 140.11 113.999 140.132 113.999 140.16C113.999 140.188 114.021 140.21 114.049 140.21C114.076 140.21 114.099 140.188 114.099 140.16C114.099 140.132 114.076 140.11 114.049 140.11ZM111.002 140.16C111.002 138.477 112.366 137.113 114.049 137.113C115.732 137.113 117.096 138.477 117.096 140.16C117.096 141.843 115.732 143.207 114.049 143.207C112.366 143.207 111.002 141.843 111.002 140.16Z" fill="#1DB099"/>
</svg>
