<svg width="152" height="152" viewBox="0 0 152 152" fill="none" xmlns="http://www.w3.org/2000/svg">
<path fill-rule="evenodd" clip-rule="evenodd" d="M75.946 15.8749C76.5143 15.8749 77.0337 16.1963 77.2872 16.7049L81.8447 25.8478L91.9533 27.3608C92.5151 27.4449 92.9811 27.8395 93.1567 28.3797C93.3323 28.92 93.1873 29.5131 92.7822 29.9114L85.4957 37.0773L87.185 47.1479C87.279 47.7083 87.0479 48.2736 86.5884 48.6078C86.1288 48.942 85.5198 48.9876 85.0156 48.7254L75.9463 44.0098L66.8869 48.7251C66.383 48.9874 65.774 48.9422 65.3144 48.6084C64.8547 48.2746 64.6233 47.7096 64.7168 47.1492L66.3969 37.0779L59.1097 29.9114C58.7047 29.5131 58.5597 28.92 58.7353 28.3797C58.9109 27.8395 59.3769 27.4449 59.9387 27.3608L70.0473 25.8478L74.6048 16.7049C74.8583 16.1963 75.3777 15.8749 75.946 15.8749ZM75.946 20.7327L72.3817 27.883C72.1636 28.3205 71.7458 28.6242 71.2623 28.6965L63.3528 29.8804L69.0541 35.4873C69.4024 35.8298 69.5619 36.3206 69.4815 36.8024L68.1674 44.6797L75.2541 40.9912C75.6875 40.7655 76.2038 40.7654 76.6373 40.9909L83.7318 44.6797L82.4107 36.8037C82.3298 36.3215 82.4892 35.8302 82.8379 35.4873L88.5392 29.8804L80.6296 28.6965C80.1461 28.6242 79.7283 28.3205 79.5102 27.883L75.946 20.7327Z" fill="#1DB099"/>
<path fill-rule="evenodd" clip-rule="evenodd" d="M47.3324 33.7184C47.9003 33.7184 48.4194 34.0395 48.6731 34.5476L51.8218 40.8538L58.7938 41.8974C59.3558 41.9815 59.8219 42.3763 59.9974 42.9168C60.1729 43.4573 60.0275 44.0505 59.6221 44.4487L54.5937 49.3871L55.7541 56.3406C55.8477 56.9011 55.6162 57.4662 55.1564 57.8C54.6966 58.1339 54.0876 58.1789 53.5837 57.9165L47.3324 54.6604L41.081 57.9165C40.5771 58.1789 39.9681 58.1339 39.5083 57.8C39.0485 57.4662 38.817 56.9011 38.9106 56.3406L40.071 49.3871L35.0426 44.4487C34.6372 44.0505 34.4919 43.4573 34.6673 42.9168C34.8428 42.3763 35.3089 41.9815 35.8709 41.8974L42.8429 40.8538L45.9916 34.5476C46.2453 34.0395 46.7644 33.7184 47.3324 33.7184ZM47.3324 38.5719L45.1764 42.89C44.9581 43.3271 44.5406 43.6304 44.0574 43.7027L39.2875 44.4166L42.7276 47.7953C43.0764 48.1378 43.2362 48.6289 43.1557 49.1111L42.3616 53.87L46.6401 51.6415C47.0739 51.4156 47.5908 51.4156 48.0247 51.6415L52.3031 53.87L51.509 49.1111C51.4285 48.6289 51.5883 48.1378 51.9371 47.7953L55.3772 44.4166L50.6073 43.7027C50.1241 43.6304 49.7066 43.3271 49.4883 42.89L47.3324 38.5719Z" fill="#1DB099"/>
<path fill-rule="evenodd" clip-rule="evenodd" d="M34.4542 56.8271C35.0223 56.8271 35.5415 57.1483 35.7951 57.6565L38.1545 62.3841L43.3881 63.1678C43.9499 63.2519 44.4158 63.6464 44.5914 64.1866C44.767 64.7268 44.6221 65.3198 44.2172 65.7182L40.4467 69.4278L41.3174 74.6437C41.4109 75.2038 41.1798 75.7687 40.7204 76.1026C40.261 76.4366 39.6524 76.4821 39.1484 76.2203L34.4549 73.7821L29.771 76.2198C29.2671 76.4821 28.6582 76.4368 28.1985 76.103C27.7388 75.7691 27.5075 75.204 27.601 74.6437L28.4718 69.4278L24.7012 65.7182C24.2964 65.3199 24.1515 64.7269 24.327 64.1868C24.5025 63.6466 24.9683 63.2521 25.5299 63.1679L30.7538 62.3843L33.1133 57.6565C33.367 57.1483 33.8862 56.8271 34.4542 56.8271ZM34.4542 61.6817L33.0876 64.4199C32.8695 64.857 32.4521 65.1603 31.969 65.2328L28.9429 65.6867L31.1293 67.8377C31.4774 68.1802 31.6368 68.671 31.5564 69.1527L31.052 72.1743L33.7624 70.7637C34.1956 70.5382 34.7116 70.538 35.1451 70.7631L37.8669 72.1771L37.362 69.1527C37.2816 68.671 37.441 68.1802 37.7892 67.8377L39.9749 65.6873L36.9398 65.2328C36.4566 65.1605 36.039 64.8571 35.8208 64.4199L34.4542 61.6817Z" fill="#1DB099"/>
<path fill-rule="evenodd" clip-rule="evenodd" d="M104.559 33.7184C105.127 33.7181 105.647 34.0392 105.9 34.5476L109.049 40.8538L116.021 41.8974C116.583 41.9815 117.049 42.3763 117.225 42.9168C117.4 43.4573 117.255 44.0505 116.849 44.4487L111.821 49.3871L112.981 56.3406C113.075 56.9011 112.843 57.4662 112.384 57.8C111.924 58.1339 111.315 58.1789 110.811 57.9165L104.56 54.6604L98.3083 57.9165C97.8041 58.1791 97.1946 58.1338 96.7348 57.7995C96.2749 57.4652 96.0439 56.8994 96.1381 56.3388L97.3074 49.3863L92.2799 44.4487C91.8745 44.0505 91.7291 43.4573 91.9046 42.9168C92.08 42.3763 92.5461 41.9815 93.1081 41.8974L100.079 40.854L103.218 34.5491C103.471 34.0404 103.991 33.7188 104.559 33.7184ZM104.562 38.5757L102.414 42.8885C102.196 43.3264 101.778 43.6303 101.295 43.7027L96.5247 44.4166L99.9649 47.7953C100.314 48.1383 100.474 48.6302 100.393 49.113L99.593 53.8679L103.867 51.6415C104.301 51.4156 104.818 51.4156 105.252 51.6415L109.53 53.87L108.736 49.1111C108.656 48.6289 108.816 48.1378 109.164 47.7953L112.604 44.4166L107.835 43.7027C107.351 43.6304 106.934 43.3271 106.716 42.89L104.562 38.5757Z" fill="#1DB099"/>
<path fill-rule="evenodd" clip-rule="evenodd" d="M117.438 56.8271C118.006 56.8271 118.525 57.1483 118.779 57.6565L121.138 62.3841L126.372 63.1678C126.934 63.252 127.4 63.6468 127.575 64.1874C127.751 64.728 127.605 65.3213 127.199 65.7194L123.421 69.4278L124.301 74.6413C124.395 75.2017 124.164 75.7674 123.705 76.1019C123.245 76.4365 122.636 76.4823 122.132 76.2203L117.438 73.7818L112.744 76.2203C112.24 76.4821 111.631 76.4366 111.172 76.1026C110.712 75.7687 110.481 75.2038 110.575 74.6437L111.445 69.4278L107.675 65.7182C107.27 65.3198 107.125 64.7268 107.301 64.1866C107.476 63.6464 107.942 63.2519 108.504 63.1678L113.737 62.3841L116.097 57.6565C116.351 57.1483 116.87 56.8271 117.438 56.8271ZM117.438 61.6817L116.071 64.4199C115.853 64.8571 115.435 65.1605 114.952 65.2328L111.917 65.6873L114.103 67.8377C114.451 68.1802 114.61 68.671 114.53 69.1527L114.025 72.1771L116.747 70.7631C117.18 70.5382 117.695 70.5382 118.129 70.7631L120.845 72.1743L120.336 69.1551C120.254 68.6721 120.414 68.1796 120.764 67.8365L122.954 65.6867L119.923 65.2328C119.44 65.1605 119.023 64.8571 118.804 64.4199L117.438 61.6817Z" fill="#1DB099"/>
<path fill-rule="evenodd" clip-rule="evenodd" d="M92.4165 104.124C93.1834 103.812 94.0574 104.182 94.3688 104.948L102.981 126.159C103.189 126.672 103.098 127.258 102.743 127.683C102.388 128.108 101.827 128.303 101.285 128.189L89.8451 125.795L83.3129 135.483C83.0034 135.942 82.4659 136.193 81.9152 136.136C81.3645 136.079 80.8903 135.722 80.6819 135.209L74.5575 120.133C74.246 119.366 74.6152 118.492 75.382 118.181C76.1488 117.869 77.0229 118.238 77.3344 119.005L82.4002 131.475L87.7487 123.543C87.8996 123.178 88.1926 122.877 88.5772 122.724L88.6271 122.704C89.0059 122.552 89.4186 122.565 89.7759 122.718L99.1453 124.679L91.5918 106.076C91.2804 105.309 91.6496 104.435 92.4165 104.124Z" fill="#1DB099"/>
<path fill-rule="evenodd" clip-rule="evenodd" d="M59.8247 103.962C60.5871 104.284 60.944 105.163 60.6218 105.926L52.775 124.495L62.1878 122.665C62.5767 122.508 63.0247 122.518 63.4185 122.715L63.4585 122.735C63.7829 122.897 64.0286 123.166 64.1652 123.484L69.4265 131.531L79.4411 107.836C79.7633 107.074 80.6425 106.717 81.4049 107.039C82.1673 107.361 82.5241 108.241 82.2019 109.003L71.0921 135.289C70.8765 135.799 70.3973 136.148 69.8458 136.198C69.2943 136.247 68.7605 135.989 68.4574 135.525L62.0613 125.743L50.5856 127.974C50.0421 128.08 49.4846 127.877 49.1357 127.447C48.7869 127.017 48.7037 126.43 48.9192 125.92L57.8609 104.759C58.1831 103.997 59.0623 103.64 59.8247 103.962Z" fill="#1DB099"/>
<path fill-rule="evenodd" clip-rule="evenodd" d="M73.4009 53.7364C72.9602 53.9909 72.4096 54.2507 71.7738 54.351C71.1389 54.4513 70.5353 54.3745 70.0374 54.2687C69.6115 54.1782 69.1785 54.0459 68.8204 53.9364C68.7669 53.9201 68.7151 53.9042 68.6652 53.8891C67.7405 53.6089 67.3738 53.5703 67.1637 53.6379C66.9573 53.7044 66.6819 53.949 66.0977 54.7193C66.0641 54.7635 66.0293 54.8097 65.9933 54.8575C65.7693 55.1544 65.4993 55.5124 65.2127 55.8321C64.8743 56.2095 64.4332 56.6276 63.8636 56.9207C63.2934 57.2142 62.6962 57.33 62.1911 57.3853C61.7562 57.433 61.3011 57.443 60.9241 57.4513C60.8698 57.4525 60.8171 57.4536 60.7663 57.4548C59.7946 57.4784 59.4267 57.5552 59.246 57.6849C59.0749 57.8078 58.8864 58.1268 58.5641 59.0479C58.5455 59.101 58.5263 59.1565 58.5064 59.2138C58.384 59.5667 58.2369 59.9909 58.063 60.3828C57.8578 60.8448 57.5668 61.3803 57.114 61.8331C56.6599 62.2872 56.1217 62.5784 55.6583 62.7831C55.264 62.9573 54.8371 63.1042 54.4823 63.2264C54.4256 63.2459 54.3707 63.2648 54.318 63.2831C53.8989 63.4287 53.5861 63.5465 53.3368 63.678C53.0932 63.8066 53.0038 63.9014 52.9718 63.9467C52.8457 64.1249 52.7694 64.4985 52.7444 65.4775C52.7431 65.5274 52.7419 65.579 52.7406 65.6322C52.7317 66.0116 52.721 66.4679 52.6731 66.9035C52.6179 67.4064 52.5033 68.0019 52.2135 68.5689C51.9234 69.1366 51.5068 69.5786 51.1316 69.9178C50.8093 70.2091 50.4484 70.4836 50.1482 70.712C50.1034 70.746 50.06 70.7791 50.0182 70.811C49.2393 71.4063 48.9909 71.6839 48.9259 71.8816C48.9066 71.9402 48.8834 72.0756 48.9231 72.3543C48.9635 72.6382 49.0518 72.9648 49.1784 73.3903C49.1946 73.4448 49.2116 73.5015 49.2292 73.5601C49.3371 73.9192 49.4662 74.3489 49.5552 74.767C49.66 75.2588 49.74 75.8614 49.6425 76.4893C49.5442 77.1216 49.282 77.6702 49.0296 78.1047C48.8169 78.471 48.5619 78.8356 48.3499 79.1387C48.3143 79.1897 48.2799 79.2389 48.247 79.2862C47.697 80.0776 47.5422 80.4259 47.5422 80.6551C47.5422 80.8836 47.6936 81.2238 48.2429 82.0135C48.2737 82.0578 48.306 82.1039 48.3393 82.1516C48.5528 82.4568 48.811 82.8259 49.0272 83.2002C49.2817 83.6409 49.5415 84.1916 49.6419 84.8273C49.7421 85.4622 49.6654 86.0669 49.5598 86.5655C49.4694 86.9929 49.337 87.4279 49.2275 87.7881C49.2112 87.8414 49.1955 87.8931 49.1805 87.9429C48.8992 88.8753 48.8618 89.2411 48.9278 89.4445C48.9933 89.6465 49.2384 89.9212 50.0142 90.5099C50.0563 90.5419 50.1003 90.5751 50.1456 90.6093C50.4452 90.8355 50.8067 91.1085 51.1295 91.3992C51.5067 91.7389 51.9249 92.1825 52.2155 92.7553C52.5055 93.3268 52.6173 93.9252 52.6698 94.4294C52.7145 94.8585 52.7229 95.3089 52.7299 95.6826C52.731 95.7414 52.7321 95.7983 52.7333 95.8529C52.754 96.8255 52.8332 97.1839 52.9577 97.354C53.0851 97.5281 53.4066 97.7137 54.3263 98.0336C54.3757 98.0508 54.4271 98.0686 54.4801 98.0869C54.8356 98.2096 55.2645 98.3577 55.6621 98.5347C56.1261 98.7412 56.6604 99.0335 57.114 99.4871C57.567 99.9401 57.8603 100.475 58.068 100.939C58.2465 101.337 58.3964 101.767 58.5209 102.124C58.5393 102.177 58.5573 102.228 58.5747 102.278C58.7219 102.697 58.8406 103.01 58.9732 103.262C59.1028 103.508 59.1995 103.602 59.2489 103.637C59.4206 103.761 59.7921 103.842 60.7724 103.869C60.8269 103.871 60.8835 103.872 60.942 103.874C61.3179 103.884 61.7681 103.895 62.1959 103.942C62.6959 103.996 63.2909 104.109 63.8559 104.396C64.4253 104.685 64.8679 105.103 65.2057 105.478C65.495 105.799 65.7687 106.159 65.9965 106.459C66.0317 106.506 66.0658 106.55 66.0986 106.594C66.3681 106.947 66.5791 107.209 66.784 107.409C66.9849 107.604 67.1065 107.664 67.1634 107.682C67.2246 107.702 67.3621 107.724 67.6415 107.684C67.9259 107.643 68.2522 107.555 68.677 107.429C68.7297 107.413 68.7846 107.397 68.8411 107.38C69.2008 107.272 69.6315 107.143 70.0514 107.054C70.5429 106.95 71.1437 106.871 71.7702 106.969C72.4004 107.067 72.9483 107.327 73.3831 107.578C73.7493 107.789 74.1142 108.042 74.4181 108.253C74.4696 108.288 74.5194 108.323 74.5671 108.356C75.3605 108.902 75.7129 109.059 75.946 109.059C76.1771 109.059 76.5186 108.907 77.3073 108.361C77.3518 108.33 77.398 108.298 77.4459 108.265C77.751 108.053 78.1197 107.796 78.4936 107.581C78.9341 107.328 79.4839 107.069 80.1182 106.969C80.7546 106.869 81.3593 106.947 81.8572 107.054C82.281 107.144 82.7124 107.277 83.069 107.387C83.1241 107.403 83.1775 107.42 83.2287 107.435C84.153 107.717 84.5145 107.753 84.7194 107.685C84.9334 107.615 85.2117 107.364 85.7951 106.596C85.8281 106.553 85.8623 106.507 85.8977 106.461C86.1222 106.164 86.3928 105.805 86.6805 105.485C87.0192 105.109 87.4599 104.692 88.0284 104.4C88.5999 104.105 89.1982 103.99 89.7036 103.936C90.1362 103.889 90.5895 103.88 90.9648 103.873C91.021 103.871 91.0754 103.87 91.1278 103.869C92.098 103.847 92.4615 103.769 92.6395 103.64C92.8172 103.511 93.0066 103.186 93.3281 102.268C93.3465 102.215 93.3655 102.161 93.3852 102.104C93.5078 101.751 93.6551 101.327 93.8295 100.935C94.0348 100.473 94.3258 99.9393 94.778 99.4871C95.232 99.033 95.7703 98.7419 96.2337 98.5372C96.628 98.363 97.0548 98.216 97.4096 98.0939C97.4663 98.0743 97.5213 98.0554 97.5739 98.0371C97.993 97.8916 98.3058 97.7738 98.5551 97.6422C98.7988 97.5136 98.8881 97.4189 98.9202 97.3735C99.0462 97.1953 99.1226 96.8218 99.1476 95.8428C99.1489 95.7929 99.1501 95.7412 99.1513 95.6881C99.1602 95.3087 99.1709 94.8524 99.2188 94.4168C99.2741 93.9139 99.3886 93.3183 99.6785 92.7513C99.969 92.1828 100.386 91.7411 100.762 91.4025C101.083 91.1131 101.443 90.8402 101.742 90.6133C101.788 90.5784 101.832 90.5446 101.875 90.512C102.652 89.9198 102.9 89.6422 102.965 89.4416C103.03 89.2418 102.994 88.866 102.714 87.9267C102.697 87.8719 102.68 87.8149 102.663 87.7559C102.555 87.3979 102.426 86.9693 102.337 86.5524C102.232 86.0609 102.152 85.4589 102.25 84.8309C102.348 84.1992 102.61 83.6504 102.862 83.2154C103.074 82.8488 103.328 82.4836 103.54 82.1795C103.576 82.1282 103.611 82.0786 103.644 82.0311C104.194 81.2368 104.35 80.8857 104.35 80.6551C104.35 80.4333 104.201 80.0973 103.65 79.3065C103.62 79.2631 103.588 79.218 103.555 79.1715C103.341 78.8658 103.082 78.4958 102.865 78.1201C102.61 77.6794 102.351 77.1287 102.25 76.4929C102.15 75.8581 102.227 75.2534 102.332 74.7548C102.423 74.3273 102.555 73.8924 102.665 73.5322C102.681 73.4789 102.696 73.4272 102.711 73.3774C102.993 72.445 103.03 72.0792 102.964 71.8757C102.899 71.6737 102.654 71.3991 101.878 70.8103C101.836 70.7783 101.792 70.7452 101.746 70.711C101.447 70.4848 101.085 70.2118 100.762 69.9211C100.385 69.5814 99.967 69.1377 99.6764 68.565C99.3865 67.9935 99.2746 67.3951 99.2221 66.8909C99.1774 66.4618 99.169 66.0114 99.162 65.6377C99.1609 65.5789 99.1598 65.522 99.1587 65.4674C99.1379 64.4947 99.0587 64.1364 98.9342 63.9663C98.8068 63.7922 98.4853 63.6066 97.5657 63.2866C97.5162 63.2694 97.4648 63.2517 97.4118 63.2334C97.0563 63.1106 96.6275 62.9626 96.2298 62.7856C95.7658 62.579 95.2316 62.2868 94.778 61.8331C94.3249 61.3801 94.0316 60.8454 93.8239 60.3815C93.6455 59.983 93.4956 59.5531 93.3711 59.1962C93.3526 59.1432 93.3347 59.0918 93.3173 59.0423C93.1701 58.6233 93.0514 58.3098 92.9188 58.0584C92.7891 57.8125 92.6925 57.7185 92.6431 57.6829C92.4714 57.559 92.0999 57.4787 91.1195 57.4509C91.065 57.4494 91.0084 57.4479 90.95 57.4464C90.574 57.4367 90.1238 57.425 89.696 57.3784C89.196 57.3239 88.6011 57.2114 88.036 56.9246C87.4667 56.6357 87.0241 56.2169 86.6862 55.8421C86.3969 55.5212 86.1233 55.1609 85.8954 54.8609C85.8603 54.8146 85.8262 54.7697 85.7933 54.7267C85.5239 54.3737 85.3128 54.1108 85.108 53.9115C84.9071 53.716 84.7855 53.6563 84.7286 53.638C84.6674 53.6183 84.5299 53.596 84.2505 53.6362C83.9661 53.6771 83.6398 53.7654 83.215 53.8915C83.1622 53.9072 83.1075 53.9236 83.0509 53.9405C82.6912 54.0483 82.2605 54.1774 81.8405 54.2662C81.3491 54.3702 80.7483 54.449 80.1218 54.3516C79.49 54.2534 78.9412 53.9916 78.5063 53.7396C78.1396 53.5273 77.7744 53.2727 77.4704 53.0608C77.4191 53.025 77.3695 52.9905 77.3219 52.9576C76.5276 52.4075 76.1766 52.2513 75.946 52.2513C75.7175 52.2513 75.3773 52.4027 74.5876 52.952C74.5433 52.9829 74.4972 53.0151 74.4495 53.0484C74.1443 53.262 73.7752 53.5202 73.4009 53.7364ZM72.9167 50.4632C73.5683 50.0096 74.6533 49.2541 75.946 49.2541C77.24 49.2541 78.336 50.0137 78.9924 50.4686L79.0284 50.4936C79.0888 50.5354 79.1468 50.5757 79.2027 50.6146C79.5118 50.8296 79.7595 51.0018 80.0086 51.1461C80.2965 51.3128 80.4745 51.3732 80.582 51.3899C80.6949 51.4075 80.8896 51.4038 81.2202 51.3339C81.5093 51.2727 81.8074 51.1837 82.1763 51.0736C82.2362 51.0557 82.298 51.0372 82.3619 51.0183C82.7826 50.8934 83.2986 50.745 83.8238 50.6695C84.354 50.5932 84.9932 50.5746 85.6464 50.7847C86.3038 50.9962 86.8129 51.3886 87.198 51.7632C87.5792 52.134 87.9095 52.5592 88.1758 52.9081C88.2153 52.9598 88.2534 53.0099 88.2904 53.0586C88.525 53.3669 88.714 53.6152 88.9123 53.8351C89.138 54.0855 89.2923 54.2011 89.3924 54.2519C89.4967 54.3048 89.6848 54.3622 90.0209 54.3988C90.3157 54.431 90.6278 54.4393 91.0138 54.4497C91.0754 54.4513 91.1388 54.453 91.2044 54.4549C91.2235 54.4554 91.243 54.456 91.2628 54.4565C92.0537 54.4785 93.3749 54.5151 94.3965 55.252C94.9565 55.656 95.3194 56.1851 95.5701 56.6605C95.8178 57.1302 96 57.636 96.1451 58.0487C96.1655 58.1069 96.1852 58.1634 96.2044 58.2182C96.3334 58.5869 96.4373 58.8838 96.5594 59.1566C96.697 59.4639 96.8108 59.6273 96.8973 59.7138C96.9832 59.7997 97.1446 59.912 97.4486 60.0474C97.7191 60.1677 98.0132 60.2696 98.3803 60.3967C98.4353 60.4158 98.492 60.4354 98.5505 60.4558C98.5686 60.4621 98.5871 60.4685 98.6058 60.475C99.3524 60.7342 100.6 61.1675 101.353 62.1964C102.11 63.2309 102.138 64.5577 102.154 65.3486C102.154 65.3672 102.155 65.3855 102.155 65.4035C102.157 65.4701 102.158 65.5346 102.159 65.597C102.167 65.9803 102.173 66.2881 102.203 66.5804C102.238 66.9126 102.295 67.101 102.349 67.2089C102.403 67.3154 102.521 67.4713 102.768 67.6938C102.987 67.8912 103.235 68.0783 103.543 68.3119C103.591 68.3477 103.639 68.3846 103.69 68.4228L103.736 68.4578C104.366 68.9351 105.421 69.7352 105.815 70.9516C106.209 72.1658 105.827 73.43 105.598 74.1861C105.592 74.2054 105.587 74.2243 105.581 74.243C105.563 74.3015 105.546 74.3583 105.529 74.4134C105.417 74.786 105.326 75.0847 105.264 75.3754C105.195 75.7014 105.191 75.901 105.211 76.0255C105.23 76.1489 105.295 76.3351 105.46 76.6206C105.607 76.8744 105.783 77.1261 106.003 77.4414C106.037 77.4902 106.072 77.5407 106.109 77.5928L106.139 77.6367C106.592 78.2851 107.347 79.3678 107.347 80.6551C107.347 81.9492 106.587 83.0451 106.133 83.7015L106.108 83.7376C106.066 83.798 106.025 83.8559 105.987 83.9119C105.772 84.221 105.599 84.4687 105.455 84.7178C105.288 85.0056 105.228 85.1837 105.211 85.2912C105.194 85.4025 105.198 85.5961 105.268 85.927C105.329 86.2138 105.418 86.5086 105.527 86.8736C105.546 86.9371 105.566 87.0028 105.586 87.0709L105.601 87.122C105.829 87.8832 106.21 89.1602 105.814 90.3716C105.42 91.5796 104.367 92.3814 103.739 92.8603C103.723 92.8722 103.708 92.8839 103.692 92.8954C103.641 92.9345 103.591 92.9724 103.543 93.009C103.236 93.2428 102.988 93.4308 102.769 93.6287C102.52 93.853 102.401 94.0095 102.347 94.1154C102.292 94.2227 102.235 94.4115 102.198 94.7441C102.165 95.0424 102.158 95.3597 102.148 95.7544C102.147 95.808 102.145 95.8629 102.144 95.9194C102.143 95.9406 102.143 95.9623 102.142 95.9843C102.123 96.7723 102.09 98.0823 101.367 99.1043C100.965 99.6734 100.432 100.041 99.9539 100.293C99.4813 100.542 98.9724 100.724 98.5573 100.868C98.4925 100.891 98.4299 100.913 98.3693 100.934C98.0064 101.059 97.7142 101.16 97.4448 101.279C97.1364 101.415 96.9778 101.526 96.8973 101.606C96.815 101.689 96.7039 101.848 96.5679 102.153C96.4491 102.421 96.3481 102.71 96.2224 103.071C96.2013 103.132 96.1795 103.194 96.1567 103.259L96.1397 103.308C95.8773 104.058 95.4385 105.312 94.4001 106.066C93.3644 106.817 92.0437 106.847 91.2529 106.864C91.2336 106.865 91.2147 106.865 91.1961 106.866C91.134 106.867 91.0738 106.868 91.0154 106.87C90.6278 106.878 90.3178 106.884 90.0246 106.916C89.6951 106.952 89.5079 107.009 89.4 107.064C89.2892 107.122 89.1317 107.242 88.9096 107.489C88.7139 107.707 88.5289 107.951 88.2984 108.255C88.2607 108.305 88.2219 108.356 88.1815 108.41L88.151 108.45C87.6717 109.081 86.874 110.132 85.6555 110.533C84.43 110.935 83.1631 110.549 82.407 110.318L82.3557 110.303C82.2935 110.284 82.2334 110.265 82.1752 110.248C81.8084 110.135 81.5152 110.046 81.2288 109.984C80.9056 109.915 80.7085 109.91 80.5856 109.93C80.4606 109.95 80.2736 110.015 79.9876 110.179C79.7347 110.325 79.4842 110.499 79.1709 110.716C79.1201 110.752 79.0676 110.788 79.0131 110.826L78.9734 110.853C78.3211 111.305 77.2369 112.056 75.946 112.056C74.6538 112.056 73.5587 111.301 72.9015 110.848L72.8664 110.824C72.8057 110.782 72.7474 110.741 72.6911 110.703C72.3824 110.489 72.1349 110.318 71.8859 110.174C71.5979 110.008 71.419 109.947 71.3099 109.93C71.197 109.913 71.0023 109.916 70.6718 109.986C70.3827 110.048 70.0846 110.137 69.7158 110.247C69.6559 110.265 69.594 110.283 69.5301 110.302C69.1094 110.427 68.5934 110.575 68.0682 110.651C67.538 110.727 66.8988 110.746 66.2456 110.536C65.5882 110.324 65.0791 109.932 64.694 109.557C64.3128 109.186 63.9825 108.761 63.7162 108.412C63.6767 108.36 63.6385 108.31 63.6015 108.262C63.3669 107.953 63.1779 107.705 62.9797 107.485C62.754 107.235 62.5996 107.119 62.4996 107.068C62.3952 107.015 62.2071 106.958 61.871 106.921C61.5762 106.889 61.2641 106.881 60.8781 106.871C60.8165 106.869 60.7531 106.867 60.6876 106.865C60.6684 106.865 60.649 106.864 60.6292 106.864C59.8382 106.842 58.5171 106.805 57.4955 106.068C56.9354 105.664 56.5725 105.135 56.3219 104.66C56.0742 104.19 55.8919 103.684 55.7469 103.271C55.7265 103.213 55.7067 103.157 55.6875 103.102C55.5585 102.733 55.4547 102.436 55.3325 102.164C55.1949 101.856 55.0811 101.693 54.9946 101.606C54.9087 101.521 54.7474 101.408 54.4433 101.273C54.1729 101.153 53.8787 101.051 53.5117 100.924C53.4566 100.904 53.3999 100.885 53.3414 100.864C53.3233 100.858 53.3049 100.852 53.2861 100.845C52.5396 100.586 51.2917 100.153 50.5388 99.1239C49.7819 98.0894 49.7543 96.7626 49.7379 95.9717C49.7375 95.9531 49.7371 95.9348 49.7367 95.9168C49.7353 95.8502 49.734 95.7858 49.7328 95.7234C49.7252 95.3401 49.7192 95.0321 49.6887 94.7399C49.6541 94.4077 49.5974 94.2193 49.5426 94.1114C49.4885 94.0048 49.371 93.849 49.1238 93.6264C48.9046 93.429 48.6574 93.242 48.3488 93.0084C48.3014 92.9726 48.2526 92.9357 48.2022 92.8975C48.1871 92.886 48.1717 92.8743 48.1561 92.8624C47.5264 92.3852 46.4709 91.5851 46.0766 90.3687C45.683 89.1544 46.0652 87.8903 46.2938 87.1341C46.2996 87.1148 46.3053 87.0959 46.311 87.0773C46.3286 87.0186 46.3459 86.9618 46.3626 86.9067C46.4755 86.5342 46.566 86.2355 46.6276 85.9448C46.6966 85.6188 46.701 85.4193 46.6813 85.2948C46.6618 85.1713 46.5969 84.9851 46.4318 84.6993C46.2857 84.4463 46.1107 84.1956 45.8917 83.8819C45.8565 83.8314 45.8201 83.7792 45.7824 83.7251C45.7731 83.7118 45.7637 83.6982 45.7541 83.6844C45.3004 83.0329 44.5449 81.9478 44.5449 80.6551C44.5449 79.3599 45.3057 78.2661 45.7607 77.6117C45.7692 77.5996 45.7776 77.5876 45.7858 77.5757C45.8275 77.5157 45.8676 77.4582 45.9064 77.4026C46.1216 77.0943 46.2936 76.8477 46.4378 76.5994C46.6041 76.3131 46.6641 76.136 46.6808 76.029C46.6981 75.9177 46.6945 75.7234 46.6237 75.3913C46.5624 75.1032 46.4736 74.8067 46.3639 74.4402C46.3451 74.3773 46.3256 74.3123 46.3056 74.245C46.1799 73.8226 46.0309 73.3044 45.9558 72.7768C45.8799 72.2441 45.863 71.6014 46.0785 70.9457C46.4726 69.7467 47.522 68.9457 48.149 68.4672C48.1657 68.4544 48.1821 68.4419 48.1982 68.4296C48.2474 68.392 48.2952 68.3556 48.3416 68.3202C48.6513 68.0842 48.9007 67.8941 49.1217 67.6944C49.3709 67.469 49.4901 67.3116 49.5447 67.2049C49.5995 67.0975 49.6573 66.9088 49.6938 66.5762C49.7266 66.2778 49.7344 65.9606 49.744 65.5658C49.7453 65.5123 49.7467 65.4574 49.7481 65.4009C49.7486 65.3796 49.7492 65.358 49.7497 65.3359C49.7693 64.5479 49.8019 63.238 50.5248 62.2159C50.9273 61.6469 51.4599 61.2796 51.9381 61.0272C52.4106 60.7779 52.9196 60.596 53.3347 60.4518C53.3994 60.4293 53.462 60.4077 53.5226 60.3867C53.8855 60.2614 54.1778 60.1604 54.4472 60.0414C54.7556 59.9052 54.9142 59.7942 54.9946 59.7138C55.0763 59.6321 55.1874 59.4732 55.3235 59.1666C55.4422 58.8992 55.543 58.6096 55.6683 58.2494C55.6898 58.1878 55.7119 58.1241 55.735 58.0581C55.7407 58.0418 55.7465 58.0252 55.7524 58.0083C56.0142 57.2588 56.4541 55.9994 57.4983 55.25C58.5299 54.5095 59.8441 54.4785 60.6338 54.4599C60.6541 54.4594 60.6741 54.459 60.6937 54.4585C60.7525 54.4571 60.8095 54.4557 60.865 54.4545C61.2562 54.4455 61.5692 54.4383 61.8646 54.4059C62.1943 54.3698 62.3827 54.312 62.4919 54.2558C62.6017 54.1993 62.7588 54.0791 62.9811 53.8312C63.1762 53.6136 63.3603 53.3701 63.5895 53.0667C63.6282 53.0156 63.6682 52.9627 63.7097 52.908C63.7197 52.8948 63.7299 52.8813 63.7402 52.8677C64.2188 52.2361 65.0196 51.1794 66.2453 50.7848C67.4646 50.3923 68.7252 50.775 69.4808 51.0044C69.499 51.0099 69.5168 51.0154 69.5344 51.0207C69.5935 51.0386 69.6508 51.056 69.7064 51.073C70.0764 51.1856 70.3722 51.2757 70.6605 51.337C70.9837 51.4057 71.1819 51.4101 71.3063 51.3905C71.4298 51.371 71.616 51.306 71.9018 51.1409C72.1549 50.9948 72.4055 50.8199 72.7192 50.6009C72.7697 50.5656 72.8219 50.5292 72.876 50.4916C72.8894 50.4823 72.9029 50.4728 72.9167 50.4632Z" fill="#1DB099"/>
<path fill-rule="evenodd" clip-rule="evenodd" d="M75.946 59.8243C64.4415 59.8243 55.1152 69.1506 55.1152 80.6551C55.1152 92.1597 64.4415 101.486 75.946 101.486C87.4505 101.486 96.7768 92.1597 96.7768 80.6551C96.7768 69.1506 87.4505 59.8243 75.946 59.8243ZM52.1179 80.6551C52.1179 67.4953 62.7861 56.8271 75.946 56.8271C89.1059 56.8271 99.774 67.4953 99.774 80.6551C99.774 93.815 89.1059 104.483 75.946 104.483C62.7861 104.483 52.1179 93.815 52.1179 80.6551Z" fill="#1DB099"/>
<path fill-rule="evenodd" clip-rule="evenodd" d="M82.5737 66.8535C82.977 66.778 83.3935 66.8711 83.7263 67.111L89.461 71.2472C89.7937 71.4872 90.0135 71.853 90.0691 72.2595C90.1247 72.6659 90.0113 73.0773 89.7554 73.3979L74.939 91.9507L74.9365 91.9539L73.3479 93.9321C73.0954 94.2466 72.7268 94.446 72.3254 94.4852C71.924 94.5245 71.5237 94.4003 71.215 94.1408L62.3438 86.6882C62.0222 86.418 61.8287 86.0253 61.8104 85.6056C61.7922 85.186 61.9509 84.778 62.2479 84.4809L66.7038 80.025C67.001 79.7279 67.4093 79.5691 67.8292 79.5876C68.2491 79.606 68.6419 79.7998 68.9119 80.1219L71.4462 83.1446L81.5925 67.5107C81.8159 67.1665 82.1705 66.929 82.5737 66.8535ZM83.2497 70.4628L72.8571 86.4763C72.5983 86.875 72.1658 87.1273 71.6914 87.1563C71.217 87.1853 70.757 86.9876 70.4516 86.6233L67.6663 83.3013L65.5232 85.4444L71.9707 90.8603L72.597 90.0804L72.5995 90.0772L86.4311 72.7574L83.2497 70.4628Z" fill="#1DB099"/>
<path d="M121.254 18.2027C122.109 18.2027 122.803 17.5094 122.803 16.6542C122.803 15.7989 122.109 15.1056 121.254 15.1056C120.399 15.1056 119.706 15.7989 119.706 16.6542C119.706 17.5094 120.399 18.2027 121.254 18.2027Z" fill="#1DB099"/>
<path d="M140.167 39.4631C141.022 39.4631 141.715 38.7698 141.715 37.9146C141.715 37.0593 141.022 36.366 140.167 36.366C139.312 36.366 138.618 37.0593 138.618 37.9146C138.618 38.7698 139.312 39.4631 140.167 39.4631Z" fill="#1DB099"/>
<path d="M131.605 27.8538C132.46 27.8538 133.153 27.1605 133.153 26.3053C133.153 25.45 132.46 24.7567 131.605 24.7567C130.749 24.7567 130.056 25.45 130.056 26.3053C130.056 27.1605 130.749 27.8538 131.605 27.8538Z" fill="#1DB099"/>
<path fill-rule="evenodd" clip-rule="evenodd" d="M108.068 10.4175C92.8497 2.9765 75.5178 1.0593 59.0416 4.99433C42.5654 8.92937 27.9705 18.4717 17.7575 31.9863C7.54455 45.5009 2.34927 62.1466 3.06191 79.0712C3.77455 95.9957 10.3507 112.146 21.6637 124.754C32.9766 137.362 48.3221 145.644 65.0707 148.18C81.8194 150.716 98.9287 147.348 113.467 138.655C128.006 129.961 139.068 116.482 144.759 100.527C150.451 84.5717 150.416 67.1341 144.662 51.2018C144.381 50.4234 144.784 49.5644 145.562 49.2833C146.341 49.0021 147.2 49.4052 147.481 50.1837C153.471 66.7701 153.507 84.9236 147.582 101.534C141.658 118.144 130.141 132.176 115.005 141.227C99.8701 150.278 82.0584 153.783 64.622 151.143C47.1857 148.503 31.2102 139.882 19.4328 126.756C7.6554 113.63 0.809223 96.8167 0.0673233 79.1972C-0.674577 61.5778 4.73401 44.2487 15.3663 30.1793C25.9986 16.1098 41.1927 6.17568 58.3454 2.07909C75.498 -2.0175 93.5415 -0.021588 109.384 7.72486C110.128 8.08842 110.436 8.98591 110.072 9.72945C109.709 10.473 108.811 10.781 108.068 10.4175Z" fill="#1DB099"/>
</svg>
