<svg width="29" height="29" viewBox="0 0 29 29" fill="none" xmlns="http://www.w3.org/2000/svg">
<path fill-rule="evenodd" clip-rule="evenodd" d="M14.5 1.61111C7.38166 1.61111 1.61111 7.38166 1.61111 14.5C1.61111 21.6183 7.38166 27.3889 14.5 27.3889C21.6183 27.3889 27.3889 21.6183 27.3889 14.5C27.3889 7.38166 21.6183 1.61111 14.5 1.61111ZM0 14.5C0 6.49187 6.49187 0 14.5 0C22.5081 0 29 6.49187 29 14.5C29 22.5081 22.5081 29 14.5 29C6.49187 29 0 22.5081 0 14.5ZM9.82205 9.82205C10.1366 9.50746 10.6467 9.50746 10.9613 9.82205L14.5 13.3608L18.0387 9.82205C18.3533 9.50746 18.8634 9.50746 19.1779 9.82205C19.4925 10.1366 19.4925 10.6467 19.1779 10.9613L15.6392 14.5L19.1779 18.0387C19.4925 18.3533 19.4925 18.8634 19.1779 19.1779C18.8634 19.4925 18.3533 19.4925 18.0387 19.1779L14.5 15.6392L10.9613 19.1779C10.6467 19.4925 10.1366 19.4925 9.82205 19.1779C9.50746 18.8634 9.50746 18.3533 9.82205 18.0387L13.3608 14.5L9.82205 10.9613C9.50746 10.6467 9.50746 10.1366 9.82205 9.82205Z" fill="#879EBC"/>
</svg>
