<svg width="165" height="90" viewBox="0 0 165 90" fill="none" xmlns="http://www.w3.org/2000/svg">
<g clip-path="url(#clip0_16_124)">
<path d="M159.713 30.3437H123.827L125.023 25.4897L141.906 3.16569L144.3 0H23.2273L22.8562 1.50693L14.6374 34.8736L14.0345 37.3214H53.2551L46.3843 65.2178L45.781 67.6655H64.159C68.1866 67.6655 71.7402 66.7534 74.7475 64.9516C76.4996 66.3703 79.1964 67.6655 83.2031 67.6655H89.4288C92.4071 67.6655 95.1487 66.946 97.4489 65.5721C99.5261 66.9447 102.123 67.6655 105.055 67.6655H131.408C132.891 67.0687 134.127 66.4369 135.189 65.6878H105.055C101.384 65.6878 99.0152 64.4678 97.5217 63.1331C95.3441 64.8014 92.5824 65.6878 89.4288 65.6878H83.2031C78.8839 65.6878 76.369 64.0016 74.9646 62.4298C72.0302 64.5926 68.3988 65.6878 64.159 65.6878H48.3163L55.8323 35.1727C55.0614 35.288 54.2828 35.3453 53.5032 35.3441H16.5694L24.7882 1.97736H140.316L123.188 24.6258L121.292 32.3206H159.713L140.736 48.8561L142.236 52.3458L143.073 49.4605C143.074 49.4546 143.077 49.4492 143.081 49.4445C143.085 49.4399 143.09 49.436 143.095 49.4333C143.101 49.4306 143.107 49.429 143.113 49.4286C143.119 49.4283 143.125 49.4292 143.131 49.4314V49.3981L161.023 33.8076L164.997 30.3429L159.713 30.3437Z" fill="#964F03"/>
<path d="M105.45 27.9084L101.045 17.6623L106.504 12.9048L109.051 21.2568L107.297 28.3905L106.7 30.8154L105.45 27.9084ZM117.279 51.6021L118.558 46.4071H111.431L110.153 51.6021H117.279ZM82.632 16.063H75.5051L74.2237 21.2568H81.353L82.632 16.063ZM135.191 65.6878H105.055C101.384 65.6878 99.0152 64.4678 97.5217 63.1335C95.3441 64.8014 92.5824 65.6878 89.4288 65.6878H83.2031C78.8839 65.6878 76.369 64.0016 74.9646 62.4298C72.0302 64.5926 68.3987 65.6878 64.159 65.6878H48.3163L55.8323 35.1727C55.0614 35.288 54.2828 35.3453 53.5032 35.3441H16.5694L24.7882 1.97736H140.316L123.188 24.6258L121.292 32.3206H159.713L140.736 48.8561L142.236 52.3458L141.888 53.5429C141.525 54.7944 141.172 55.927 140.819 56.9569L136.97 48.0051L145.154 40.8718L151.402 35.4281H135.496L134.612 36.1963L133.982 36.7474L134.309 35.4281H110.211C107.372 35.4281 105.039 36.2924 103.32 37.9366L103.939 35.4281H80.5347L79.9524 37.7956L79.1738 40.9509C78.8952 40.1803 78.4952 39.4585 77.989 38.8126C76.2155 36.5665 73.2974 35.4281 69.3133 35.4281H58.9872L58.4048 37.7956L53.2501 58.7325L52.3008 62.5803H64.159C67.9067 62.5803 71.047 61.5887 73.4932 59.6338C74.3845 58.9194 75.1751 58.0889 75.8436 57.1649C76.0055 58.2808 76.4147 59.2607 77.0736 60.0943C78.3751 61.7443 80.4381 62.5803 83.2031 62.5803H89.4288C93.2623 62.5803 96.1749 60.9998 97.8882 58.0633C98.0992 58.8003 98.4514 59.4899 98.9253 60.0943C100.23 61.7443 102.29 62.5803 105.055 62.5803H127.622L128.205 60.2095L128.628 58.4888L129.548 60.6724L130.353 62.5795H138.214C137.363 63.8452 136.389 64.8414 135.191 65.6878ZM61.9622 27.7192C62.1726 28.4567 62.5249 29.1465 62.9997 29.7506C64.3008 31.4002 66.3638 32.2366 69.1288 32.2366H91.6938L92.2795 29.8691L92.7029 28.1459L93.6233 30.3325L94.4274 32.2366H118.095L118.678 29.8691L120.464 22.6294L130.296 10.0606L134.058 5.08605H120.564L119.628 6.34509L117.593 9.08527L117.178 7.44108L116.587 5.08522H99.5704L98.6868 5.85637L98.0559 6.40415L98.3827 5.08522H74.2847C71.4461 5.08522 69.1133 5.95245 67.3942 7.59373L68.0134 5.08522H44.6087L44.0264 7.45231L40.6251 21.2568H35.0072L38.0421 8.93095L38.9884 5.08355H27.2411L26.6587 7.45065L21.504 28.3917L20.5552 32.2375H40.8183L41.3668 30.0114C42.6767 31.4888 44.6602 32.2375 47.2771 32.2375H53.5032C57.3363 32.2375 60.246 30.6569 61.9622 27.7192Z" fill="#FF9906"/>
<path d="M79.9486 32.2375H91.6951L92.2783 29.8687L92.7021 28.1476L93.6225 30.3321L94.4266 32.2375H118.094L118.677 29.8687L120.461 22.6294L130.293 10.0611L134.058 5.08605H120.564L119.627 6.34634L117.59 9.08609L117.177 7.44108L116.586 5.08605H99.5708L98.6864 5.85595L98.0563 6.40498L98.3814 5.08605H74.2856C71.4474 5.08605 69.1133 5.95203 67.3963 7.59456L68.0143 5.08605H44.6088L44.0251 7.45438L40.6259 21.2568H35.0064L38.0417 8.93053L38.9893 5.08397H27.2424L26.6592 7.45231L21.5032 28.3905L20.556 32.2375H40.8179L41.3664 30.0105C42.6755 31.4879 44.661 32.2375 47.2771 32.2375H53.5032C57.335 32.2375 60.2473 30.6569 61.9634 27.7196C62.1729 28.4575 62.525 29.1478 63.0001 29.7518C64.3021 31.401 66.3642 32.2375 69.1296 32.2375H79.9486ZM38.363 29.13H24.5393L29.6952 8.19308H35.006L31.0227 24.3659H39.5382L38.363 29.13ZM60.1879 23.7894C59.311 27.3498 57.0821 29.13 53.5011 29.13H47.2771C43.6953 29.13 42.3426 27.3498 43.2189 23.7894L47.0595 8.19183H52.3703L48.4694 24.0311C48.4137 24.2529 48.4982 24.3638 48.723 24.3638H54.3998C54.6229 24.3638 54.7624 24.2529 54.8182 24.0311L58.719 8.19183H64.0293L60.1879 23.7894ZM81.3531 21.2568H74.2249L75.5039 16.0626H82.6324L81.3531 21.2568ZM108.956 8.19142H114.144L116.162 16.2323L122.14 8.19142H127.794L117.581 21.2568L115.642 29.1283H110.332L112.27 21.2568L108.492 8.19142H108.956ZM109.052 21.2568L107.295 28.3892L106.7 30.8158L105.451 27.9088L101.048 17.6614L106.505 12.9056L109.052 21.2568ZM89.087 8.19267H94.4002L92.6665 15.2324L100.749 8.19267H105.754L105.988 9.2246L105.619 9.5457L97.2836 16.81L102.577 29.1296H96.5063L93.187 21.2568L90.9328 22.2704L89.2443 29.1283H83.9319L89.087 8.19267ZM69.1309 29.1296C65.5494 29.1296 64.1967 27.3494 65.0727 23.789L67.5984 13.5333C68.4748 9.97287 70.7037 8.19267 74.2852 8.19267H84.5703L83.3989 12.9564H73.3869C73.1638 12.9564 73.0244 13.0673 72.9686 13.2891L70.3232 24.0306C70.2675 24.2525 70.352 24.3634 70.5768 24.3634H80.5874L79.416 29.1275H69.1309V29.1296ZM71.0684 46.7889L69.9772 51.2191C69.4041 53.5458 67.9578 54.7089 65.6384 54.7083H62.7696L65.5777 43.3013H68.4469C70.7663 43.3013 71.6397 44.4639 71.0671 46.7889H71.0684ZM128.204 60.2116L128.628 58.49L129.548 60.6745L130.353 62.5799H138.212C139.193 61.1241 140.011 59.309 140.818 56.9569L136.969 48.0047L145.152 40.8727L151.4 35.4285H135.493L134.609 36.1984L133.979 36.7474L134.304 35.4285H110.206C107.368 35.4285 105.034 36.2945 103.317 37.937L103.935 35.4285H80.5347L79.9515 37.7968L79.1746 40.9525C78.8954 40.1815 78.4949 39.4593 77.9881 38.813C76.2155 36.5669 73.2974 35.4285 69.315 35.4285H58.988L58.4023 37.7968L53.2489 58.7325L52.3013 62.5791H64.159C67.9063 62.5791 71.047 61.5883 73.494 59.6338C74.3844 58.919 75.1743 58.0888 75.8427 57.1653C76.0047 58.28 76.4151 59.2591 77.074 60.0939C78.3755 61.743 80.4377 62.5791 83.2031 62.5791H89.4296C93.2614 62.5791 96.1733 60.9985 97.8894 58.0616C98.0992 58.7994 98.4515 59.4895 98.9265 60.0934C100.228 61.743 102.291 62.5791 105.056 62.5791H127.621L128.204 60.2116ZM76.1833 47.578L75.4809 50.43C73.9959 56.4586 70.222 59.4727 64.159 59.4725H56.287L61.4426 38.5359H69.315C75.3779 38.5359 77.6674 41.55 76.1833 47.578ZM96.1155 54.1323C95.2386 57.6927 93.0097 59.4727 89.4288 59.4725H83.2031C79.6213 59.4725 78.2686 57.6924 79.1449 54.1323L82.9855 38.5347H88.2959L84.3954 54.3739C84.3396 54.5958 84.4241 54.7067 84.6489 54.7067H90.3258C90.5492 54.7067 90.6889 54.596 90.7441 54.3739L94.6446 38.5347H99.9553L96.1155 54.1323ZM117.279 51.6009H110.151L111.43 46.4071H118.559L117.279 51.6009ZM119.324 43.3013H109.313C109.09 43.3013 108.951 43.4122 108.895 43.6341L106.25 54.3756C106.194 54.5974 106.278 54.7083 106.503 54.7083H116.514L115.342 59.4725H105.056C101.475 59.4725 100.122 57.6924 100.998 54.1323L103.524 43.8761C104.4 40.316 106.629 38.5359 110.21 38.5359H120.495L119.324 43.3013ZM125.168 59.4741H119.858L125.014 38.5376H130.325L128.591 45.5769L136.673 38.5376H143.096L133.208 47.155L138.058 58.4414L137.315 59.4729H132.433L129.111 51.6017L126.857 52.6153L125.168 59.4741Z" fill="black"/>
<path d="M35.0056 8.19286H29.6952L24.5393 29.1298H38.365L39.5381 24.3657H31.0227L35.0056 8.19286Z" fill="white"/>
<path d="M60.19 23.789L64.0306 8.19142H58.7203L54.8194 24.0306C54.7636 24.2525 54.6242 24.3634 54.401 24.3634H48.7246C48.5015 24.3634 48.417 24.2525 48.4711 24.0306L52.372 8.19142H47.0612L43.2206 23.789C42.3437 27.3494 43.6964 29.1296 47.2788 29.1296H53.5049C57.0844 29.1296 59.3128 27.3494 60.19 23.789Z" fill="white"/>
<path d="M80.5879 24.3655H70.5772C70.3541 24.3655 70.2695 24.2546 70.3236 24.0327L72.969 13.2912C73.0248 13.0694 73.1642 12.9585 73.3873 12.9585H83.3972L84.5686 8.19475H74.2856C70.7041 8.19475 68.4752 9.97496 67.5988 13.5354L65.0727 23.789C64.1958 27.3494 65.5486 29.1296 69.1309 29.1296H79.416L80.5879 24.3655Z" fill="white"/>
<path d="M89.2422 29.1296L90.9307 22.2721L93.1845 21.258L96.5063 29.1296H101.389H102.575L97.2815 16.81L105.986 9.22461L105.752 8.19267H100.746L92.6644 15.2324L94.3981 8.19267H89.0874L83.9314 29.1296H89.2422Z" fill="white"/>
<path d="M110.332 29.1296H115.642L117.581 21.258L127.794 8.19267H126.688H122.141L116.162 16.2335L114.145 8.19267H109.597H108.491L112.27 21.258L110.332 29.1296Z" fill="white"/>
<path d="M69.315 38.5359H61.4405L56.287 59.4725H64.1611C70.2238 59.4725 73.9977 56.4583 75.483 50.43L76.1854 47.578C77.6684 41.5502 75.3782 38.5362 69.315 38.5359ZM71.0671 46.7889L69.976 51.2191C69.4028 53.5458 67.9565 54.7089 65.6371 54.7083H62.7684L65.5777 43.3013H68.4469C70.7663 43.3013 71.6397 44.4639 71.0671 46.7889Z" fill="white"/>
<path d="M90.7458 54.3752C90.691 54.5977 90.5513 54.7079 90.3274 54.7079H84.6523C84.4292 54.7079 84.3447 54.597 84.3988 54.3752L88.2992 38.5359H82.9876L79.147 54.1335C78.2701 57.6939 79.6228 59.474 83.2052 59.4737H89.4317C93.0127 59.4737 95.2416 57.6936 96.1185 54.1335L99.9591 38.5359H94.6462L90.7458 54.3752Z" fill="white"/>
<path d="M108.895 43.6341C108.951 43.4122 109.091 43.3013 109.314 43.3013H119.324L120.496 38.5376H110.212C106.63 38.5376 104.402 40.3177 103.525 43.8778L101 54.1339C100.123 57.6943 101.475 59.4744 105.058 59.4741H115.343L116.514 54.71H106.504C106.28 54.71 106.196 54.5991 106.25 54.3773L108.895 43.6341Z" fill="white"/>
<path d="M143.096 38.5359H141.678H136.672L128.591 45.5752L130.324 38.5359H125.014L119.858 59.4725H125.168L126.857 52.6149L129.111 51.6021L132.432 59.4725H137.315L138.058 58.4409L133.207 47.1533L143.096 38.5359Z" fill="white"/>
<path d="M85.0803 51.6021H79.7699L79.147 54.1323C78.2701 57.6927 79.6228 59.4727 83.2052 59.4725H89.4317C93.0126 59.4725 95.2416 57.6924 96.1185 54.1323L96.7414 51.6021H91.4298L90.747 54.3752C90.6922 54.5977 90.5525 54.7079 90.3287 54.7079H84.6523C84.4292 54.7079 84.3446 54.597 84.3988 54.3752L85.0803 51.6021Z" fill="#15B39B"/>
<path d="M132.432 59.4724H137.315L138.058 58.4409L135.119 51.6021H129.111L132.432 59.4724Z" fill="#15B39B"/>
<path d="M75.1499 51.6021H69.8693C69.2356 53.6727 67.8249 54.7081 65.6371 54.7083H62.7684L63.5331 51.6021H58.2228L56.287 59.4725H64.1611C69.8155 59.4725 73.4784 56.849 75.1499 51.6021Z" fill="#15B39B"/>
<path d="M106.933 51.6021H101.622L101 54.1323C100.123 57.6927 101.475 59.4727 105.058 59.4725H115.343L116.514 54.7083H106.504C106.28 54.7083 106.196 54.5974 106.25 54.3756L106.933 51.6021Z" fill="#15B39B"/>
<path d="M126.857 52.6149L129.111 51.6013L121.796 51.6021L119.858 59.4725H125.168L126.857 52.6149Z" fill="#15B39B"/>
<path d="M112.27 21.258L110.332 29.1296H115.642L117.581 21.258H112.27Z" fill="#15B39B"/>
<path d="M31.0227 24.3655L31.7883 21.258H26.478L24.5393 29.1296H38.365L39.5381 24.3655H31.0227Z" fill="#15B39B"/>
<path d="M70.5772 24.3655C70.3541 24.3655 70.2695 24.2545 70.3237 24.0327L71.0069 21.2589H65.6965L65.0732 23.7898C64.1963 27.3502 65.549 29.1304 69.1313 29.1304H79.4164L80.5879 24.3663L70.5772 24.3655Z" fill="#15B39B"/>
<path d="M60.19 23.789L60.8133 21.258H55.5026L54.8194 24.0319C54.7636 24.2537 54.6242 24.3646 54.401 24.3646H48.7246C48.5015 24.3646 48.417 24.2537 48.4711 24.0319L49.1543 21.258H43.844L43.2206 23.789C42.3437 27.3494 43.6964 29.1296 47.2788 29.1296H53.5049C57.0844 29.1296 59.3128 27.3494 60.19 23.789Z" fill="#15B39B"/>
<path d="M93.1845 21.258H85.8702L83.9314 29.1296H89.2422L90.9307 22.2721L93.1845 21.258Z" fill="#15B39B"/>
<path d="M93.1845 21.258L96.5063 29.1296H101.389H102.575L99.1926 21.258H93.1845Z" fill="#15B39B"/>
<path d="M143.117 58.129C142.107 60.9944 140.965 63.3614 139.391 65.2386C137.836 67.092 135.903 68.4808 133.069 69.7186C138.558 72.1427 141.005 75.3167 143.116 81.3007C144.127 78.4358 145.267 76.0687 146.842 74.1916C148.397 72.3381 150.33 70.9494 153.164 69.7111C147.675 67.2875 145.228 64.1135 143.117 58.129Z" fill="white"/>
<path d="M143.159 89.9692C143.156 89.9778 143.15 89.9853 143.143 89.9906C143.135 89.9958 143.127 89.9987 143.117 89.9987C143.108 89.9987 143.099 89.9958 143.092 89.9906C143.084 89.9853 143.079 89.9778 143.075 89.9692L141.89 85.8868C139.032 76.0504 136.88 73.5335 129.095 70.9202L125.63 69.7577C125.621 69.7546 125.614 69.749 125.609 69.7416C125.603 69.7341 125.6 69.7252 125.6 69.7161C125.6 69.707 125.603 69.698 125.609 69.6906C125.614 69.6831 125.621 69.6775 125.63 69.6745L129.095 68.5099C136.88 65.8978 139.032 63.3802 141.89 53.5433L143.075 49.4609C143.079 49.4523 143.084 49.4448 143.092 49.4395C143.099 49.4343 143.108 49.4314 143.117 49.4314C143.127 49.4314 143.135 49.4343 143.143 49.4395C143.15 49.4448 143.156 49.4523 143.159 49.4609L144.345 53.5437C147.202 63.3802 149.354 65.897 157.14 68.5099L160.605 69.6745C160.613 69.6775 160.621 69.6831 160.626 69.6906C160.631 69.698 160.634 69.707 160.634 69.7161C160.634 69.7252 160.631 69.7341 160.626 69.7416C160.621 69.749 160.613 69.7546 160.605 69.7577L157.14 70.9194C149.355 73.5319 147.202 76.0495 144.345 85.886L143.159 89.9692ZM133.069 69.7194C138.558 72.1435 141.005 75.3175 143.116 81.3015C144.127 78.4366 145.267 76.0695 146.842 74.1924C148.397 72.339 150.33 70.9502 153.164 69.7119C147.675 67.2883 145.228 64.1143 143.117 58.1298C142.107 60.9952 140.965 63.3623 139.391 65.2394C137.836 67.0928 135.902 68.4808 133.069 69.7186V69.7194Z" fill="black"/>
<path d="M14.0345 13.5882C12.5815 17.379 10.8261 19.5722 7.33397 21.2568C10.8261 22.943 12.5815 25.1362 14.0345 28.927C15.4871 25.1362 17.243 22.943 20.7355 21.2568C17.2426 19.5722 15.4871 17.3786 14.0345 13.5882Z" fill="white"/>
<path d="M14.0772 37.4637C14.0741 37.4723 14.0685 37.4798 14.061 37.485C14.0535 37.4903 14.0445 37.4931 14.0354 37.4931C14.0262 37.4931 14.0172 37.4903 14.0097 37.485C14.0022 37.4798 13.9966 37.4723 13.9935 37.4637L12.8079 33.3817C10.7194 26.1981 9.15302 24.3613 3.49545 22.463L0.0301192 21.3004C0.021455 21.2974 0.0139494 21.2918 0.00864038 21.2843C0.00333135 21.2769 0.000480652 21.268 0.000480652 21.2589C0.000480652 21.2497 0.00333135 21.2408 0.00864038 21.2334C0.0139494 21.2259 0.021455 21.2203 0.0301192 21.2173L3.49545 20.0526C9.15302 18.1543 10.7194 16.3175 12.8062 9.13435L13.9902 5.05319C13.9932 5.04458 13.9989 5.03712 14.0064 5.03184C14.0139 5.02656 14.0228 5.02374 14.032 5.02374C14.0412 5.02374 14.0502 5.02656 14.0576 5.03184C14.0651 5.03712 14.0708 5.04458 14.0738 5.05319L15.2599 9.1356C17.3463 16.3188 18.9123 18.1556 24.5707 20.0539L28.0356 21.2185C28.0442 21.2215 28.0517 21.2272 28.0571 21.2346C28.0624 21.2421 28.0652 21.251 28.0652 21.2601C28.0652 21.2692 28.0624 21.2781 28.0571 21.2856C28.0517 21.293 28.0442 21.2987 28.0356 21.3017L24.5748 22.463C18.9169 24.3613 17.3509 26.1981 15.2645 33.3813L14.0772 37.4637ZM7.33396 21.2568C10.8261 22.943 12.5815 25.1362 14.0345 28.927C15.4871 25.1362 17.243 22.943 20.7355 21.2568C17.2426 19.5706 15.4871 17.3769 14.0345 13.5865C12.5815 17.379 10.8261 19.5722 7.33396 21.2568Z" fill="black"/>
</g>
<defs>
<clipPath id="clip0_16_124">
<rect width="165" height="90" fill="white"/>
</clipPath>
</defs>
</svg>
