<svg width="33" height="32" viewBox="0 0 33 32" fill="none" xmlns="http://www.w3.org/2000/svg">
<path d="M21.0001 9.29563L17.4002 1.8592C17.036 1.10683 15.9643 1.10683 15.6001 1.8592L11.6318 10.0565C11.4878 10.354 11.2061 10.5611 10.8791 10.6098L1.97183 11.9374C1.15798 12.0587 0.830739 13.0561 1.41457 13.636L7.88278 20.0599C8.11316 20.2887 8.21811 20.6151 8.16425 20.9353L6.64135 29.9892C6.50348 30.8088 7.3676 31.4291 8.10007 31.0363L16.0276 26.7854C16.3227 26.6271 16.6775 26.6271 16.9727 26.7854L21.0001 28.945V9.29563Z" fill="url(#paint0_linear_212_389)"/>
<path d="M16.05 2.07717C16.2321 1.70099 16.7679 1.70099 16.95 2.07718L20.9183 10.2745C21.1343 10.7207 21.5569 11.0314 22.0473 11.1045L30.9546 12.432C31.3615 12.4927 31.5251 12.9914 31.2332 13.2813L24.765 19.7052C24.4195 20.0484 24.262 20.538 24.3428 21.0183L25.8657 30.0722C25.9346 30.482 25.5026 30.7922 25.1364 30.5958L17.2089 26.3448C16.7661 26.1074 16.2339 26.1074 15.7911 26.3448L16.0274 26.7855L15.7911 26.3448L7.86365 30.5958C7.49741 30.7922 7.06536 30.482 7.13429 30.0722L8.65719 21.0183C8.73798 20.538 8.58055 20.0484 8.23498 19.7052L1.76678 13.2813C1.47486 12.9914 1.63848 12.4927 2.04541 12.432L10.9527 11.1045C11.4431 11.0314 11.8657 10.7207 12.0817 10.2745L16.05 2.07717Z" stroke="url(#paint1_linear_212_389)" stroke-linecap="round" stroke-linejoin="round"/>
<defs>
<linearGradient id="paint0_linear_212_389" x1="11.0591" y1="1.29492" x2="11.0591" y2="31.1573" gradientUnits="userSpaceOnUse">
<stop stop-color="#FF9906"/>
<stop offset="1" stop-color="#FFC438"/>
</linearGradient>
<linearGradient id="paint1_linear_212_389" x1="16.5" y1="0" x2="16.5" y2="32" gradientUnits="userSpaceOnUse">
<stop stop-color="#FF9906"/>
<stop offset="1" stop-color="#FFC438"/>
</linearGradient>
</defs>
</svg>
