<svg width="31" height="31" viewBox="0 0 31 31" fill="none" xmlns="http://www.w3.org/2000/svg">
<path d="M14.5999 0.859313C14.9641 0.106943 16.0359 0.106945 16.4001 0.859315L20.3683 9.05659C20.5123 9.3541 20.7941 9.56122 21.121 9.60994L30.0283 10.9375C30.8422 11.0588 31.1694 12.0563 30.5856 12.6361L24.1174 19.06C23.887 19.2888 23.782 19.6152 23.8359 19.9354L25.3588 28.9893C25.4966 29.8089 24.6325 30.4292 23.9001 30.0364L15.9726 25.7855C15.6774 25.6272 15.3226 25.6272 15.0274 25.7855L7.09994 30.0364C6.36747 30.4292 5.50335 29.8089 5.64122 28.9893L7.16412 19.9354C7.21798 19.6152 7.11303 19.2888 6.88265 19.06L0.414441 12.6361C-0.169392 12.0563 0.157849 11.0588 0.971701 10.9375L9.87901 9.60994C10.2059 9.56122 10.4877 9.3541 10.6317 9.05659L14.5999 0.859313Z" fill="url(#paint0_linear_212_383)"/>
<defs>
<linearGradient id="paint0_linear_212_383" x1="15.5" y1="-1" x2="15.5" y2="31" gradientUnits="userSpaceOnUse">
<stop stop-color="#FF9906"/>
<stop offset="1" stop-color="#FFC438"/>
</linearGradient>
</defs>
</svg>
