<svg width="214" height="221" viewBox="0 0 214 221" fill="none" xmlns="http://www.w3.org/2000/svg">
<g opacity="0.5">
<path d="M19 9.99608C16.4804 9.99608 14.0641 11.0501 12.2825 12.9262C10.5009 14.8023 9.5 17.3468 9.5 20C9.5 17.3468 8.49911 14.8023 6.71751 12.9262C4.93592 11.0501 2.51956 9.99608 0 9.99608C2.51812 9.99557 4.93307 8.9425 6.71435 7.0682C8.49562 5.19391 9.49754 2.65169 9.5 0C9.50246 2.65169 10.5044 5.19391 12.2857 7.0682C14.0669 8.9425 16.4819 9.99557 19 9.99608Z" fill="#15B39B"/>
<path d="M58 9.99608C55.4804 9.99608 53.0641 11.0501 51.2825 12.9262C49.5009 14.8023 48.5 17.3468 48.5 20C48.5 17.3468 47.4991 14.8023 45.7175 12.9262C43.9359 11.0501 41.5196 9.99608 39 9.99608C41.5181 9.99557 43.9331 8.9425 45.7143 7.0682C47.4956 5.19391 48.4975 2.65169 48.5 0C48.5025 2.65169 49.5044 5.19391 51.2857 7.0682C53.0669 8.9425 55.4819 9.99557 58 9.99608Z" fill="#15B39B"/>
<path d="M97 9.99608C94.4804 9.99608 92.0641 11.0501 90.2825 12.9262C88.5009 14.8023 87.5 17.3468 87.5 20C87.5 17.3468 86.4991 14.8023 84.7175 12.9262C82.9359 11.0501 80.5196 9.99608 78 9.99608C80.5181 9.99557 82.9331 8.9425 84.7143 7.0682C86.4956 5.19391 87.4975 2.65169 87.5 0C87.5025 2.65169 88.5044 5.19391 90.2857 7.0682C92.0669 8.9425 94.4819 9.99557 97 9.99608Z" fill="#15B39B"/>
<path d="M136 9.99608C133.48 9.99608 131.064 11.0501 129.282 12.9262C127.501 14.8023 126.5 17.3468 126.5 20C126.5 17.3468 125.499 14.8023 123.718 12.9262C121.936 11.0501 119.52 9.99608 117 9.99608C119.518 9.99557 121.933 8.9425 123.714 7.0682C125.496 5.19391 126.498 2.65169 126.5 0C126.502 2.65169 127.504 5.19391 129.286 7.0682C131.067 8.9425 133.482 9.99557 136 9.99608Z" fill="#15B39B"/>
<path d="M175 9.99608C172.48 9.99608 170.064 11.0501 168.282 12.9262C166.501 14.8023 165.5 17.3468 165.5 20C165.5 17.3468 164.499 14.8023 162.718 12.9262C160.936 11.0501 158.52 9.99608 156 9.99608C158.518 9.99557 160.933 8.9425 162.714 7.0682C164.496 5.19391 165.498 2.65169 165.5 0C165.502 2.65169 166.504 5.19391 168.286 7.0682C170.067 8.9425 172.482 9.99557 175 9.99608Z" fill="#15B39B"/>
<path d="M214 9.99608C211.48 9.99608 209.064 11.0501 207.282 12.9262C205.501 14.8023 204.5 17.3468 204.5 20C204.5 17.3468 203.499 14.8023 201.718 12.9262C199.936 11.0501 197.52 9.99608 195 9.99608C197.518 9.99557 199.933 8.9425 201.714 7.0682C203.496 5.19391 204.498 2.65169 204.5 0C204.502 2.65169 205.504 5.19391 207.286 7.0682C209.067 8.9425 211.482 9.99557 214 9.99608Z" fill="#15B39B"/>
<path d="M19 49.9961C16.4804 49.9961 14.0641 51.0501 12.2825 52.9262C10.5009 54.8023 9.5 57.3468 9.5 60C9.5 57.3468 8.49911 54.8023 6.71751 52.9262C4.93592 51.0501 2.51956 49.9961 0 49.9961C2.51812 49.9956 4.93307 48.9425 6.71435 47.0682C8.49562 45.1939 9.49754 42.6517 9.5 40C9.50246 42.6517 10.5044 45.1939 12.2857 47.0682C14.0669 48.9425 16.4819 49.9956 19 49.9961Z" fill="#15B39B"/>
<path d="M58 49.9961C55.4804 49.9961 53.0641 51.0501 51.2825 52.9262C49.5009 54.8023 48.5 57.3468 48.5 60C48.5 57.3468 47.4991 54.8023 45.7175 52.9262C43.9359 51.0501 41.5196 49.9961 39 49.9961C41.5181 49.9956 43.9331 48.9425 45.7143 47.0682C47.4956 45.1939 48.4975 42.6517 48.5 40C48.5025 42.6517 49.5044 45.1939 51.2857 47.0682C53.0669 48.9425 55.4819 49.9956 58 49.9961Z" fill="#15B39B"/>
<path d="M97 49.9961C94.4804 49.9961 92.0641 51.0501 90.2825 52.9262C88.5009 54.8023 87.5 57.3468 87.5 60C87.5 57.3468 86.4991 54.8023 84.7175 52.9262C82.9359 51.0501 80.5196 49.9961 78 49.9961C80.5181 49.9956 82.9331 48.9425 84.7143 47.0682C86.4956 45.1939 87.4975 42.6517 87.5 40C87.5025 42.6517 88.5044 45.1939 90.2857 47.0682C92.0669 48.9425 94.4819 49.9956 97 49.9961Z" fill="#15B39B"/>
<path d="M136 49.9961C133.48 49.9961 131.064 51.0501 129.282 52.9262C127.501 54.8023 126.5 57.3468 126.5 60C126.5 57.3468 125.499 54.8023 123.718 52.9262C121.936 51.0501 119.52 49.9961 117 49.9961C119.518 49.9956 121.933 48.9425 123.714 47.0682C125.496 45.1939 126.498 42.6517 126.5 40C126.502 42.6517 127.504 45.1939 129.286 47.0682C131.067 48.9425 133.482 49.9956 136 49.9961Z" fill="#15B39B"/>
<path d="M175 49.9961C172.48 49.9961 170.064 51.0501 168.282 52.9262C166.501 54.8023 165.5 57.3468 165.5 60C165.5 57.3468 164.499 54.8023 162.718 52.9262C160.936 51.0501 158.52 49.9961 156 49.9961C158.518 49.9956 160.933 48.9425 162.714 47.0682C164.496 45.1939 165.498 42.6517 165.5 40C165.502 42.6517 166.504 45.1939 168.286 47.0682C170.067 48.9425 172.482 49.9956 175 49.9961Z" fill="#15B39B"/>
<path d="M214 49.9961C211.48 49.9961 209.064 51.0501 207.282 52.9262C205.501 54.8023 204.5 57.3468 204.5 60C204.5 57.3468 203.499 54.8023 201.718 52.9262C199.936 51.0501 197.52 49.9961 195 49.9961C197.518 49.9956 199.933 48.9425 201.714 47.0682C203.496 45.1939 204.498 42.6517 204.5 40C204.502 42.6517 205.504 45.1939 207.286 47.0682C209.067 48.9425 211.482 49.9956 214 49.9961Z" fill="#15B39B"/>
<path d="M19 90.4959C16.4804 90.4959 14.0641 91.6026 12.2825 93.5725C10.5009 95.5424 9.5 98.2141 9.5 101C9.5 98.2141 8.49911 95.5424 6.71751 93.5725C4.93592 91.6026 2.51956 90.4959 0 90.4959C2.51812 90.4953 4.93307 89.3896 6.71435 87.4216C8.49562 85.4536 9.49754 82.7843 9.5 80C9.50246 82.7843 10.5044 85.4536 12.2857 87.4216C14.0669 89.3896 16.4819 90.4953 19 90.4959Z" fill="#15B39B"/>
<path d="M58 90.4959C55.4804 90.4959 53.0641 91.6026 51.2825 93.5725C49.5009 95.5424 48.5 98.2141 48.5 101C48.5 98.2141 47.4991 95.5424 45.7175 93.5725C43.9359 91.6026 41.5196 90.4959 39 90.4959C41.5181 90.4953 43.9331 89.3896 45.7143 87.4216C47.4956 85.4536 48.4975 82.7843 48.5 80C48.5025 82.7843 49.5044 85.4536 51.2857 87.4216C53.0669 89.3896 55.4819 90.4953 58 90.4959Z" fill="#15B39B"/>
<path d="M97 90.4959C94.4804 90.4959 92.0641 91.6026 90.2825 93.5725C88.5009 95.5424 87.5 98.2141 87.5 101C87.5 98.2141 86.4991 95.5424 84.7175 93.5725C82.9359 91.6026 80.5196 90.4959 78 90.4959C80.5181 90.4953 82.9331 89.3896 84.7143 87.4216C86.4956 85.4536 87.4975 82.7843 87.5 80C87.5025 82.7843 88.5044 85.4536 90.2857 87.4216C92.0669 89.3896 94.4819 90.4953 97 90.4959Z" fill="#15B39B"/>
<path d="M136 90.4959C133.48 90.4959 131.064 91.6026 129.282 93.5725C127.501 95.5424 126.5 98.2141 126.5 101C126.5 98.2141 125.499 95.5424 123.718 93.5725C121.936 91.6026 119.52 90.4959 117 90.4959C119.518 90.4953 121.933 89.3896 123.714 87.4216C125.496 85.4536 126.498 82.7843 126.5 80C126.502 82.7843 127.504 85.4536 129.286 87.4216C131.067 89.3896 133.482 90.4953 136 90.4959Z" fill="#15B39B"/>
<path d="M175 90.4959C172.48 90.4959 170.064 91.6026 168.282 93.5725C166.501 95.5424 165.5 98.2141 165.5 101C165.5 98.2141 164.499 95.5424 162.718 93.5725C160.936 91.6026 158.52 90.4959 156 90.4959C158.518 90.4953 160.933 89.3896 162.714 87.4216C164.496 85.4536 165.498 82.7843 165.5 80C165.502 82.7843 166.504 85.4536 168.286 87.4216C170.067 89.3896 172.482 90.4953 175 90.4959Z" fill="#15B39B"/>
<path d="M214 90.4959C211.48 90.4959 209.064 91.6026 207.282 93.5725C205.501 95.5424 204.5 98.2141 204.5 101C204.5 98.2141 203.499 95.5424 201.718 93.5725C199.936 91.6026 197.52 90.4959 195 90.4959C197.518 90.4953 199.933 89.3896 201.714 87.4216C203.496 85.4536 204.498 82.7843 204.5 80C204.502 82.7843 205.504 85.4536 207.286 87.4216C209.067 89.3896 211.482 90.4953 214 90.4959Z" fill="#15B39B"/>
<path d="M19 130.996C16.4804 130.996 14.0641 132.05 12.2825 133.926C10.5009 135.802 9.5 138.347 9.5 141C9.5 138.347 8.49911 135.802 6.71751 133.926C4.93592 132.05 2.51956 130.996 0 130.996C2.51812 130.996 4.93307 129.942 6.71435 128.068C8.49562 126.194 9.49754 123.652 9.5 121C9.50246 123.652 10.5044 126.194 12.2857 128.068C14.0669 129.942 16.4819 130.996 19 130.996Z" fill="#15B39B"/>
<path d="M58 130.996C55.4804 130.996 53.0641 132.05 51.2825 133.926C49.5009 135.802 48.5 138.347 48.5 141C48.5 138.347 47.4991 135.802 45.7175 133.926C43.9359 132.05 41.5196 130.996 39 130.996C41.5181 130.996 43.9331 129.942 45.7143 128.068C47.4956 126.194 48.4975 123.652 48.5 121C48.5025 123.652 49.5044 126.194 51.2857 128.068C53.0669 129.942 55.4819 130.996 58 130.996Z" fill="#15B39B"/>
<path d="M97 130.996C94.4804 130.996 92.0641 132.05 90.2825 133.926C88.5009 135.802 87.5 138.347 87.5 141C87.5 138.347 86.4991 135.802 84.7175 133.926C82.9359 132.05 80.5196 130.996 78 130.996C80.5181 130.996 82.9331 129.942 84.7143 128.068C86.4956 126.194 87.4975 123.652 87.5 121C87.5025 123.652 88.5044 126.194 90.2857 128.068C92.0669 129.942 94.4819 130.996 97 130.996Z" fill="#15B39B"/>
<path d="M136 130.996C133.48 130.996 131.064 132.05 129.282 133.926C127.501 135.802 126.5 138.347 126.5 141C126.5 138.347 125.499 135.802 123.718 133.926C121.936 132.05 119.52 130.996 117 130.996C119.518 130.996 121.933 129.942 123.714 128.068C125.496 126.194 126.498 123.652 126.5 121C126.502 123.652 127.504 126.194 129.286 128.068C131.067 129.942 133.482 130.996 136 130.996Z" fill="#15B39B"/>
<path d="M175 130.996C172.48 130.996 170.064 132.05 168.282 133.926C166.501 135.802 165.5 138.347 165.5 141C165.5 138.347 164.499 135.802 162.718 133.926C160.936 132.05 158.52 130.996 156 130.996C158.518 130.996 160.933 129.942 162.714 128.068C164.496 126.194 165.498 123.652 165.5 121C165.502 123.652 166.504 126.194 168.286 128.068C170.067 129.942 172.482 130.996 175 130.996Z" fill="#15B39B"/>
<path d="M214 130.996C211.48 130.996 209.064 132.05 207.282 133.926C205.501 135.802 204.5 138.347 204.5 141C204.5 138.347 203.499 135.802 201.718 133.926C199.936 132.05 197.52 130.996 195 130.996C197.518 130.996 199.933 129.942 201.714 128.068C203.496 126.194 204.498 123.652 204.5 121C204.502 123.652 205.504 126.194 207.286 128.068C209.067 129.942 211.482 130.996 214 130.996Z" fill="#15B39B"/>
<path d="M19 170.996C16.4804 170.996 14.0641 172.05 12.2825 173.926C10.5009 175.802 9.5 178.347 9.5 181C9.5 178.347 8.49911 175.802 6.71751 173.926C4.93592 172.05 2.51956 170.996 0 170.996C2.51812 170.996 4.93307 169.942 6.71435 168.068C8.49562 166.194 9.49754 163.652 9.5 161C9.50246 163.652 10.5044 166.194 12.2857 168.068C14.0669 169.942 16.4819 170.996 19 170.996Z" fill="#15B39B"/>
<path d="M58 170.996C55.4804 170.996 53.0641 172.05 51.2825 173.926C49.5009 175.802 48.5 178.347 48.5 181C48.5 178.347 47.4991 175.802 45.7175 173.926C43.9359 172.05 41.5196 170.996 39 170.996C41.5181 170.996 43.9331 169.942 45.7143 168.068C47.4956 166.194 48.4975 163.652 48.5 161C48.5025 163.652 49.5044 166.194 51.2857 168.068C53.0669 169.942 55.4819 170.996 58 170.996Z" fill="#15B39B"/>
<path d="M97 170.996C94.4804 170.996 92.0641 172.05 90.2825 173.926C88.5009 175.802 87.5 178.347 87.5 181C87.5 178.347 86.4991 175.802 84.7175 173.926C82.9359 172.05 80.5196 170.996 78 170.996C80.5181 170.996 82.9331 169.942 84.7143 168.068C86.4956 166.194 87.4975 163.652 87.5 161C87.5025 163.652 88.5044 166.194 90.2857 168.068C92.0669 169.942 94.4819 170.996 97 170.996Z" fill="#15B39B"/>
<path d="M136 170.996C133.48 170.996 131.064 172.05 129.282 173.926C127.501 175.802 126.5 178.347 126.5 181C126.5 178.347 125.499 175.802 123.718 173.926C121.936 172.05 119.52 170.996 117 170.996C119.518 170.996 121.933 169.942 123.714 168.068C125.496 166.194 126.498 163.652 126.5 161C126.502 163.652 127.504 166.194 129.286 168.068C131.067 169.942 133.482 170.996 136 170.996Z" fill="#15B39B"/>
<path d="M175 170.996C172.48 170.996 170.064 172.05 168.282 173.926C166.501 175.802 165.5 178.347 165.5 181C165.5 178.347 164.499 175.802 162.718 173.926C160.936 172.05 158.52 170.996 156 170.996C158.518 170.996 160.933 169.942 162.714 168.068C164.496 166.194 165.498 163.652 165.5 161C165.502 163.652 166.504 166.194 168.286 168.068C170.067 169.942 172.482 170.996 175 170.996Z" fill="#15B39B"/>
<path d="M214 170.996C211.48 170.996 209.064 172.05 207.282 173.926C205.501 175.802 204.5 178.347 204.5 181C204.5 178.347 203.499 175.802 201.718 173.926C199.936 172.05 197.52 170.996 195 170.996C197.518 170.996 199.933 169.942 201.714 168.068C203.496 166.194 204.498 163.652 204.5 161C204.502 163.652 205.504 166.194 207.286 168.068C209.067 169.942 211.482 170.996 214 170.996Z" fill="#15B39B"/>
<path d="M19 210.996C16.4804 210.996 14.0641 212.05 12.2825 213.926C10.5009 215.802 9.5 218.347 9.5 221C9.5 218.347 8.49911 215.802 6.71751 213.926C4.93592 212.05 2.51956 210.996 0 210.996C2.51812 210.996 4.93307 209.942 6.71435 208.068C8.49562 206.194 9.49754 203.652 9.5 201C9.50246 203.652 10.5044 206.194 12.2857 208.068C14.0669 209.942 16.4819 210.996 19 210.996Z" fill="#15B39B"/>
<path d="M58 210.996C55.4804 210.996 53.0641 212.05 51.2825 213.926C49.5009 215.802 48.5 218.347 48.5 221C48.5 218.347 47.4991 215.802 45.7175 213.926C43.9359 212.05 41.5196 210.996 39 210.996C41.5181 210.996 43.9331 209.942 45.7143 208.068C47.4956 206.194 48.4975 203.652 48.5 201C48.5025 203.652 49.5044 206.194 51.2857 208.068C53.0669 209.942 55.4819 210.996 58 210.996Z" fill="#15B39B"/>
<path d="M97 210.996C94.4804 210.996 92.0641 212.05 90.2825 213.926C88.5009 215.802 87.5 218.347 87.5 221C87.5 218.347 86.4991 215.802 84.7175 213.926C82.9359 212.05 80.5196 210.996 78 210.996C80.5181 210.996 82.9331 209.942 84.7143 208.068C86.4956 206.194 87.4975 203.652 87.5 201C87.5025 203.652 88.5044 206.194 90.2857 208.068C92.0669 209.942 94.4819 210.996 97 210.996Z" fill="#15B39B"/>
<path d="M136 210.996C133.48 210.996 131.064 212.05 129.282 213.926C127.501 215.802 126.5 218.347 126.5 221C126.5 218.347 125.499 215.802 123.718 213.926C121.936 212.05 119.52 210.996 117 210.996C119.518 210.996 121.933 209.942 123.714 208.068C125.496 206.194 126.498 203.652 126.5 201C126.502 203.652 127.504 206.194 129.286 208.068C131.067 209.942 133.482 210.996 136 210.996Z" fill="#15B39B"/>
<path d="M175 210.996C172.48 210.996 170.064 212.05 168.282 213.926C166.501 215.802 165.5 218.347 165.5 221C165.5 218.347 164.499 215.802 162.718 213.926C160.936 212.05 158.52 210.996 156 210.996C158.518 210.996 160.933 209.942 162.714 208.068C164.496 206.194 165.498 203.652 165.5 201C165.502 203.652 166.504 206.194 168.286 208.068C170.067 209.942 172.482 210.996 175 210.996Z" fill="#15B39B"/>
<path d="M214 210.996C211.48 210.996 209.064 212.05 207.282 213.926C205.501 215.802 204.5 218.347 204.5 221C204.5 218.347 203.499 215.802 201.718 213.926C199.936 212.05 197.52 210.996 195 210.996C197.518 210.996 199.933 209.942 201.714 208.068C203.496 206.194 204.498 203.652 204.5 201C204.502 203.652 205.504 206.194 207.286 208.068C209.067 209.942 211.482 210.996 214 210.996Z" fill="#15B39B"/>
</g>
</svg>
