<svg width="93" height="93" viewBox="0 0 93 93" fill="none" xmlns="http://www.w3.org/2000/svg">
<path fill-rule="evenodd" clip-rule="evenodd" d="M43.4244 89.8959C53.4059 90.6033 63.3261 87.8482 71.5133 82.0949C79.7005 76.3415 85.6541 67.9417 88.3708 58.311C91.0874 48.6803 90.4011 38.4075 86.4273 29.2238C82.4536 20.0401 75.4355 12.507 66.5557 7.89397C57.6759 3.28094 47.4773 1.87005 37.6786 3.89906C27.8799 5.92806 19.0803 11.2729 12.7625 19.0329C6.44478 26.7928 2.99525 36.4935 2.99526 46.5C2.99526 47.3271 2.32475 47.9976 1.49763 47.9976C0.670511 47.9976 9.17978e-06 47.3271 9.10747e-06 46.5C8.17244e-06 35.8046 3.68703 25.436 10.4397 17.1418C17.1924 8.84757 26.598 3.13474 37.0713 0.966029C47.5446 -1.20266 58.4453 0.305367 67.9365 5.23598C77.4277 10.1666 84.929 18.2184 89.1763 28.0344C93.4236 37.8503 94.1572 48.8304 91.2535 59.1242C88.3498 69.418 81.9863 78.3961 73.2355 84.5455C64.4846 90.695 53.8813 93.6397 43.2126 92.8836C32.5439 92.1275 22.462 87.7167 14.6659 80.3945C14.063 79.8282 14.0333 78.8805 14.5995 78.2776C15.1658 77.6747 16.1135 77.645 16.7164 78.2112C24.0103 85.0617 33.4429 89.1884 43.4244 89.8959Z" fill="url(#paint0_linear_92_166)"/>
<ellipse cx="1.49762" cy="1.49762" rx="1.49762" ry="1.49762" transform="matrix(-0.658495 -0.752585 0.752586 -0.658494 5.07991 66.2215)" fill="url(#paint1_linear_92_166)"/>
<ellipse cx="1.49762" cy="1.49762" rx="1.49762" ry="1.49762" transform="matrix(-0.658495 -0.752585 0.752586 -0.658494 9.49417 74.299)" fill="url(#paint2_linear_92_166)"/>
<ellipse cx="1.49762" cy="1.49762" rx="1.49762" ry="1.49762" transform="matrix(-0.658495 -0.752585 0.752586 -0.658494 2.16842 56.8292)" fill="url(#paint3_linear_92_166)"/>
<path d="M55.5238 59.2971H54.5591C54.5205 59.2644 54.4762 59.2388 54.4285 59.2218L48.6205 57.9368L34.1104 54.7242C33.5794 54.6253 33.1011 54.3405 32.7613 53.921C32.4215 53.5015 32.2425 52.9748 32.2564 52.4353C32.2564 51.7928 32.2564 51.1553 32.2564 50.5178V49.0621C33.0553 49.0621 33.7989 49.0621 34.5475 49.0621C34.6978 49.0695 34.848 49.0468 34.9894 48.9951C35.1307 48.9435 35.2602 48.8641 35.3703 48.7617C35.4804 48.6592 35.5688 48.5357 35.6302 48.3985C35.6917 48.2612 35.725 48.1131 35.7282 47.9628C35.7386 47.8158 35.7184 47.6682 35.669 47.5293C35.6196 47.3904 35.542 47.2632 35.441 47.1558C35.34 47.0483 35.2179 46.9628 35.0823 46.9048C34.9467 46.8467 34.8005 46.8173 34.653 46.8183C33.8692 46.8183 33.0804 46.8183 32.2765 46.8183V44.5093H34.5324C34.686 44.5189 34.84 44.497 34.9847 44.4448C35.1295 44.3926 35.262 44.3113 35.3741 44.2059C35.4862 44.1005 35.5754 43.9733 35.6363 43.8321C35.6972 43.6909 35.7285 43.5387 35.7282 43.3849C35.7329 43.2312 35.7051 43.0783 35.6467 42.936C35.5883 42.7938 35.5005 42.6654 35.3891 42.5594C35.2777 42.4533 35.1452 42.3718 35.0002 42.3203C34.8552 42.2689 34.7009 42.2485 34.5475 42.2605H32.2866V39.9515H33.4321C33.819 39.9515 34.2059 39.9515 34.5927 39.9515C34.7465 39.9618 34.9008 39.9404 35.0459 39.8887C35.1911 39.837 35.3241 39.756 35.4367 39.6508C35.5492 39.5456 35.6389 39.4185 35.7003 39.2772C35.7617 39.136 35.7933 38.9836 35.7933 38.8296C35.7933 38.6756 35.7617 38.5233 35.7003 38.382C35.6389 38.2408 35.5492 38.1136 35.4367 38.0084C35.3241 37.9033 35.1911 37.8223 35.0459 37.7706C34.9008 37.7188 34.7465 37.6975 34.5927 37.7077C33.824 37.7077 33.0553 37.7077 32.2665 37.7077V35.3987C33.0754 35.3987 33.8592 35.3987 34.643 35.3987C34.9074 35.3914 35.1605 35.29 35.3567 35.1128C35.5529 34.9356 35.6794 34.6942 35.7133 34.4321C35.7472 34.17 35.6864 33.9044 35.5418 33.6832C35.3971 33.4619 35.1782 33.2995 34.9243 33.2252C34.7308 33.1757 34.5312 33.1538 34.3315 33.16C33.6431 33.16 32.9548 33.16 32.2765 33.16V30.856C33.0854 30.856 33.8542 30.856 34.6279 30.856C34.7753 30.859 34.9218 30.8315 35.0581 30.7753C35.1944 30.719 35.3176 30.6353 35.42 30.5292C35.5224 30.4232 35.6017 30.2971 35.653 30.159C35.7043 30.0209 35.7265 29.8737 35.7181 29.7266C35.7165 29.5725 35.6833 29.4204 35.6206 29.2797C35.5579 29.1389 35.4671 29.0124 35.3537 28.9081C35.2403 28.8037 35.1067 28.7236 34.9611 28.6727C34.8156 28.6218 34.6611 28.6012 34.5073 28.6122C33.7637 28.6122 33 28.6122 32.2816 28.6122C32.2652 28.5598 32.2535 28.506 32.2464 28.4516C32.2464 25.8113 32.2464 23.176 32.2464 20.5356C32.2609 19.9551 32.5036 19.4037 32.9221 19.0006C33.3405 18.5976 33.901 18.3755 34.4822 18.3822C43.6263 18.3822 52.7688 18.3822 61.9096 18.3822C62.2586 18.3897 62.6016 18.4736 62.9145 18.6282C63.854 19.095 64.1856 19.9032 64.1856 20.9272C64.1856 29.8119 64.1856 38.6983 64.1856 47.5863C64.1856 47.7319 64.1856 47.8775 64.1856 48.0281C64.1812 48.5054 64.0185 48.9677 63.7231 49.3428C63.4276 49.718 63.016 49.9846 62.5527 50.1012C62.0147 50.1885 61.4697 50.2255 60.9249 50.2116C60.5028 50.2116 60.0808 50.2116 59.6336 50.2116C59.6336 50.7738 59.6336 51.2657 59.6336 51.7576C59.6566 52.1824 59.6313 52.6085 59.5583 53.0276C59.2819 54.1219 58.5032 54.664 57.3677 54.7845V56.5413C57.372 56.7809 57.3636 57.0205 57.3426 57.2591C57.2827 57.7433 57.0766 58.1977 56.7516 58.5618C56.4267 58.9259 55.9984 59.1824 55.5238 59.2971ZM34.5726 22.8647C35.6729 23.1057 36.728 23.3316 37.7781 23.5675L55.3228 27.4577C56.7447 27.7789 57.3627 28.572 57.3627 30.0378V43.3548C57.6727 43.3581 57.9788 43.4238 58.2629 43.548C58.5469 43.6722 58.8029 43.8523 59.0156 44.0776C59.2321 44.3136 59.3984 44.5909 59.5046 44.8929C59.6109 45.1948 59.6547 45.5151 59.6336 45.8345C59.6336 46.5071 59.6336 47.1848 59.6336 47.9026C60.2566 47.9026 60.8294 47.8775 61.3971 47.9026C61.8091 47.9327 61.8996 47.7972 61.8996 47.4006C61.8996 38.6364 61.8996 29.8721 61.8996 21.1079V20.6661H34.5877L34.5726 22.8647ZM48.2788 35.0323C47.7462 34.4902 47.3242 34.0284 46.8871 33.6168C46.7213 33.44 46.508 33.3147 46.2727 33.2559C46.0375 33.1972 45.7903 33.2074 45.5607 33.2855C45.344 33.3449 45.1468 33.4602 44.9888 33.6199C44.8308 33.7795 44.7177 33.9779 44.6606 34.195C44.6036 34.4122 44.6048 34.6405 44.664 34.857C44.7232 35.0736 44.8384 35.2708 44.998 35.4288C45.6863 36.1617 46.4098 36.8544 47.1182 37.5572C47.8266 38.2599 48.5853 38.3302 49.364 37.5572L54.8907 32.0356C55.0066 31.9264 55.1126 31.8071 55.2073 31.6792C55.3317 31.5136 55.4145 31.3206 55.4485 31.1163C55.4825 30.9121 55.4668 30.7026 55.4028 30.5057C55.3387 30.3088 55.2282 30.1302 55.0805 29.985C54.9327 29.8397 54.7522 29.7322 54.5541 29.6713C54.2974 29.5917 54.0228 29.5892 53.7647 29.6642C53.5065 29.7392 53.2761 29.8883 53.1021 30.093C51.5948 31.5989 50.0875 33.1047 48.5803 34.6106C48.4758 34.7449 48.3801 34.8857 48.2939 35.0323H48.2788Z" fill="#15B39B"/>
<path d="M16.6387 56.7823L19.8318 62.2244L13.4945 66.0596L12.7858 64.8668L18.2597 61.5535L16.5002 58.5052L11.0345 61.8185L10.3258 60.6175L16.6387 56.7823Z" fill="#15B39B"/>
<path d="M17.1437 70.5822C16.9334 70.3074 16.7683 69.9997 16.655 69.671C16.5247 69.3329 16.5247 68.9572 16.655 68.6191C16.845 68.1771 17.1222 67.7796 17.4696 67.4511L19.2616 65.5957C19.5426 65.2963 19.8667 65.0422 20.2228 64.8419C20.4953 64.6922 20.7944 64.5993 21.1025 64.5685C21.3882 64.5549 21.6714 64.6269 21.9171 64.7756C22.2058 64.9267 22.4787 65.1071 22.7317 65.314C23.0005 65.5542 23.2856 65.8193 23.5463 66.1009C23.8327 66.3818 24.1046 66.6777 24.3608 66.9872C24.5488 67.2137 24.7152 67.4578 24.8577 67.7162C25.0112 67.9644 25.093 68.2514 25.0939 68.5445C25.0785 68.8537 24.998 69.156 24.8577 69.4308C24.6591 69.8064 24.4065 70.1498 24.1083 70.4497L22.3163 72.3051C21.877 72.8414 21.248 73.1806 20.5649 73.2494C20.2959 73.2375 20.0335 73.1609 19.7992 73.0258C19.5112 72.8735 19.2384 72.6932 18.9847 72.4874C18.6914 72.2223 18.4145 71.9572 18.1701 71.659C17.8041 71.3244 17.4612 70.9646 17.1437 70.5822ZM19.449 71.6673C19.6051 71.7898 19.7817 71.8823 19.9703 71.9406C20.059 71.9796 20.1547 71.9997 20.2513 71.9997C20.348 71.9997 20.4436 71.9796 20.5324 71.9406C20.7685 71.8207 20.981 71.6579 21.1596 71.4602L23.253 69.29C23.5051 69.0621 23.7029 68.7788 23.8314 68.4617C23.8652 68.3431 23.8725 68.2183 23.8527 68.0965C23.833 67.9747 23.7867 67.8589 23.7173 67.7576C23.4811 67.4055 23.208 67.0806 22.9027 66.7885C22.6134 66.4771 22.2911 66.1993 21.9416 65.9601C21.8403 65.8897 21.7247 65.8434 21.6034 65.8248C21.4821 65.8061 21.3582 65.8156 21.241 65.8524C20.9271 65.9871 20.6483 66.1941 20.4265 66.4571L18.3412 68.6191C18.1476 68.8077 17.9877 69.0291 17.8687 69.2734C17.7958 69.4567 17.7958 69.6617 17.8687 69.845C17.9376 70.0324 18.0337 70.2083 18.1538 70.3668C18.276 70.5159 18.4959 70.7479 18.7973 71.0461C19.0987 71.3443 19.2942 71.5431 19.449 71.6673Z" fill="#15B39B"/>
<path d="M27.3584 69.7787L28.5477 70.4663L28.1567 71.1621C28.564 70.6651 29.4519 70.8059 30.8122 71.5845C31.4932 71.9158 32.0422 72.4742 32.3681 73.1666C32.4726 73.4341 32.516 73.7222 32.4948 74.0093C32.4736 74.2963 32.3885 74.5747 32.2459 74.8233L30.7552 77.5568C30.5708 77.9033 30.325 78.2122 30.0302 78.4679C29.7945 78.6727 29.5159 78.82 29.2157 78.8987C28.931 78.9602 28.6369 78.9602 28.3522 78.8987C28.0361 78.8319 27.7276 78.7319 27.4318 78.6005C27.163 78.4845 26.8616 78.3188 26.5031 78.12C26.1418 77.9164 25.8101 77.6628 25.5175 77.3663C25.4051 77.2739 25.3134 77.1581 25.2488 77.0266C25.1842 76.8951 25.148 76.7511 25.1428 76.6042L23.4241 79.6939L22.2267 79.0064L27.3584 69.7787ZM28.1079 77.7804C28.3513 77.8572 28.6147 77.8334 28.841 77.7142C29.1028 77.5286 29.3132 77.2775 29.4519 76.9852L30.7878 74.583C30.9807 74.2855 31.0982 73.944 31.1299 73.5891C31.133 73.4577 31.1076 73.3272 31.0555 73.207C31.0034 73.0867 30.9259 72.9796 30.8285 72.8933C30.5231 72.6106 30.1837 72.3685 29.8185 72.1726C29.4655 71.9559 29.0881 71.7834 28.6943 71.6591C28.5708 71.622 28.441 71.6117 28.3133 71.6288C28.1857 71.6459 28.0629 71.6901 27.9531 71.7585C27.6663 71.974 27.4368 72.2586 27.2851 72.5868L25.9574 74.989C25.7799 75.2599 25.6786 75.5749 25.6641 75.9001C25.6827 76.1631 25.7992 76.409 25.99 76.5876C26.2978 76.8626 26.6369 77.0989 27.0001 77.2917C27.3466 77.5035 27.719 77.6678 28.1079 77.7804Z" fill="#15B39B"/>
<path d="M36.4898 75.254L33.9972 74.5416L34.266 73.5559L40.5626 75.3451L40.2938 76.3308L37.8501 75.6267L36.1314 81.8641L34.8118 81.4913L36.4898 75.254Z" fill="#15B39B"/>
<path d="M49.1645 75.9001C49.6395 75.9911 50.0605 76.2677 50.3375 76.6705C50.622 77.1934 50.7521 77.7888 50.7122 78.3851V80.6796C50.7469 81.2365 50.6225 81.7917 50.3538 82.2783C50.0708 82.6631 49.6543 82.9238 49.1889 83.0072C48.4184 83.1536 47.6348 83.2174 46.8511 83.1977V86.2625H45.4745V83.1977C44.6931 83.2191 43.9118 83.1524 43.1448 82.9989C42.6783 82.9187 42.2606 82.6573 41.98 82.27C41.7096 81.7843 41.5877 81.2278 41.6297 80.6713V78.3851C41.5923 77.7864 41.7222 77.1891 42.0044 76.6622C42.2829 76.2625 42.7037 75.9891 43.1774 75.9001C43.9392 75.7497 44.7151 75.6859 45.4908 75.7096V72.4708H46.8674V75.7096C47.6377 75.6852 48.4083 75.749 49.1645 75.9001ZM45.4908 76.6125C44.9622 76.5987 44.4334 76.632 43.9105 76.7119C43.774 76.7272 43.6423 76.7721 43.5242 76.8435C43.4062 76.915 43.3046 77.0113 43.2263 77.126C43.0716 77.4414 43.0041 77.7936 43.0308 78.1449V80.8701C42.9984 81.1899 43.0669 81.5119 43.2263 81.7895C43.3109 81.8994 43.4167 81.9907 43.5371 82.0576C43.6576 82.1245 43.7902 82.1658 43.9268 82.1789C44.438 82.266 44.9564 82.3021 45.4745 82.2866L45.4908 76.6125ZM49.3111 78.1532C49.3346 77.8029 49.2701 77.4523 49.1238 77.1343C49.0436 77.0214 48.9415 76.9264 48.8238 76.8551C48.7062 76.7839 48.5754 76.738 48.4395 76.7202C47.9166 76.6406 47.3878 76.6074 46.8593 76.6208V82.2866C47.377 82.2996 47.8949 82.2664 48.407 82.1872C48.6827 82.1578 48.9365 82.0213 49.1156 81.8061C49.2683 81.5229 49.3363 81.2004 49.3111 80.8784V78.1532Z" fill="#15B39B"/>
<path d="M56.2513 82.0049C55.914 82.0591 55.5704 82.0591 55.2331 82.0049C54.8773 81.9591 54.5515 81.7787 54.3207 81.4996C54.0308 81.123 53.8226 80.6882 53.7098 80.2239L52.9767 77.7389C52.853 77.3453 52.7898 76.9346 52.7893 76.5213C52.7851 76.2037 52.852 75.8893 52.9849 75.6019C53.1109 75.3569 53.2994 75.1509 53.5306 75.0055C53.8014 74.8249 54.0876 74.6697 54.3859 74.5416C54.728 74.4174 55.0946 74.3014 55.4693 74.1854C55.8494 74.0608 56.2355 73.9558 56.626 73.8707C56.9136 73.8148 57.2049 73.7816 57.4976 73.7713C57.7805 73.7642 58.0606 73.8297 58.3121 73.9618C58.5704 74.1297 58.7922 74.3496 58.9638 74.6079C59.1873 74.9652 59.3601 75.3528 59.477 75.7593L60.2101 78.2443C60.4686 78.8895 60.4686 79.6119 60.2101 80.2571C60.0705 80.4906 59.8777 80.6867 59.648 80.8286C59.3789 81.0097 59.0923 81.1623 58.7927 81.2842L57.6931 81.657C57.2195 81.8012 56.7381 81.9173 56.2513 82.0049ZM58.2958 80.4725C58.4772 80.3886 58.6448 80.2769 58.7927 80.1411C58.8655 80.078 58.9253 80.0009 58.9686 79.9142C59.012 79.8274 59.038 79.7328 59.0453 79.6359C59.063 79.3547 59.0242 79.0729 58.9312 78.8075L58.0433 75.9001C57.9644 75.563 57.8112 75.2486 57.5953 74.9806C57.5082 74.8935 57.4029 74.8274 57.2873 74.7873C57.1717 74.7471 57.0487 74.7339 56.9274 74.7487C56.5086 74.7877 56.0957 74.8766 55.6974 75.0138C55.2907 75.1239 54.8973 75.2795 54.5244 75.4776C54.4147 75.5337 54.319 75.6142 54.2442 75.7132C54.1694 75.8121 54.1176 75.927 54.0927 76.0492C54.0549 76.3938 54.0967 76.7427 54.2148 77.068L55.1109 80.0417C55.1706 80.3059 55.2844 80.5542 55.4448 80.7707C55.5021 80.8501 55.5752 80.9163 55.6595 80.9648C55.7437 81.0134 55.8372 81.0432 55.9336 81.0523C56.1277 81.0855 56.326 81.0855 56.5201 81.0523C56.8226 80.9878 57.1217 80.9077 57.4161 80.8121C57.8343 80.663 58.1275 80.5498 58.2958 80.4725Z" fill="#15B39B"/>
<path d="M63.6638 79.2714L63.0529 78.2526C63.189 78.2054 63.32 78.1443 63.4439 78.0703C63.8186 77.8384 63.9489 77.3828 63.8431 76.687C63.5288 75.5207 63.022 74.4171 62.3442 73.4234L61.4482 71.9076L65.7329 69.2652L69.5532 75.6765L68.3802 76.4054L65.0242 70.7728L62.9307 72.0484L63.4846 72.9761C64.2263 74.1207 64.7512 75.3962 65.0323 76.7367C65.1409 77.1842 65.1025 77.6555 64.9231 78.0787C64.7436 78.502 64.433 78.854 64.0385 79.0809C63.9207 79.1578 63.795 79.2216 63.6638 79.2714Z" fill="#15B39B"/>
<path d="M71.9725 63.1273L77.2835 68.3374L76.3304 69.3397L72.4124 65.4963L73.6668 72.1229L72.7056 73.15L67.3946 67.9481L68.3476 66.9376L72.4205 70.9135L71.0764 64.0798L71.9725 63.1273Z" fill="#15B39B"/>
<path d="M80.5418 63.5745C80.3367 63.8553 80.0893 64.1013 79.8086 64.3035C79.5247 64.5224 79.1693 64.6232 78.8149 64.5851C78.3466 64.5267 77.8963 64.3656 77.4953 64.113L75.2552 62.8539C74.8953 62.6587 74.5659 62.4102 74.2777 62.1166C74.055 61.8819 73.8878 61.5986 73.789 61.2883C73.712 61.0178 73.712 60.7306 73.789 60.46C73.8561 60.1379 73.9572 59.8241 74.0904 59.524C74.2451 59.1844 74.4243 58.8365 74.6117 58.4886C74.7971 58.13 75.001 57.7816 75.2226 57.4449C75.3853 57.1983 75.5708 56.9681 75.7765 56.7574C75.9719 56.544 76.2191 56.3869 76.4933 56.3018C76.7916 56.2391 77.0993 56.2391 77.3975 56.3018C77.8068 56.3909 78.1999 56.5446 78.5624 56.7574L80.8024 58.0164C81.1139 58.1554 81.3953 58.3558 81.6302 58.6061C81.8651 58.8563 82.0488 59.1514 82.1709 59.4743C82.2346 59.7466 82.2346 60.0303 82.1709 60.3026C82.1041 60.6211 82.0059 60.9319 81.8777 61.2303C81.7039 61.5838 81.5247 61.9317 81.34 62.274C81.1043 62.7261 80.8376 63.1606 80.5418 63.5745ZM80.9409 61.0232C81.0214 60.8405 81.0656 60.6436 81.0712 60.4435C81.0896 60.2465 81.0311 60.0502 80.9083 59.8967C80.7263 59.6973 80.5112 59.5319 80.273 59.408L77.6582 57.9419C77.371 57.7545 77.0446 57.6381 76.7051 57.6022C76.5834 57.6018 76.4632 57.6291 76.3533 57.6822C76.2433 57.7352 76.1464 57.8127 76.0698 57.9088C75.7996 58.2369 75.5673 58.5954 75.3774 58.9773C75.1617 59.3458 74.9868 59.7375 74.8561 60.1452C74.8163 60.2626 74.8029 60.3875 74.817 60.5108C74.8311 60.6342 74.8723 60.7527 74.9375 60.8576C75.1571 61.1311 75.4359 61.3494 75.7521 61.4954L78.3669 62.9616C78.5948 63.1028 78.8459 63.201 79.1081 63.2515C79.3021 63.2743 79.4973 63.221 79.6539 63.1024C79.809 62.9768 79.939 62.8222 80.0367 62.6468C80.1508 62.4811 80.3055 62.2161 80.5173 61.8185C80.7291 61.4209 80.8513 61.2055 80.9409 60.9901V61.0232Z" fill="#15B39B"/>
<defs>
<linearGradient id="paint0_linear_92_166" x1="46.5" y1="91.5023" x2="46.5" y2="1.49771" gradientUnits="userSpaceOnUse">
<stop stop-color="#5B8DF4"/>
<stop offset="1" stop-color="#15B39B"/>
<stop offset="1" stop-color="#15B39B"/>
</linearGradient>
<linearGradient id="paint1_linear_92_166" x1="1.49762" y1="0" x2="1.49762" y2="2.99524" gradientUnits="userSpaceOnUse">
<stop stop-color="#5B8DF4"/>
<stop offset="1" stop-color="#15B39B"/>
<stop offset="1" stop-color="#15B39B"/>
</linearGradient>
<linearGradient id="paint2_linear_92_166" x1="1.49762" y1="0" x2="1.49762" y2="2.99524" gradientUnits="userSpaceOnUse">
<stop stop-color="#5B8DF4"/>
<stop offset="1" stop-color="#15B39B"/>
<stop offset="1" stop-color="#15B39B"/>
</linearGradient>
<linearGradient id="paint3_linear_92_166" x1="1.49762" y1="0" x2="1.49762" y2="2.99524" gradientUnits="userSpaceOnUse">
<stop stop-color="#5B8DF4"/>
<stop offset="1" stop-color="#15B39B"/>
<stop offset="1" stop-color="#15B39B"/>
</linearGradient>
</defs>
</svg>
