<svg width="93" height="93" viewBox="0 0 93 93" fill="none" xmlns="http://www.w3.org/2000/svg">
<path fill-rule="evenodd" clip-rule="evenodd" d="M3.10416 43.4243C2.39673 53.4058 5.15183 63.3261 10.9052 71.5133C16.6585 79.7005 25.0583 85.6541 34.689 88.3707C44.3197 91.0874 54.5925 90.401 63.7762 86.4273C72.9599 82.4536 80.493 75.4355 85.1061 66.5557C89.7191 57.6758 91.13 47.4773 89.101 37.6786C87.072 27.8799 81.7271 19.0802 73.9672 12.7625C66.2072 6.44473 56.5065 2.9952 46.5 2.9952C45.6729 2.9952 45.0024 2.32469 45.0024 1.49758C45.0024 0.670462 45.6729 -4.73179e-05 46.5 -4.7308e-05C57.1955 -4.71805e-05 67.564 3.68698 75.8582 10.4397C84.1525 17.1924 89.8653 26.5979 92.034 37.0712C94.2027 47.5445 92.6947 58.4453 87.764 67.9365C82.8334 77.4276 74.7816 84.9289 64.9657 89.1762C55.1497 93.4235 44.1696 94.1572 33.8758 91.2535C23.582 88.3498 14.6039 81.9863 8.4545 73.2354C2.30506 64.4845 -0.639721 53.8813 0.11641 43.2126C0.872541 32.5438 5.28336 22.4619 12.6055 14.6658C13.1718 14.0629 14.1196 14.0332 14.7224 14.5995C15.3253 15.1657 15.3551 16.1135 14.7888 16.7164C7.93828 24.0103 3.81158 33.4428 3.10416 43.4243Z" fill="url(#paint0_linear_28_175)"/>
<ellipse cx="28.3336" cy="5.51442" rx="1.49762" ry="1.49762" transform="matrix(0.759386 -0.650641 0.65064 0.759386 3.22957 19.7619)" fill="url(#paint1_linear_28_175)"/>
<ellipse cx="20.2108" cy="9.84456" rx="1.49762" ry="1.49762" transform="matrix(0.759386 -0.650641 0.65064 0.759386 -1.54226 15.5187)" fill="url(#paint2_linear_28_175)"/>
<ellipse cx="37.7557" cy="2.7007" rx="1.49762" ry="1.49762" transform="matrix(0.759386 -0.650641 0.65064 0.759386 7.32737 25.2152)" fill="url(#paint3_linear_28_175)"/>
<path d="M71.2175 45.9881C70.9424 47.004 70.2203 47.6883 69.4337 48.3174C68.1894 49.2285 66.8888 50.0618 65.5394 50.8125C63.9619 51.7732 62.363 52.704 60.7726 53.6434L55.6619 56.6444C53.9827 57.6277 52.2992 58.6068 50.6113 59.5816C50.0602 59.9126 49.4856 60.2038 48.892 60.453C47.8308 60.8141 46.6779 60.8141 45.6167 60.453C43.3988 59.8536 41.2281 59.1183 39.0618 58.3574C37.5187 57.8133 36.0529 57.1077 34.5184 56.5296C33.9104 56.265 33.2516 56.1341 32.5874 56.1458C31.9232 56.1576 31.2695 56.3117 30.6714 56.5976C29.9278 56.9674 29.2358 57.4265 28.5223 57.8516C28.1741 58.0556 27.8217 58.2766 27.4821 58.4807C27.2801 58.6124 27.1855 58.5869 27.0866 58.3616C26.4462 56.9377 25.7971 55.5265 25.1438 54.111C23.8758 51.3311 22.6164 48.5469 21.3441 45.7713C21.2366 45.5332 21.2968 45.4482 21.5117 45.3462C23.8242 44.2836 26.1453 43.2209 28.5137 42.2985C29.7748 41.7564 31.0964 41.3641 32.4509 41.1296C33.9346 40.8968 35.4539 41.1807 36.7493 41.933C38.4686 42.9064 40.059 44.0838 41.6837 45.206C42.4511 45.802 43.2503 46.3568 44.0779 46.8679C45.2939 47.5098 46.6179 47.9274 47.9851 48.1006C48.9917 48.2047 50.0033 48.2558 51.0154 48.2536C51.857 48.2551 52.6934 48.3841 53.4955 48.6362C53.715 48.6977 53.9198 48.8018 54.0982 48.9423C54.2766 49.0829 54.4249 49.2571 54.5345 49.4549C54.6441 49.6527 54.7128 49.8701 54.7366 50.0944C54.7605 50.3187 54.7389 50.5455 54.6733 50.7615C54.5923 50.9902 54.4642 51.1998 54.2969 51.3769C54.1297 51.5539 53.927 51.6947 53.7018 51.7902C52.9057 52.2001 52.0204 52.4117 51.1228 52.4065C48.7889 52.432 46.4549 52.4065 44.1209 52.4065C42.6103 52.354 41.1144 52.0936 39.6764 51.6329C38.8168 51.3864 37.9571 51.0888 37.0158 50.7403C37.4836 51.2196 37.9864 51.6643 38.5202 52.0707C39.7417 53.0737 41.1555 53.8226 42.6767 54.2725C43.2025 54.4094 43.7448 54.4752 44.2885 54.4681C46.5236 54.4681 48.7588 54.4893 50.9896 54.4681C52.5689 54.5015 54.1149 54.0172 55.3868 53.0909C55.8207 52.7788 56.1719 52.3677 56.4106 51.8926C56.6493 51.4175 56.7685 50.8924 56.7579 50.362C56.8017 49.5614 56.5978 48.7667 56.1734 48.0836C55.6261 47.3344 54.8121 46.818 53.8953 46.6384C52.9191 46.4072 51.9202 46.2832 50.9165 46.2686C49.8763 46.2346 48.8361 46.2346 47.7959 46.2091C47.5442 46.2133 47.2952 46.158 47.0695 46.0476C47.4779 45.8138 47.8518 45.6225 48.2215 45.3845C49.3219 44.7341 50.4136 44.0625 51.5226 43.4249C52.4814 42.7951 53.5473 42.3415 54.669 42.086C55.1319 41.9906 55.6115 42.0097 56.0652 42.1417C56.5188 42.2737 56.9325 42.5145 57.2694 42.8426C57.4586 43.0211 57.6348 43.2167 57.8067 43.4122C57.897 43.5142 57.9658 43.561 58.0904 43.4504C58.9045 42.7142 59.934 42.2528 61.0305 42.1327C61.5317 42.0541 62.0423 42.0541 62.5435 42.1327C63.833 42.3835 64.4304 43.1444 64.3703 44.4748C64.4734 44.5131 64.5336 44.4281 64.6024 44.3898C65.5115 43.8494 66.5095 43.471 67.551 43.2719C68.0999 43.1395 68.6746 43.1552 69.2152 43.3174C69.7559 43.4797 70.2425 43.7825 70.6243 44.1943C70.8969 44.4942 71.0994 44.8498 71.2175 45.2357V45.9881Z" fill="#15B39B"/>
<path d="M45.3201 43.833C43.4491 43.8245 41.6227 43.2674 40.0721 42.2321C38.5214 41.1968 37.3161 39.7299 36.6088 38.017C35.9015 36.304 35.7239 34.4221 36.0985 32.6093C36.4731 30.7966 37.3831 29.1344 38.7133 27.8333C40.0435 26.5321 41.7341 25.6504 43.5712 25.2998C45.4083 24.9491 47.3093 25.1453 49.0336 25.8634C50.7579 26.5816 52.2281 27.7894 53.258 29.3341C54.2879 30.8788 54.8313 32.6909 54.8194 34.5411C54.8035 37.0183 53.7943 39.388 52.0133 41.1301C50.2323 42.8722 47.8251 43.8443 45.3201 43.833ZM41.7568 33.0321H41.9932C42.552 33.0321 43.1151 33.0321 43.6739 33.0321C43.8759 33.0321 43.9618 33.1044 43.949 33.2957C43.949 33.3764 43.949 33.4572 43.949 33.538C43.949 35.1489 43.949 36.7599 43.949 38.3709C43.949 38.6005 44.0177 38.6812 44.2584 38.677C44.9891 38.677 45.7242 38.677 46.4549 38.677C46.6999 38.677 46.7687 38.5962 46.7601 38.3667C46.7601 37.8566 46.7601 37.3465 46.7601 36.8364C46.7601 34.7451 46.7601 32.6496 46.7601 30.5583C46.7601 30.333 46.687 30.265 46.4635 30.2692C45.8918 30.2692 45.3244 30.2692 44.7441 30.2692C44.6819 30.2641 44.6192 30.2725 44.5606 30.2938C44.502 30.3151 44.4487 30.3488 44.4046 30.3925L41.7568 33.0321Z" fill="#15B39B"/>
<path d="M51.0154 22.9581C51.5011 22.9581 51.9266 22.9581 52.3522 22.9581C52.6058 22.9581 52.6745 23.0474 52.6702 23.2897C52.6702 23.9698 52.6702 24.6499 52.6702 25.33C52.6702 25.4107 52.7089 25.5297 52.6144 25.5723C52.5198 25.6148 52.4553 25.5085 52.3866 25.4575C50.9591 24.3743 49.2961 23.635 47.5295 23.2982C47.2655 23.2426 46.9985 23.2014 46.73 23.1749C46.515 23.1536 46.4807 23.0431 46.515 22.8646C46.701 21.7954 47.1221 20.7797 47.7487 19.8892C48.3432 19.0229 49.1254 18.2984 50.0384 17.7683C50.9514 17.2382 51.9723 16.9158 53.027 16.8245C54.6234 16.6622 56.2297 17.0205 57.6012 17.8448C58.9726 18.669 60.0339 19.914 60.6235 21.3901C61.213 22.8662 61.2985 24.4924 60.8668 26.0209C60.4351 27.5494 59.5099 28.8965 58.2323 29.8569C57.7166 30.2353 57.1584 30.5534 56.5688 30.8048C56.3883 30.8813 56.2894 30.8558 56.2206 30.6603C55.8189 29.543 55.2385 28.4968 54.5013 27.5615C54.381 27.4043 54.3939 27.3193 54.6131 27.3363C54.8323 27.3533 54.8409 27.2555 54.8409 27.094C54.8409 25.0792 54.8409 23.0658 54.8409 21.0538C54.8409 20.8838 54.785 20.8115 54.6045 20.8158C54.1747 20.8158 53.7448 20.8158 53.315 20.8158C53.2656 20.8143 53.2163 20.8229 53.1704 20.8412C53.1246 20.8595 53.083 20.887 53.0485 20.9221L51.0154 22.9581Z" fill="#15B39B"/>
<path d="M33.0929 81.3278L27.332 78.7387L30.3112 71.716L31.5786 72.2829L28.978 78.3495L32.3522 79.8641L34.9282 73.7974L36.1956 74.3643L33.6196 80.431L34.5825 80.8625L33.4139 83.6208L32.2699 83.1301L33.0929 81.3278Z" fill="#15B39B"/>
<path d="M37.4301 80.414L37.8827 77.4273C37.9052 77.0533 38.014 76.6901 38.2 76.3679C38.386 76.0457 38.644 75.7737 38.9526 75.5743C39.7678 75.224 40.671 75.1528 41.5285 75.3712C42.3628 75.4339 43.1557 75.7688 43.7918 76.3273C44.0145 76.6233 44.1682 76.968 44.241 77.3347C44.3137 77.7015 44.3036 78.0805 44.2115 78.4426L43.9564 80.1348L39.0184 79.3394L38.8456 80.4817C38.796 80.6983 38.8033 80.9245 38.867 81.1372C38.9306 81.3498 39.0482 81.5412 39.2077 81.6917C39.6735 82.0393 40.2226 82.2499 40.7961 82.3008C41.638 82.4041 42.4889 82.4041 43.3309 82.3008L43.1663 83.3754C42.2625 83.4384 41.3548 83.4015 40.4587 83.2654C38.2037 82.9101 37.2079 81.9539 37.4301 80.414ZM42.7301 78.9756L42.9112 77.7911C42.9571 77.6129 42.957 77.4255 42.9108 77.2474C42.8646 77.0693 42.774 76.9067 42.6478 76.7757C42.2492 76.5036 41.791 76.3379 41.3146 76.2934C40.8497 76.1755 40.3639 76.1755 39.899 76.2934C39.7407 76.3712 39.605 76.4902 39.5054 76.6387C39.4057 76.7871 39.3457 76.9598 39.3312 77.1396L39.1501 78.3241L42.7301 78.9756Z" fill="#15B39B"/>
<path d="M46.4418 76.0819L47.8162 75.9381L48.1207 79.1026L51.7665 78.7388L51.462 75.5743L52.8446 75.4304L53.5689 83.0454L52.1945 83.1893L51.8653 79.8049L48.2194 80.1687L48.5486 83.5531L47.166 83.6885L46.4418 76.0819Z" fill="#15B39B"/>
<path d="M54.9679 75.0328L56.2765 74.4913L57.2887 77.0296L58.6302 76.4712C59.0979 76.264 59.5864 76.1107 60.0869 76.0142C60.409 75.9456 60.7443 75.9966 61.0333 76.1581C61.3187 76.3664 61.532 76.6628 61.6424 77.0042L62.2267 78.468C62.6299 79.4918 61.9962 80.3633 60.3091 81.0656L57.7825 82.1317L54.9679 75.0328ZM59.9059 80.2533C60.1998 80.1344 60.4766 79.975 60.7288 79.7795C60.8727 79.675 60.9735 79.5191 61.0116 79.3423C61.0496 79.1655 61.0222 78.9805 60.9346 78.8233L60.5807 77.9349C60.5072 77.7084 60.3832 77.5027 60.2186 77.3342C60.1485 77.2737 60.0669 77.229 59.9791 77.2028C59.8912 77.1766 59.799 77.1694 59.7083 77.1819C59.4109 77.2327 59.1207 77.3208 58.8442 77.4442L57.6591 77.9349L58.7701 80.7356L59.9059 80.2533ZM61.1403 72.4606L62.4242 71.9276L65.2306 79.018L63.9467 79.5595L61.1403 72.4606Z" fill="#15B39B"/>
<defs>
<linearGradient id="paint0_linear_28_175" x1="1.49768" y1="46.4999" x2="91.5023" y2="46.4999" gradientUnits="userSpaceOnUse">
<stop stop-color="#5B8DF4"/>
<stop offset="1" stop-color="#15B39B"/>
<stop offset="1" stop-color="#15B39B"/>
</linearGradient>
<linearGradient id="paint1_linear_28_175" x1="28.3336" y1="4.0168" x2="28.3336" y2="7.01204" gradientUnits="userSpaceOnUse">
<stop stop-color="#5B8DF4"/>
<stop offset="1" stop-color="#15B39B"/>
<stop offset="1" stop-color="#15B39B"/>
</linearGradient>
<linearGradient id="paint2_linear_28_175" x1="20.2108" y1="8.34694" x2="20.2108" y2="11.3422" gradientUnits="userSpaceOnUse">
<stop stop-color="#5B8DF4"/>
<stop offset="1" stop-color="#15B39B"/>
<stop offset="1" stop-color="#15B39B"/>
</linearGradient>
<linearGradient id="paint3_linear_28_175" x1="37.7557" y1="1.20308" x2="37.7557" y2="4.19832" gradientUnits="userSpaceOnUse">
<stop stop-color="#5B8DF4"/>
<stop offset="1" stop-color="#15B39B"/>
<stop offset="1" stop-color="#15B39B"/>
</linearGradient>
</defs>
</svg>
